<?xml version="1.0" encoding="UTF-8" standalone="no"?>
<svg width="225px" height="314px" viewBox="0 0 225 314" version="1.1" xmlns="http://www.w3.org/2000/svg" xmlns:xlink="http://www.w3.org/1999/xlink">
    <!-- Generator: Sketch 39.1 (31720) - http://www.bohemiancoding.com/sketch -->
    <title>C10</title>
    <desc>Created with Sketch.</desc>
    <defs></defs>
    <g id="Page-3" stroke="none" stroke-width="1" fill="none" fill-rule="evenodd">
        <g id="C10" transform="translate(0.546714, 0.816682)">
            <rect id="rect5130" stroke="#000000" stroke-width="0.996734187" fill="#FFFFFF" x="0.561304709" y="0.116171591" width="223.228352" height="311.81103" rx="10.582486"></rect>
            <path d="M163.938141,33.2270813 C154.119829,33.4400626 149.717283,44.4803765 156.988731,53.0537998 C158.043337,54.3044 158.152122,55.0219953 156.220703,53.8208533 C151.325058,50.5511949 141.937769,52.7005699 141.457023,62.6964431 C140.863274,75.0128388 158.094163,78.5614896 161.3294,65.4649987 C161.500262,64.0831788 162.62468,64.1147798 162.35357,66.0761536 C162.058554,71.3995813 160.393926,76.3750961 158.105916,81.227116 L169.778201,81.227116 C167.490292,76.3750961 165.825664,71.3995813 165.530647,66.0761536 C165.259537,64.1147798 166.383955,64.0831788 166.554717,65.4649987 C169.790054,78.5614896 187.020943,75.0128388 186.427093,62.6964431 C185.946549,52.7005699 176.55916,50.5511949 171.663413,53.8208533 C169.731995,55.0219953 169.840881,54.3044 170.895487,53.0537998 C178.166934,44.4803765 173.764389,33.4400626 163.946177,33.2270813 C163.946177,33.2270813 163.946177,33.2271817 163.936132,33.2270813 L163.938141,33.2270813 Z" id="path147-0-8-1-6-13-2-22-1-5" fill="#000000"></path>
            <path d="M60.4053467,33.2270813 C50.5870345,33.4400626 46.1843885,44.4803765 53.4559364,53.0537998 C54.5105423,54.3044 54.6193278,55.0219953 52.6879092,53.8208533 C47.7922634,50.5511949 38.4049745,52.7005699 37.9242292,62.6964431 C37.3304797,75.0128388 54.5613691,78.5614896 57.7966057,65.4649987 C57.9674682,64.0831788 59.0917852,64.1147798 58.8207759,66.0761536 C58.5257594,71.3995813 56.8611313,76.3750961 54.5731216,81.227116 L66.2454068,81.227116 C63.9574975,76.3750961 62.2928694,71.3995813 61.9978529,66.0761536 C61.7267432,64.1147798 62.8511606,64.0831788 63.0219226,65.4649987 C66.2572597,78.5614896 83.4881491,75.0128388 82.8942991,62.6964431 C82.4137548,52.7005699 73.0263655,50.5511949 68.1306192,53.8208533 C66.1992006,55.0219953 66.307986,54.3044 67.362592,53.0537998 C74.6341398,44.4803765 70.2314939,33.4400626 60.4133826,33.2270813 C60.4133826,33.2270813 60.4133826,33.2271817 60.4033377,33.2270813 L60.4053467,33.2270813 Z" id="path147-0-8-1-6-75-2-83-21-1-8" fill="#000000"></path>
            <path d="M163.938141,279.648393 C154.119829,279.435412 149.717283,268.395098 156.988731,259.821675 C158.043337,258.571075 158.152122,257.853479 156.220703,259.054621 C151.325058,262.32428 141.937769,260.174905 141.457023,250.179032 C140.863274,237.862636 158.094163,234.313985 161.3294,247.410476 C161.500262,248.792296 162.62468,248.760695 162.35357,246.799321 C162.058554,241.475893 160.393926,236.500379 158.105916,231.648359 L169.778201,231.648359 C167.490292,236.500379 165.825664,241.475893 165.530647,246.799321 C165.259537,248.760695 166.383955,248.792296 166.554717,247.410476 C169.790054,234.313985 187.020943,237.862636 186.427093,250.179032 C185.946549,260.174905 176.55916,262.32428 171.663413,259.054621 C169.731995,257.853479 169.840881,258.571075 170.895487,259.821675 C178.166934,268.395098 173.764389,279.435412 163.946177,279.648393 C163.946177,279.648393 163.946177,279.648293 163.936132,279.648393 L163.938141,279.648393 Z" id="path147-0-8-1-6-7-5-5-7-3-5-5" fill="#000000"></path>
            <path d="M60.4053467,279.648393 C50.5870345,279.435412 46.1843885,268.395098 53.4559364,259.821675 C54.5105423,258.571075 54.6193278,257.853479 52.6879092,259.054621 C47.7922634,262.32428 38.4049745,260.174905 37.9242292,250.179032 C37.3304797,237.862636 54.5613691,234.313985 57.7966057,247.410476 C57.9674682,248.792296 59.0917852,248.760695 58.8207759,246.799321 C58.5257594,241.475893 56.8611313,236.500379 54.5731216,231.648359 L66.2454068,231.648359 C63.9574975,236.500379 62.2928694,241.475893 61.9978529,246.799321 C61.7267432,248.760695 62.8511606,248.792296 63.0219226,247.410476 C66.2572597,234.313985 83.4881491,237.862636 82.8942991,250.179032 C82.4137548,260.174905 73.0263655,262.32428 68.1306192,259.054621 C66.1992006,257.853479 66.307986,258.571075 67.362592,259.821675 C74.6341398,268.395098 70.2314939,279.435412 60.4133826,279.648393 C60.4133826,279.648393 60.4133826,279.648293 60.4033377,279.648393 L60.4053467,279.648393 Z" id="path147-0-8-1-6-75-6-1-2-7-9-3" fill="#000000"></path>
            <path d="M112.171643,66.2975618 C102.353331,66.510543 97.9508861,77.550857 105.222233,86.1242802 C106.276839,87.3747801 106.385624,88.0924758 104.454306,86.8912334 C99.55856,83.621575 90.1712711,85.7710504 89.6905259,95.7669235 C89.0967764,108.083219 106.327666,111.63187 109.563003,98.5353788 C109.733765,97.1536592 110.858182,97.1851599 110.587073,99.1465337 C110.292056,104.469961 108.627428,109.445476 106.339519,114.297496 L118.011804,114.297496 C115.723895,109.445476 114.059166,104.469961 113.76415,99.1465337 C113.49304,97.1851599 114.617457,97.1536592 114.788219,98.5353788 C118.023556,111.63187 135.254446,108.083219 134.660696,95.7669235 C134.180051,85.7710504 124.792662,83.621575 119.897016,86.8912334 C117.965598,88.0924758 118.074383,87.3747801 119.128989,86.1242802 C126.400436,77.550857 121.997891,66.510543 112.179679,66.2975618 C112.179679,66.2975618 112.179679,66.2976621 112.169634,66.2975618 L112.171643,66.2975618 Z" id="path147-0-8-1-6-2-00-7-1-1-4" fill="#000000"></path>
            <path d="M112.171744,246.578114 C102.353432,246.365233 97.9507857,235.324919 105.222333,226.751495 C106.276939,225.500895 106.385725,224.7833 104.454306,225.984442 C99.5586605,229.2541 90.1713716,227.104725 89.6906264,217.108752 C89.0968769,204.792457 106.327766,201.243806 109.563003,214.340297 C109.733865,215.722016 110.858283,215.690515 110.587173,213.729142 C110.292157,208.405714 108.627528,203.430099 106.339519,198.578179 L118.011804,198.578179 C115.723895,203.430099 114.059267,208.405714 113.76425,213.729142 C113.49314,215.690515 114.617558,215.722016 114.78832,214.340297 C118.023657,201.243806 135.254546,204.792457 134.660696,217.108752 C134.180152,227.104725 124.792763,229.2541 119.897016,225.984442 C117.965598,224.7833 118.074484,225.500895 119.128989,226.751495 C126.400537,235.324919 121.997991,246.365233 112.17978,246.578114 C112.17978,246.578214 112.17978,246.578114 112.169735,246.578114 L112.171744,246.578114 Z" id="path147-0-8-1-6-2-0-8-6-8-1-8" fill="#000000"></path>
            <path d="M206.574999,261.954296 C210.502224,261.866014 212.263383,257.265398 209.354703,253.693172 C208.932821,253.172105 208.889327,252.873049 209.661974,253.37355 C211.620213,254.735907 215.375168,253.840343 215.567426,249.67532 C215.804986,244.543506 208.91253,243.064976 207.618456,248.521831 C207.550151,249.097572 207.100344,249.08443 207.208828,248.267216 C207.326854,246.049122 207.992625,243.97589 208.907809,241.954324 L204.239176,241.954324 C205.15436,243.97589 205.820131,246.049122 205.938158,248.267216 C206.046642,249.08443 205.596834,249.097572 205.52853,248.521831 C204.234455,243.064976 197.342099,244.543506 197.579559,249.67532 C197.771817,253.840343 201.526773,254.735907 203.485011,253.37355 C204.257659,252.873049 204.214165,253.172105 203.792282,253.693172 C200.883603,257.265398 202.644761,261.865512 206.571986,261.954296 C206.57299,261.954296 206.571986,261.954196 206.571986,261.954296 L206.574999,261.954296 Z" id="path147-6-9-8-7-0-5-6-83-3-7" fill="#000000"></path>
            <path d="M60.4053467,99.3675406 C50.5870345,99.5804215 46.184489,110.620735 53.4559364,119.194159 C54.5105423,120.444759 54.6193278,121.162354 52.6879092,119.961212 C47.7922634,116.691554 38.4049745,118.841029 37.9242292,128.836902 C37.3304797,141.153198 54.5613691,144.701849 57.7966057,131.605358 C57.9674682,130.223638 59.0917852,130.255139 58.8207759,132.216512 C58.5257594,137.53994 56.8611313,142.515555 54.5731216,147.367475 L66.2454068,147.367475 C63.9574975,142.515555 62.2928694,137.53994 61.9978529,132.216512 C61.7267432,130.255139 62.8511606,130.223638 63.0219226,131.605358 C66.2572597,144.701849 83.4881491,141.153198 82.8942991,128.836902 C82.4137548,118.840929 73.0263655,116.691554 68.1306192,119.961212 C66.1992006,121.162354 66.307986,120.444759 67.362592,119.194159 C74.6341398,110.620735 70.2314939,99.5804215 60.4133826,99.3675406 C60.4133826,99.3674403 60.4133826,99.3675406 60.4033377,99.3675406 L60.4053467,99.3675406 Z" id="path147-0-8-1-6-75-2-9-77-44-0-7" fill="#000000"></path>
            <path d="M60.4053467,213.507934 C50.5870345,213.294953 46.1843885,202.254639 53.4559364,193.681216 C54.5105423,192.430716 54.6193278,191.71302 52.6879092,192.914262 C47.7922634,196.183921 38.4049745,194.034446 37.9242292,184.038572 C37.3304797,171.722277 54.5613691,168.173526 57.7966057,181.270017 C57.9674682,182.651837 59.0917852,182.620336 58.8207759,180.658962 C58.5257594,175.335434 56.8611313,170.359919 54.5731216,165.5079 L66.2454068,165.5079 C63.9574975,170.359919 62.2928694,175.335434 61.9978529,180.658962 C61.7267432,182.620336 62.8511606,182.651837 63.0219226,181.270017 C66.2572597,168.173526 83.4881491,171.722177 82.8942991,184.038572 C82.4137548,194.034446 73.0263655,196.183921 68.1306192,192.914262 C66.1992006,191.71302 66.307986,192.430716 67.362592,193.681216 C74.6341398,202.254639 70.2314939,213.294953 60.4133826,213.507934 C60.4133826,213.507934 60.4133826,213.507834 60.4033377,213.507934 L60.4053467,213.507934 Z" id="path147-0-8-1-6-75-2-8-0-3-9-3" fill="#000000"></path>
            <path d="M163.938141,99.3675406 C154.119829,99.5804215 149.717283,110.620735 156.988731,119.194159 C158.043337,120.444759 158.152122,121.162354 156.220703,119.961212 C151.325058,116.691554 141.937769,118.841029 141.457023,128.836902 C140.863274,141.153198 158.094163,144.701849 161.3294,131.605358 C161.500262,130.223638 162.62468,130.255139 162.35357,132.216512 C162.058554,137.53994 160.393926,142.515555 158.105916,147.367475 L169.778201,147.367475 C167.490292,142.515555 165.825664,137.53994 165.530647,132.216512 C165.259537,130.255139 166.383955,130.223638 166.554717,131.605358 C169.790054,144.701849 187.020943,141.153198 186.427093,128.836902 C185.946549,118.840929 176.55916,116.691554 171.663413,119.961212 C169.731995,121.162354 169.840881,120.444759 170.895487,119.194159 C178.166934,110.620735 173.764389,99.5804215 163.946177,99.3675406 C163.946177,99.3674403 163.946177,99.3675406 163.936132,99.3675406 L163.938141,99.3675406 Z" id="path147-0-8-1-6-75-2-9-7-1-9-7-9" fill="#000000"></path>
            <path d="M163.938141,213.507934 C154.119829,213.294953 149.717283,202.254639 156.988731,193.681216 C158.043337,192.430716 158.152122,191.71302 156.220703,192.914262 C151.325058,196.183921 141.937769,194.034446 141.457023,184.038572 C140.863274,171.722277 158.094163,168.173526 161.3294,181.270017 C161.500262,182.651837 162.62468,182.620336 162.35357,180.658962 C162.058554,175.335434 160.393926,170.359919 158.105916,165.5079 L169.778201,165.5079 C167.490292,170.359919 165.825664,175.335434 165.530647,180.658962 C165.259537,182.620336 166.383955,182.651837 166.554717,181.270017 C169.790054,168.173526 187.020943,171.722177 186.427093,184.038572 C185.946549,194.034446 176.55916,196.183921 171.663413,192.914262 C169.731995,191.71302 169.840881,192.430716 170.895487,193.681216 C178.166934,202.254639 173.764389,213.294953 163.946177,213.507934 C163.946177,213.507934 163.946177,213.507834 163.936132,213.507934 L163.938141,213.507934 Z" id="path147-0-8-1-6-75-2-8-5-1-52-2-8" fill="#000000"></path>
            <path d="M17.7775286,50.0897188 C13.8502037,50.1780012 12.0891454,54.7785165 14.9977243,58.3508431 C15.4196069,58.8719098 15.463101,59.1708661 14.6905536,58.6703651 C12.7322149,57.3080074 8.97735966,58.2036724 8.78510175,62.3685944 C8.54754168,67.5004092 15.4398974,68.9790388 16.7340724,63.5221843 C16.8023772,62.9464428 17.2521844,62.9595848 17.1435999,63.7767988 C17.0256736,65.9948936 16.3598023,68.0680248 15.4446185,70.0896914 L20.1133518,70.0896914 C19.198168,68.0680248 18.5322966,65.9948936 18.4143704,63.7767988 C18.3058863,62.9595848 18.7555931,62.9464428 18.8238979,63.5221843 C20.1180728,68.9790388 27.0104286,67.5004092 26.772969,62.3685944 C26.5806106,58.2036724 22.8257553,57.3080074 20.8674166,58.6703651 C20.0948693,59.1708661 20.1383634,58.8719098 20.560246,58.3508431 C23.4688249,54.7785165 21.7077665,50.1784024 17.7805421,50.0897188 C17.7795376,50.0897188 17.7805421,50.0897188 17.7805421,50.0897188 L17.7775286,50.0897188 Z" id="path147-6-9-8-7-4-5-62-52-8-0" fill="#000000"></path>
            <polygon id="path31-6-7-6" fill="#000000" points="7.75882218 46.9541894 7.75882218 13.9548364 10.9576965 13.9548364 10.9576965 46.9541894"></polygon>
            <path d="M20.4396076,13.9542345 C17.3602667,13.9542345 14.8853228,16.766831 14.8853228,20.2603053 L14.8853228,40.6488208 C14.8853228,44.1422951 17.3615725,46.9535874 20.4396076,46.9535874 L22.2369278,46.9535874 C25.3161683,46.9535874 27.7962351,44.1422951 27.7962351,40.6488208 L27.7962351,20.2603053 C27.7962351,16.766831 25.3148625,13.9542345 22.2369278,13.9542345 L20.4396076,13.9542345 L20.4396076,13.9542345 Z M21.3690551,17.0745152 C23.1870676,17.0745152 24.6488907,18.4689755 24.6488907,20.2131545 L24.6488907,40.8714328 C24.6488907,42.6155115 23.1870676,44.0231139 21.3690551,44.0231139 C19.551143,44.0231139 18.0841971,42.6155115 18.0841971,40.8714328 L18.0841971,20.2131545 C18.0841971,18.4702797 19.551143,17.0745152 21.3690551,17.0745152 L21.3690551,17.0745152 L21.3690551,17.0745152 Z" id="path33-9-3-6" fill="#000000"></path>
            <polygon id="path31-1-4-0-7" fill="#000000" points="216.590793 265.089826 216.590793 298.089179 213.392019 298.089179 213.392019 265.089826"></polygon>
            <path d="M203.910108,298.089781 C206.989348,298.089781 209.464292,295.277184 209.464292,291.78371 L209.464292,271.395194 C209.464292,267.90172 206.988042,265.090428 203.910108,265.090428 L202.112687,265.090428 C199.033447,265.090428 196.55338,267.90172 196.55338,271.395194 L196.55338,291.78371 C196.55338,295.277184 199.034753,298.089781 202.112687,298.089781 L203.910108,298.089781 L203.910108,298.089781 Z M202.98056,294.9695 C201.162547,294.9695 199.700724,293.57504 199.700724,291.830861 L199.700724,271.172582 C199.700724,269.428504 201.162547,268.020901 202.98056,268.020901 C204.798472,268.020901 206.265518,269.428504 206.265518,271.172582 L206.265518,291.830861 C206.265518,293.573735 204.798472,294.9695 202.98056,294.9695 L202.98056,294.9695 L202.98056,294.9695 Z" id="path33-5-7-4-0" fill="#000000"></path>
        </g>
    </g>
</svg>