<?xml version="1.0" encoding="UTF-8" standalone="no"?>
<svg width="225px" height="314px" viewBox="0 0 225 314" version="1.1" xmlns="http://www.w3.org/2000/svg" xmlns:xlink="http://www.w3.org/1999/xlink">
    <!-- Generator: Sketch 39.1 (31720) - http://www.bohemiancoding.com/sketch -->
    <title>C6</title>
    <desc>Created with Sketch.</desc>
    <defs></defs>
    <g id="Page-3" stroke="none" stroke-width="1" fill="none" fill-rule="evenodd">
        <g id="C6" transform="translate(0.546223, 0.816682)">
            <rect id="rect5022" stroke="#000000" stroke-width="0.996734187" fill="#FFFFFF" x="0.661552043" y="0.11607127" width="223.228352" height="311.81103" rx="10.582486"></rect>
            <path d="M164.038187,33.2271817 C154.219875,33.4400626 149.81733,44.4803765 157.088777,53.0537998 C158.143383,54.3044 158.252168,55.0219953 156.32075,53.8208533 C151.425104,50.5511949 142.037815,52.7005699 141.55707,62.6964431 C140.96332,75.0128388 158.19421,78.5614896 161.429446,65.4649987 C161.600309,64.0832791 162.724827,64.1147798 162.453617,66.0761536 C162.1586,71.3995813 160.493972,76.3750961 158.205962,81.227116 L169.878247,81.227116 C167.590439,76.3750961 165.92571,71.3995813 165.630694,66.0761536 C165.359584,64.1147798 166.484001,64.0832791 166.654763,65.4649987 C169.8901,78.5614896 187.12099,75.0128388 186.52724,62.6964431 C186.046595,52.7005699 176.659206,50.5511949 171.76346,53.8208533 C169.832142,55.0219953 169.940927,54.3044 170.995533,53.0537998 C178.266981,44.4803765 173.864435,33.4400626 164.046223,33.2271817 C164.046223,33.2270813 164.046223,33.2271817 164.036178,33.2271817 L164.038187,33.2271817 Z" id="path147-0-8-1-6-13-2-5-7-1" fill="#000000"></path>
            <path d="M60.5053931,33.2271817 C50.6870809,33.4400626 46.2845354,44.4803765 53.5559828,53.0537998 C54.6105888,54.3044 54.7193742,55.0219953 52.7879556,53.8208533 C47.8923098,50.5511949 38.5050209,52.7005699 38.0243761,62.6964431 C37.4305262,75.0128388 54.6614156,78.5614896 57.8966522,65.4649987 C58.0675146,64.0832791 59.1919321,64.1147798 58.9208223,66.0761536 C58.6258059,71.3995813 56.9611778,76.3750961 54.673168,81.227116 L66.3454532,81.227116 C64.0575439,76.3750961 62.3929158,71.3995813 62.0978994,66.0761536 C61.8267896,64.1147798 62.9512071,64.0832791 63.1219691,65.4649987 C66.3573061,78.5614896 83.5881955,75.0128388 82.9943456,62.6964431 C82.5138012,52.7005699 73.1264119,50.5511949 68.2306656,53.8208533 C66.299247,55.0219953 66.4081329,54.3044 67.4627389,53.0537998 C74.7341863,44.4803765 70.3316408,33.4400626 60.513429,33.2271817 C60.513429,33.2270813 60.513429,33.2271817 60.5033842,33.2271817 L60.5053931,33.2271817 Z" id="path147-0-8-1-6-75-2-83-8-8-7" fill="#000000"></path>
            <path d="M164.038187,279.648393 C154.219875,279.435412 149.81733,268.395098 157.088777,259.821675 C158.143383,258.571075 158.252168,257.853479 156.32075,259.054722 C151.425104,262.32428 142.037916,260.174905 141.55707,250.179032 C140.963421,237.862636 158.19421,234.313985 161.429446,247.410476 C161.600309,248.792296 162.724827,248.760695 162.453617,246.799421 C162.1586,241.475893 160.493972,236.500379 158.205962,231.648359 L169.878247,231.648359 C167.590439,236.500379 165.92571,241.475893 165.630694,246.799421 C165.359584,248.760695 166.484001,248.792296 166.654763,247.410476 C169.8901,234.313985 187.12099,237.862636 186.52724,250.179032 C186.046595,260.174905 176.659206,262.32428 171.76346,259.054722 C169.832142,257.853479 169.940927,258.571075 170.995533,259.821675 C178.266981,268.395098 173.864435,279.435412 164.046223,279.648393 C164.046223,279.648393 164.046223,279.648293 164.036178,279.648393 L164.038187,279.648393 Z" id="path147-0-8-1-6-7-5-5-7-8-7-8" fill="#000000"></path>
            <path d="M60.5053931,279.648393 C50.6870809,279.435412 46.2845354,268.395098 53.5559828,259.821675 C54.6105888,258.571075 54.7193742,257.853479 52.7879556,259.054722 C47.8923098,262.32428 38.5050209,260.174905 38.0243761,250.179032 C37.4305262,237.862636 54.6614156,234.313985 57.8966522,247.410476 C58.0675146,248.792296 59.1919321,248.760695 58.9208223,246.799421 C58.6258059,241.475893 56.9611778,236.500379 54.673168,231.648359 L66.3454532,231.648359 C64.0575439,236.500379 62.3929158,241.475893 62.0978994,246.799421 C61.8267896,248.760695 62.9512071,248.792296 63.1219691,247.410476 C66.3573061,234.313985 83.5881955,237.862636 82.9943456,250.179032 C82.5138012,260.174905 73.1264119,262.32428 68.2306656,259.054722 C66.299247,257.853479 66.4081329,258.571075 67.4627389,259.821675 C74.7341863,268.395098 70.3316408,279.435412 60.513429,279.648393 C60.513429,279.648393 60.513429,279.648293 60.5033842,279.648393 L60.5053931,279.648393 Z" id="path147-0-8-1-6-75-6-1-2-0-6-8" fill="#000000"></path>
            <path d="M164.038187,132.43772 C154.219875,132.650701 149.81733,143.691015 157.088777,152.264438 C158.143383,153.514938 158.252168,154.232634 156.32075,153.031392 C151.425104,149.761733 142.037815,151.911209 141.55707,161.907082 C140.963421,174.223377 158.19421,177.772128 161.429446,164.675637 C161.600309,163.293817 162.724726,163.325318 162.453617,165.286692 C162.1586,170.61012 160.493972,175.585735 158.205962,180.437755 L169.878247,180.437755 C167.590439,175.585735 165.92571,170.61012 165.630694,165.286692 C165.359584,163.325318 166.484001,163.293817 166.654763,164.675637 C169.8901,177.772128 187.12099,174.223377 186.52724,161.907082 C186.046595,151.911209 176.659206,149.761733 171.76346,153.031392 C169.832142,154.232634 169.940927,153.514938 170.995533,152.264438 C178.266981,143.691015 173.864435,132.650701 164.046223,132.43772 C164.046223,132.43772 164.046223,132.43782 164.036178,132.43772 L164.038187,132.43772 Z" id="path147-0-8-1-6-7-5-7-3-0-9-6-4" fill="#000000"></path>
            <path d="M60.5053931,132.43772 C50.6870809,132.650701 46.2845354,143.691015 53.5559828,152.264438 C54.6105888,153.514938 54.7193742,154.232634 52.7879556,153.031392 C47.8923098,149.761733 38.5050209,151.911209 38.0243761,161.907082 C37.4305262,174.223377 54.6614156,177.772128 57.8966522,164.675637 C58.0675146,163.293817 59.1919321,163.325318 58.9208223,165.286692 C58.6258059,170.61012 56.9611778,175.585735 54.673168,180.437755 L66.3454532,180.437755 C64.0575439,175.585735 62.3929158,170.61012 62.0978994,165.286692 C61.8267896,163.325318 62.9512071,163.293817 63.1219691,164.675637 C66.3573061,177.772128 83.5881955,174.223377 82.9943456,161.907082 C82.5138012,151.911209 73.1264119,149.761733 68.2306656,153.031392 C66.299247,154.232634 66.4081329,153.514938 67.4627389,152.264438 C74.7341863,143.691015 70.3316408,132.650701 60.513429,132.43772 C60.513429,132.43772 60.513429,132.43782 60.5033842,132.43772 L60.5053931,132.43772 Z" id="path147-0-8-1-6-75-6-6-5-3-0-0-2" fill="#000000"></path>
            <path d="M206.675146,261.954296 C210.602371,261.866014 212.363529,257.265398 209.45485,253.693172 C209.032968,253.172105 208.989473,252.873049 209.762121,253.37355 C211.720359,254.735907 215.475315,253.840343 215.667573,249.675421 C215.905133,244.543606 209.012677,243.064976 207.718602,248.521831 C207.650298,249.097572 207.20049,249.08443 207.308975,248.267216 C207.427001,246.049122 208.092772,243.97599 209.007956,241.954324 L204.339323,241.954324 C205.254507,243.97599 205.920278,246.049122 206.038304,248.267216 C206.146789,249.08443 205.696981,249.097572 205.628677,248.521831 C204.334602,243.064976 197.442246,244.543606 197.679706,249.675421 C197.871964,253.840343 201.62692,254.735907 203.585158,253.37355 C204.357806,252.873049 204.314311,253.172105 203.892429,253.693172 C200.98375,257.265398 202.744908,261.865512 206.672133,261.954296 L206.672133,261.954296 L206.675146,261.954296 Z" id="path147-6-9-8-7-0-5-6-4-2-8" fill="#000000"></path>
            <path d="M17.8776755,50.0897188 C13.9503506,50.1780012 12.1891918,54.7785165 15.0978712,58.3508431 C15.5197538,58.8719098 15.5632479,59.1708661 14.7906001,58.6703651 C12.8323618,57.3080074 9.0774061,58.2036724 8.88514818,62.3685944 C8.64768857,67.5004092 15.5400443,68.9790388 16.8341189,63.5221843 C16.9024237,62.9464428 17.3522308,62.9595848 17.2437467,63.7767988 C17.1257201,65.9948936 16.4599492,68.0680248 15.5447654,70.0896914 L20.2133982,70.0896914 C19.2982144,68.0680248 18.6324435,65.9948936 18.5144169,63.7767988 C18.4059328,62.9595848 18.8557399,62.9464428 18.9240447,63.5221843 C20.2181193,68.9790388 27.1105755,67.5004092 26.8730154,62.3685944 C26.6807575,58.2036724 22.9258018,57.3080074 20.9675635,58.6703651 C20.1949157,59.1708661 20.2384098,58.8719098 20.6602924,58.3508431 C23.5689718,54.7785165 21.807813,50.1784024 17.880689,50.0897188 C17.8796845,50.0897188 17.880689,50.0897188 17.880689,50.0897188 L17.8776755,50.0897188 Z" id="path147-6-9-8-7-4-5-62-0-2-9" fill="#000000"></path>
            <path d="M8.18673164,36.801615 C7.78041855,34.0242311 7.79066427,26.8441647 8.12244477,24.7201708 C9.14711717,18.2132576 11.6323068,15.2355329 15.7952833,14.2638248 C19.8388268,13.3170965 25.5189733,14.3712685 26.7648327,19.8095636 L23.3847497,19.8747722 C21.5564915,16.1977106 16.9305492,17.1798521 14.3245203,18.7800706 C12.2456437,20.0541459 11.3056492,25.3746643 11.7081452,25.7020114 C11.7081452,25.7020114 15.6397894,22.7896959 18.7396218,23.004483 C25.363379,23.6945904 28.0954704,29.4393658 27.8640377,34.8633151 C27.6531968,41.3884867 25.5844655,46.6068784 18.5634356,46.9538884 C11.8881485,46.6958631 8.82949987,43.0568231 8.18673164,36.801314 L8.18673164,36.801314 L8.18673164,36.801615 Z M24.6497947,35.0783027 C24.6859561,30.5514229 22.6312876,27.1584701 18.7396218,26.7865805 C14.8516726,26.4120826 10.9289683,30.2070213 11.200279,34.8216819 C11.4715897,39.4560054 13.2650928,43.3543749 17.9810368,43.3334078 C23.0529692,43.3133436 24.6253858,38.301011 24.6497947,35.0783027 L24.6497947,35.0783027 L24.6497947,35.0783027 Z" id="path23-8-1-4" fill="#000000"></path>
            <path d="M216.363077,275.242099 C216.76939,278.019583 216.759044,285.19955 216.427364,287.323543 C215.402691,293.830457 212.917501,296.808181 208.754525,297.779889 C204.710982,298.726618 199.030835,297.672446 197.784976,292.234151 L201.165059,292.168942 C202.993317,295.846004 207.619159,294.863862 210.225288,293.263644 C212.304165,291.989568 213.244059,286.66905 212.841663,286.341703 C212.841663,286.341703 208.910019,289.253918 205.810187,289.039231 C199.186429,288.349124 196.454338,282.604348 196.685771,277.180499 C196.896611,270.655127 198.965242,265.436836 205.986373,265.089826 C212.66166,265.347851 215.720308,268.986991 216.363077,275.2424 L216.363077,275.2424 L216.363077,275.242099 Z M199.900014,276.965412 C199.863852,281.492392 201.918521,284.885244 205.810187,285.257134 C209.698136,285.631632 213.62074,281.836793 213.349529,277.222032 C213.078219,272.587809 211.284715,268.689339 206.568772,268.710407 C201.496739,268.730471 199.924422,273.742804 199.900014,276.965412 L199.900014,276.965412 L199.900014,276.965412 Z" id="path23-6-8-9-6" fill="#000000"></path>
        </g>
    </g>
</svg>