<?xml version="1.0" encoding="UTF-8" standalone="no"?>
<svg width="226px" height="314px" viewBox="0 0 226 314" version="1.1" xmlns="http://www.w3.org/2000/svg" xmlns:xlink="http://www.w3.org/1999/xlink">
    <!-- Generator: Sketch 39.1 (31720) - http://www.bohemiancoding.com/sketch -->
    <title>C7</title>
    <desc>Created with Sketch.</desc>
    <defs></defs>
    <g id="Page-3" stroke="none" stroke-width="1" fill="none" fill-rule="evenodd">
        <g id="C7" transform="translate(0.545250, 0.816682)">
            <rect id="rect5046" stroke="#000000" stroke-width="0.996734187" fill="#FFFFFF" x="0.887962353" y="0.11607127" width="223.228352" height="311.81103" rx="10.582486"></rect>
            <path d="M164.264196,33.2271817 C154.445884,33.4400626 150.043338,44.4803765 157.314786,53.0539001 C158.369392,54.3044 158.478177,55.0219953 156.546859,53.8208533 C151.651113,50.5511949 142.263824,52.7006703 141.783078,62.6965434 C141.189329,75.0128388 158.420218,78.5614896 161.655555,65.4649987 C161.826317,64.0832791 162.950835,64.1147798 162.679625,66.0761536 C162.384609,71.3995813 160.719981,76.3751964 158.431971,81.227116 L170.104356,81.227116 C167.816447,76.3751964 166.151719,71.3995813 165.856702,66.0761536 C165.585592,64.1147798 166.71001,64.0832791 166.880772,65.4649987 C170.116109,78.5614896 187.346998,75.0128388 186.753249,62.6965434 C186.272604,52.7006703 176.885215,50.5511949 171.989468,53.8208533 C170.05815,55.0219953 170.166936,54.3044 171.221542,53.0539001 C178.492989,44.4803765 174.090444,33.4400626 164.272232,33.2271817 C164.272232,33.2270813 164.272232,33.2271817 164.262187,33.2271817 L164.264196,33.2271817 Z" id="path147-0-8-1-6-13-2-0-1-5" fill="#000000"></path>
            <path d="M60.7314017,33.2271817 C50.9130894,33.4400626 46.5105439,44.4803765 53.7819913,53.0539001 C54.8365973,54.3044 54.9453827,55.0219953 53.0139641,53.8208533 C48.1183183,50.5511949 38.7311299,52.7006703 38.2502842,62.6965434 C37.6566352,75.0128388 54.8874241,78.5614896 58.1227611,65.4649987 C58.2935231,64.0832791 59.4179406,64.1147798 59.1468308,66.0761536 C58.8518144,71.3995813 57.1871863,76.3751964 54.8991765,81.227116 L66.5715622,81.227116 C64.2836529,76.3751964 62.6189243,71.3995813 62.3239079,66.0761536 C62.0527981,64.1147798 63.1772156,64.0832791 63.3479776,65.4649987 C66.5833146,78.5614896 83.814204,75.0128388 83.2204545,62.6965434 C82.7398097,52.7006703 73.3524204,50.5511949 68.4566741,53.8208533 C66.525356,55.0219953 66.6341414,54.3044 67.6887474,53.0539001 C74.9601948,44.4803765 70.5576493,33.4400626 60.7394375,33.2271817 C60.7394375,33.2270813 60.7394375,33.2271817 60.7293927,33.2271817 L60.7314017,33.2271817 Z" id="path147-0-8-1-6-75-2-83-2-0-7" fill="#000000"></path>
            <path d="M164.264196,279.648393 C154.445884,279.435412 150.043338,268.395098 157.314786,259.821675 C158.369392,258.571175 158.478177,257.853479 156.546859,259.054722 C151.651113,262.32438 142.263924,260.174905 141.783078,250.179032 C141.189429,237.862636 158.420218,234.313985 161.655555,247.410476 C161.826317,248.792296 162.950835,248.760795 162.679625,246.799421 C162.384609,241.475893 160.719981,236.500379 158.431971,231.648359 L170.104356,231.648359 C167.816447,236.500379 166.151719,241.475893 165.856702,246.799421 C165.585592,248.760795 166.71001,248.792296 166.880772,247.410476 C170.116109,234.313985 187.346998,237.862636 186.753249,250.179032 C186.272604,260.174905 176.885215,262.32438 171.989468,259.054722 C170.05815,257.853479 170.166936,258.571175 171.221542,259.821675 C178.492989,268.395098 174.090444,279.435412 164.272232,279.648393 C164.272232,279.648393 164.272232,279.648293 164.262187,279.648393 L164.264196,279.648393 Z" id="path147-0-8-1-6-7-5-5-7-7-7-6" fill="#000000"></path>
            <path d="M60.7314017,279.648393 C50.9130894,279.435412 46.5105439,268.395098 53.7819913,259.821675 C54.8365973,258.571175 54.9453827,257.853479 53.0139641,259.054722 C48.1183183,262.32438 38.7311299,260.174905 38.2502842,250.179032 C37.6566352,237.862636 54.8874241,234.313985 58.1227611,247.410476 C58.2935231,248.792296 59.4179406,248.760795 59.1468308,246.799421 C58.8518144,241.475893 57.1871863,236.500379 54.8991765,231.648359 L66.5715622,231.648359 C64.2836529,236.500379 62.6189243,241.475893 62.3239079,246.799421 C62.0527981,248.760795 63.1772156,248.792296 63.3479776,247.410476 C66.5833146,234.313985 83.814204,237.862636 83.2204545,250.179032 C82.7398097,260.174905 73.3524204,262.32438 68.4566741,259.054722 C66.525356,257.853479 66.6341414,258.571175 67.6887474,259.821675 C74.9601948,268.395098 70.5576493,279.435412 60.7394375,279.648393 C60.7394375,279.648393 60.7394375,279.648293 60.7293927,279.648393 L60.7314017,279.648393 Z" id="path147-0-8-1-6-75-6-1-2-9-1-9" fill="#000000"></path>
            <path d="M112.498,82.8326515 C102.679687,83.0455324 98.2772424,94.0858464 105.548589,102.65927 C106.603195,103.90977 106.712081,104.627465 104.780562,103.426223 C99.8850168,100.156564 90.4977279,102.30604 90.0169827,112.301913 C89.4232332,124.618309 106.654022,128.166959 109.889259,115.070469 C110.060121,113.688649 111.184539,113.720149 110.913429,115.681523 C110.618412,121.005051 108.953784,125.980566 106.665775,130.832586 L118.33806,130.832586 C116.050251,125.980566 114.385522,121.005051 114.090506,115.681523 C113.819396,113.720149 114.943814,113.688649 115.114576,115.070469 C118.349913,128.166959 135.580802,124.618309 134.987053,112.301913 C134.506408,102.30604 125.119018,100.156564 120.223272,103.426223 C118.291954,104.627465 118.400739,103.90977 119.455345,102.65927 C126.726793,94.0858464 122.324247,83.0455324 112.506036,82.8326515 C112.506036,82.8325512 112.506036,82.8326515 112.495991,82.8326515 L112.498,82.8326515 Z" id="path147-0-8-1-6-2-00-7-2-3-4" fill="#000000"></path>
            <path d="M164.264196,132.43772 C154.445884,132.650701 150.043338,143.691015 157.314786,152.264438 C158.369392,153.514938 158.478177,154.232634 156.546859,153.031392 C151.651113,149.761733 142.263824,151.911209 141.783078,161.907082 C141.189429,174.223477 158.420218,177.772128 161.655555,164.675637 C161.826317,163.293817 162.950735,163.325419 162.679625,165.286692 C162.384609,170.61022 160.719981,175.585735 158.431971,180.437755 L170.104356,180.437755 C167.816447,175.585735 166.151719,170.61022 165.856702,165.286692 C165.585592,163.325419 166.71001,163.293817 166.880772,164.675637 C170.116109,177.772128 187.346998,174.223477 186.753249,161.907082 C186.272604,151.911209 176.885215,149.761733 171.989468,153.031392 C170.05815,154.232634 170.166936,153.514938 171.221542,152.264438 C178.492989,143.691015 174.090444,132.650701 164.272232,132.43772 C164.272232,132.43772 164.272232,132.43782 164.262187,132.43772 L164.264196,132.43772 Z" id="path147-0-8-1-6-7-5-7-3-0-1-7-4" fill="#000000"></path>
            <path d="M60.7314017,132.43772 C50.9130894,132.650701 46.5105439,143.691015 53.7819913,152.264438 C54.8365973,153.514938 54.9453827,154.232634 53.0139641,153.031392 C48.1183183,149.761733 38.7311299,151.911209 38.2503846,161.907082 C37.6566352,174.223477 54.8874241,177.772128 58.1227611,164.675637 C58.2935231,163.293817 59.4179406,163.325419 59.1468308,165.286692 C58.8518144,170.61022 57.1871863,175.585735 54.8991765,180.437755 L66.5715622,180.437755 C64.2836529,175.585735 62.6189243,170.61022 62.3239079,165.286692 C62.0527981,163.325419 63.1772156,163.293817 63.3479776,164.675637 C66.5833146,177.772128 83.814204,174.223477 83.2204545,161.907082 C82.7398097,151.911209 73.3524204,149.761733 68.4566741,153.031392 C66.525356,154.232634 66.6341414,153.514938 67.6887474,152.264438 C74.9601948,143.691015 70.5576493,132.650701 60.7394375,132.43772 C60.7394375,132.43772 60.7394375,132.43782 60.7293927,132.43772 L60.7314017,132.43772 Z" id="path147-0-8-1-6-75-6-6-5-3-9-6-0" fill="#000000"></path>
            <path d="M206.901155,261.954296 C210.828379,261.866014 212.589538,257.265398 209.680959,253.693172 C209.258976,253.172105 209.215482,252.873049 209.98813,253.37355 C211.946468,254.736008 215.701324,253.840343 215.893582,249.675421 C216.131142,244.543606 209.238686,243.064976 207.944611,248.521831 C207.876306,249.097572 207.426499,249.08443 207.534983,248.267216 C207.65301,246.049122 208.318781,243.97599 209.234065,241.954324 L204.565332,241.954324 C205.480515,243.97599 206.146286,246.049122 206.264313,248.267216 C206.372797,249.08443 205.92299,249.097572 205.854685,248.521831 C204.560611,243.064976 197.668255,244.543606 197.905714,249.675421 C198.097972,253.840343 201.852928,254.736008 203.811267,253.37355 C204.583814,252.873049 204.54032,253.172105 204.118437,253.693172 C201.209858,257.265398 202.970917,261.865512 206.898141,261.954296 L206.898141,261.954296 L206.901155,261.954296 Z" id="path147-6-9-8-7-0-5-6-8-4-3" fill="#000000"></path>
            <path d="M18.103684,50.0897188 C14.1764596,50.1780012 12.4153008,54.7786169 15.3238797,58.3508431 C15.7457623,58.8719098 15.7892564,59.1709664 15.016709,58.6704655 C13.0582699,57.3081078 9.30351506,58.2036724 9.11125715,62.3685944 C8.87369709,67.5004092 15.7661533,68.9790388 17.0601274,63.5221843 C17.1284322,62.9464428 17.5783398,62.9595848 17.4698557,63.7767988 C17.3517286,65.9948936 16.6860582,68.0680248 15.7707739,70.0896914 L20.4395072,70.0896914 C19.5243234,68.0680248 18.8585525,65.9948936 18.7404254,63.7767988 C18.6320417,62.9595848 19.0817485,62.9464428 19.1501537,63.5221843 C20.4441278,68.9790388 27.336584,67.5004092 27.0990239,62.3685944 C26.906766,58.2036724 23.1519107,57.3081078 21.193572,58.6704655 C20.4210247,59.1709664 20.4645188,58.8719098 20.8863009,58.3508431 C23.7949803,54.7786169 22.0338215,50.1785028 18.1066975,50.0897188 L18.1066975,50.0897188 L18.103684,50.0897188 Z" id="path147-6-9-8-7-4-5-62-5-2-9" fill="#000000"></path>
            <path d="M13.0310484,46.9505778 C15.2013329,35.4772789 17.5116422,26.8639279 23.5775099,17.5158268 L11.247791,17.5158268 L11.247791,21.5396977 L7.97438408,21.5396977 L7.97438408,13.9542345 L26.0086584,13.9542345 L28.232984,17.5158268 C21.7904354,24.5488227 15.8942248,47.2831416 16.9381832,46.9505778 L13.0310484,46.9505778 L13.0310484,46.9505778 Z" id="path25-6-8-8" fill="#000000"></path>
            <path d="M211.970877,265.093437 C209.800593,276.566636 207.490284,285.180188 201.424416,294.528088 L213.754135,294.528088 L213.754135,290.504217 L217.027542,290.504217 L217.027542,298.089781 L198.993167,298.089781 L196.768942,294.528088 C203.21149,287.495192 209.107701,264.760874 208.063743,265.093437 L211.970877,265.093437 L211.970877,265.093437 Z" id="path25-7-7-3-9" fill="#000000"></path>
        </g>
    </g>
</svg>