<?xml version="1.0" encoding="UTF-8" standalone="no"?>
<svg width="225px" height="314px" viewBox="0 0 225 314" version="1.1" xmlns="http://www.w3.org/2000/svg" xmlns:xlink="http://www.w3.org/1999/xlink">
    <!-- Generator: Sketch 39.1 (31720) - http://www.bohemiancoding.com/sketch -->
    <title>D3</title>
    <desc>Created with Sketch.</desc>
    <defs></defs>
    <g id="Page-3" stroke="none" stroke-width="1" fill="none" fill-rule="evenodd">
        <g id="D3" transform="translate(0.047200, 1.315700)">
            <rect id="rect6005" stroke="#000000" stroke-width="0.99673343" fill="#FFFFFF" x="0.48566" y="0.0405" width="223.22835" height="311.81104" rx="10.629921"></rect>
            <path d="M112.0998,80.73552 C106.9136,72.17072 101.4573,63.84642 94.6388,56.73552 C101.4573,49.62472 106.9136,41.30042 112.0998,32.73552 C117.286,41.30042 122.7422,49.62472 129.5607,56.73552 C122.7422,63.84642 117.286,72.17072 112.0998,80.73552 L112.0998,80.73552 Z" id="path6584-3" fill="#D40000"></path>
            <path d="M17.7029,70.01392 C15.542,66.44532 13.2685,62.97682 10.4275,60.01392 C13.2685,57.05112 15.542,53.58262 17.7029,50.01392 C19.8638,53.58262 22.1372,57.05112 24.9783,60.01392 C22.1372,62.97682 19.8638,66.44532 17.7029,70.01392 L17.7029,70.01392 Z" id="path6586-2" fill="#D40000"></path>
            <path d="M206.4974,261.87856 C204.3365,258.30996 202.063,254.84146 199.222,251.87856 C202.063,248.91576 204.3365,245.44726 206.4974,241.87856 C208.6583,245.44726 210.9317,248.91576 213.7728,251.87856 C210.9317,254.84146 208.6583,258.30996 206.4974,261.87856 L206.4974,261.87856 Z" id="path6590-7" fill="#D40000"></path>
            <path d="M112.0998,179.94617 C106.9136,171.38137 101.4573,163.05707 94.6388,155.94617 C101.4573,148.83537 106.9136,140.51107 112.0998,131.94617 C117.286,140.51107 122.7422,148.83537 129.5607,155.94617 C122.7422,163.05707 117.286,171.38137 112.0998,179.94617 L112.0998,179.94617 Z" id="path6600-5" fill="#D40000"></path>
            <path d="M112.0998,279.15683 C106.9136,270.59203 101.4573,262.26773 94.6388,255.15683 C101.4573,248.04603 106.9136,239.72173 112.0998,231.15683 C117.286,239.72173 122.7422,248.04603 129.5607,255.15683 C122.7422,262.26773 117.286,270.59203 112.0998,279.15683 L112.0998,279.15683 Z" id="path6606-3" fill="#D40000"></path>
            <path d="M6.99133,39.64476 L9.5319,37.77626 C11.7368,41.36656 14.2027,43.73136 17.9749,43.32546 C23.6345,42.93656 25.9796,37.00366 24.7955,32.53336 C23.65,28.52276 18.9636,26.56916 15.2377,28.70736 C14.3583,29.21406 13.5098,29.62786 13.3439,29.62786 C12.9531,29.62786 12.0685,27.86806 12.1894,27.33116 C14.69,23.67926 20.7623,17.28156 20.7623,17.28156 L11.2752,17.28156 L11.2752,21.56596 L7.63423,21.56596 L7.63423,13.87846 L26.1763,13.87846 L26.1763,16.48676 C26.1763,16.48676 21.2084,21.63926 19.5666,24.46096 C23.6101,24.60896 26.8693,27.17146 28.0393,31.22266 C28.722,33.35576 28.416,38.23456 27.5224,40.33736 C26.0298,43.84266 21.9528,46.68666 18.2257,46.85036 C11.9682,47.27066 8.64863,42.88676 6.99133,39.64476 L6.99133,39.64476 L6.99133,39.64476 Z" id="path17-2-9-4-8" fill="#D40000"></path>
            <path d="M217.2059,272.24776 L214.6653,274.11626 C212.4604,270.52586 209.9945,268.16106 206.2223,268.56706 C200.5627,268.95596 198.2176,274.88876 199.4017,279.35906 C200.5472,283.36976 205.2336,285.32336 208.9595,283.18516 C209.8389,282.67836 210.6874,282.26466 210.8533,282.26466 C211.2441,282.26466 212.1287,284.02446 212.0078,284.56126 C209.5072,288.21326 203.4349,294.61096 203.4349,294.61096 L212.922,294.61096 L212.922,290.32656 L216.563,290.32656 L216.563,298.01406 L198.0209,298.01406 L198.0209,295.40576 C198.0209,295.40576 202.9888,290.25326 204.6306,287.43146 C200.5871,287.28356 197.3279,284.72106 196.1579,280.66976 C195.4752,278.53676 195.7812,273.65796 196.6748,271.55506 C198.1674,268.04986 202.2444,265.20576 205.9715,265.04216 C212.229,264.62186 215.5486,269.00566 217.2059,272.24776 L217.2059,272.24776 L217.2059,272.24776 Z" id="path17-5-3-3-8" fill="#D40000"></path>
        </g>
    </g>
</svg>