<?xml version="1.0" encoding="UTF-8" standalone="no"?>
<svg width="225px" height="314px" viewBox="0 0 225 314" version="1.1" xmlns="http://www.w3.org/2000/svg" xmlns:xlink="http://www.w3.org/1999/xlink">
    <!-- Generator: Sketch 39.1 (31720) - http://www.bohemiancoding.com/sketch -->
    <title>D4</title>
    <desc>Created with Sketch.</desc>
    <defs></defs>
    <g id="Page-3" stroke="none" stroke-width="1" fill="none" fill-rule="evenodd">
        <g id="D4" transform="translate(0.047200, 1.315700)">
            <rect id="rect6023" stroke="#000000" stroke-width="0.99673343" fill="#FFFFFF" x="0.7103" y="0.0405" width="223.22835" height="311.81104" rx="10.629921"></rect>
            <path d="M17.9278,70.01392 C15.7669,66.44532 13.4935,62.97682 10.6524,60.01392 C13.4935,57.05112 15.7669,53.58262 17.9278,50.01392 C20.0887,53.58262 22.3622,57.05112 25.2032,60.01392 C22.3622,62.97682 20.0887,66.44532 17.9278,70.01392 L17.9278,70.01392 Z" id="path6654-0" fill="#D40000"></path>
            <path d="M164.0911,80.73552 C158.9049,72.17072 153.4487,63.84642 146.6302,56.73552 C153.4487,49.62472 158.9049,41.30042 164.0911,32.73552 C169.2773,41.30042 174.7336,49.62472 181.5521,56.73552 C174.7336,63.84642 169.2773,72.17072 164.0911,80.73552 L164.0911,80.73552 Z" id="path6656-6" fill="#D40000"></path>
            <path d="M206.7223,261.87856 C204.5614,258.30996 202.288,254.84146 199.4469,251.87856 C202.288,248.91576 204.5614,245.44726 206.7223,241.87856 C208.8832,245.44726 211.1567,248.91576 213.9977,251.87856 C211.1567,254.84146 208.8832,258.30996 206.7223,261.87856 L206.7223,261.87856 Z" id="path6658-8" fill="#D40000"></path>
            <path d="M60.5583,80.73552 C55.3721,72.17072 49.9159,63.84642 43.0974,56.73552 C49.9159,49.62472 55.3721,41.30042 60.5583,32.73552 C65.7445,41.30042 71.2008,49.62472 78.0193,56.73552 C71.2008,63.84642 65.7445,72.17072 60.5583,80.73552 L60.5583,80.73552 Z" id="path6660-7" fill="#D40000"></path>
            <path d="M60.5583,279.1619 C55.3721,270.5971 49.9159,262.2728 43.0974,255.1619 C49.9159,248.0511 55.3721,239.7268 60.5583,231.1619 C65.7445,239.7268 71.2008,248.0511 78.0193,255.1619 C71.2008,262.2728 65.7445,270.5971 60.5583,279.1619 L60.5583,279.1619 Z" id="path6676-4" fill="#D40000"></path>
            <path d="M164.0911,279.16884 C158.9049,270.60404 153.4487,262.27974 146.6302,255.16884 C153.4487,248.05804 158.9049,239.73374 164.0911,231.16884 C169.2773,239.73374 174.7336,248.05804 181.5521,255.16884 C174.7336,262.27974 169.2773,270.60404 164.0911,279.16884 L164.0911,279.16884 Z" id="path6678-8" fill="#D40000"></path>
            <path d="M18.1578,46.87426 L18.1578,43.95966 L20.7883,43.95966 L20.7883,39.15166 L7.6306,39.15166 L7.6306,35.75906 L21.8683,13.87826 L24.1941,13.89026 L24.1941,35.75926 L28.2221,35.75926 L28.2221,39.15186 L24.1941,39.15186 L24.1181,43.95986 L26.323,43.95986 L26.323,46.87846 L18.1577,46.87846 L18.1578,46.87426 Z M20.7883,21.88896 L11.7487,35.76036 L20.7883,35.76036 L20.7883,21.88896 L20.7883,21.88896 Z" id="path19-3-1-9-0" fill="#D40000"></path>
            <path d="M206.4894,265.01806 L206.4894,267.93276 L203.8589,267.93276 L203.8589,272.74076 L217.0166,272.74076 L217.0166,276.13326 L202.7789,298.01416 L200.4531,298.00216 L200.4531,276.13306 L196.4251,276.13306 L196.4251,272.74056 L200.4531,272.74056 L200.5291,267.93256 L198.3242,267.93256 L198.3242,265.01396 L206.4895,265.01396 L206.4894,265.01806 Z M203.8589,290.00346 L212.8985,276.13196 L203.8589,276.13196 L203.8589,290.00346 L203.8589,290.00346 Z" id="path19-4-46-7-7" fill="#D40000"></path>
        </g>
    </g>
</svg>