<?xml version="1.0" encoding="UTF-8" standalone="no"?>
<svg width="225px" height="314px" viewBox="0 0 225 314" version="1.1" xmlns="http://www.w3.org/2000/svg" xmlns:xlink="http://www.w3.org/1999/xlink">
    <!-- Generator: Sketch 39.1 (31720) - http://www.bohemiancoding.com/sketch -->
    <title>DA</title>
    <desc>Created with Sketch.</desc>
    <defs></defs>
    <g id="Page-3" stroke="none" stroke-width="1" fill="none" fill-rule="evenodd">
        <g id="DA" transform="translate(1.047200, 1.315700)">
            <rect id="rect5975" stroke="#000000" stroke-width="0.99673343" fill="#FFFFFF" x="0.035" y="0.0405" width="223.22835" height="311.81104" rx="10.629921"></rect>
            <path d="M17.25269,70.01386 C15.09169,66.44526 12.81829,62.97676 9.97729,60.01386 C12.81829,57.05106 15.09169,53.58256 17.25269,50.01386 C19.41359,53.58256 21.68699,57.05106 24.52799,60.01386 C21.68699,62.97676 19.41359,66.44526 17.25269,70.01386 L17.25269,70.01386 Z" id="path6399-9" fill="#D40000"></path>
            <path d="M206.04724,261.87846 C203.88624,258.30986 201.61284,254.84136 198.77184,251.87846 C201.61284,248.91566 203.88624,245.44716 206.04724,241.87846 C208.20814,245.44716 210.48154,248.91566 213.32254,251.87846 C210.48154,254.84136 208.20814,258.30986 206.04724,261.87846 L206.04724,261.87846 Z" id="path6403-1" fill="#D40000"></path>
            <path d="M111.64949,179.94616 C106.46329,171.38136 101.00709,163.05706 94.18859,155.94616 C101.00709,148.83536 106.46329,140.51106 111.64949,131.94616 C116.83579,140.51106 122.29199,148.83536 129.11049,155.94616 C122.29199,163.05706 116.83579,171.38136 111.64949,179.94616 L111.64949,179.94616 Z" id="path6413-1" fill="#D40000"></path>
            <path d="M7.1591,46.87836 L7.1591,44.05666 L9.8514,44.05666 L15.5868,13.87836 L18.8512,13.87836 L25.1691,44.05666 L27.3432,44.05666 L27.3432,46.87836 L19.935,46.87836 L19.935,44.05666 L21.9343,44.05666 L21.1359,39.43196 L13.6622,39.43196 L13.0849,44.05666 L15.0841,44.05666 L15.0841,46.87836 L7.1591,46.87836 L7.1591,46.87836 Z M20.4982,36.13766 L17.2492,19.98526 L14.206,36.13766 L20.4982,36.13766 L20.4982,36.13766 Z" id="path41-87-9-4-8" fill="#D40000"></path>
            <path d="M195.95363,265.01396 L195.95363,267.83566 L198.64593,267.83566 L204.38133,298.01396 L207.64573,298.01396 L213.96363,267.83566 L216.13773,267.83566 L216.13773,265.01396 L208.72953,265.01396 L208.72953,267.83566 L210.72883,267.83566 L209.93043,272.46026 L202.45673,272.46026 L201.87943,267.83566 L203.87863,267.83566 L203.87863,265.01396 L195.95363,265.01396 L195.95363,265.01396 Z M209.29273,275.75466 L206.04373,291.90706 L203.00053,275.75466 L209.29273,275.75466 L209.29273,275.75466 Z" id="path41-8-5-6-1" fill="#D40000"></path>
        </g>
    </g>
</svg>