<?xml version="1.0" encoding="UTF-8" standalone="no"?>
<svg width="226px" height="314px" viewBox="0 0 226 314" version="1.1" xmlns="http://www.w3.org/2000/svg" xmlns:xlink="http://www.w3.org/1999/xlink">
    <!-- Generator: Sketch 39.1 (31720) - http://www.bohemiancoding.com/sketch -->
    <title>H2</title>
    <desc>Created with Sketch.</desc>
    <defs></defs>
    <g id="Page-3" stroke="none" stroke-width="1" fill="none" fill-rule="evenodd">
        <g id="H2" transform="translate(0.545732, -0.185985)">
            <rect id="rect5609" stroke="#000000" stroke-width="0.996734187" fill="#FFFFFF" x="0.762010318" y="0.92656374" width="223.228352" height="311.81103" rx="10.582486"></rect>
            <path d="M17.9791885,70.8999832 C17.9791885,70.8999832 15.7544912,67.7101802 12.7534899,63.9598844 C10.7457909,61.4501567 9.14078893,58.7326644 8.99149273,56.3918771 C8.82038921,53.7180244 10.4404986,51.0354438 13.373597,50.9054279 C16.3049877,50.7755124 17.494797,52.9671225 17.9791885,54.7741024 C18.4635901,52.9671225 19.6534897,50.7755124 22.5847901,50.9054279 C25.5178884,51.0354438 27.1380883,53.7180244 26.9668943,56.3918771 C26.8176885,58.7326644 25.2125961,61.4501567 23.2049876,63.9598844 C20.2038958,67.7101802 17.9791885,70.8999832 17.9791885,70.8999832 L17.9791885,70.8999832 Z" id="path9766-0-8" fill="#D40000"></path>
            <path d="M206.773696,242.764586 C206.773696,242.764586 204.548999,245.954368 201.547997,249.704694 C199.540298,252.214382 197.935296,254.931914 197.786,257.272642 C197.614897,259.946524 199.234996,262.629045 202.168094,262.759071 C205.099495,262.888996 206.289294,260.697386 206.773696,258.890476 C207.258098,260.697386 208.447997,262.888996 211.379298,262.759071 C214.312396,262.629045 215.932596,259.946524 215.761392,257.272642 C215.612196,254.931914 214.007094,252.214382 211.999495,249.704694 C208.998393,245.954368 206.773696,242.764586 206.773696,242.764586 L206.773696,242.764586 Z" id="path9768-3-3" fill="#D40000"></path>
            <path d="M112.376045,81.6215576 C112.376045,81.6215576 107.709743,73.9660906 101.415145,64.9653003 C97.2041439,58.9420341 93.8375411,52.4199724 93.5245444,46.8022032 C93.1655425,40.3848765 96.5637463,33.9467834 102.715939,33.6347854 C108.864446,33.3229881 111.360142,38.5828124 112.376045,42.9193835 C113.392039,38.5828124 115.887746,33.3229881 122.036242,33.6347854 C128.188445,33.9467834 131.586639,40.3848765 131.227647,46.8022032 C130.91464,52.4199724 127.548047,58.9420341 123.337047,64.9653003 C117.042438,73.9660906 112.376045,81.6215576 112.376045,81.6215576 L112.376045,81.6215576 Z" id="path9772-1-7" fill="#D40000"></path>
            <path d="M112.376045,232.042861 C112.376045,232.042861 107.709743,239.698328 101.415145,248.699118 C97.2041439,254.722384 93.8375411,261.244446 93.5245444,266.862205 C93.1655425,273.279522 96.5637463,279.717585 102.715939,280.029623 C108.864446,280.34147 111.360142,275.081586 112.376045,270.745005 C113.392039,275.081586 115.887746,280.34147 122.036242,280.029623 C128.188445,279.717585 131.586639,273.279522 131.227647,266.862205 C130.91464,261.244446 127.548047,254.722384 123.337047,248.699118 C117.042438,239.698328 112.376045,232.042861 112.376045,232.042861 L112.376045,232.042861 Z" id="path9786-2-1" fill="#D40000"></path>
            <path d="M8.58579237,47.6936546 L8.7465899,45.6587457 C9.25438583,39.3704317 10.6055853,37.2490461 18.2695843,30.6845487 C21.9903877,27.5022697 23.2104921,25.9322478 23.3814852,24.1107214 C23.8687897,19.8141783 20.0669849,18.4732893 17.5907853,18.4536264 C14.3816854,18.4245334 10.7508937,20.3772795 12.4839873,24.9160975 L8.88278765,25.9938448 C8.15898784,21.7601026 8.90378133,17.7883986 12.2731866,16.0257606 C16.7730865,13.7276096 22.5431844,14.6285915 25.4565849,18.2493731 C27.4146925,20.6786435 27.862089,24.0399952 26.8116918,26.6708102 C23.7427874,33.3912063 13.332584,36.3480642 12.4736913,44.1240367 L23.9792928,44.1240367 L23.9792928,39.7946887 L27.3696917,39.7946887 L27.3696917,47.7643809 L8.58579237,47.693153 L8.58579237,47.6936546 Z" id="path15-34-0-0-4" fill="#D40000"></path>
            <path d="M216.164209,265.970814 L216.003412,268.005813 C215.495606,274.294017 214.144406,276.415412 206.480407,282.98001 C202.759604,286.162108 201.539509,287.732211 201.368506,289.553817 C200.881202,293.85031 204.683007,295.191209 207.159206,295.210912 C210.368306,295.239905 213.999108,293.287209 212.266004,288.748411 L215.867204,287.670714 C216.591004,291.904316 215.84621,295.87611 212.476805,297.638708 C207.976905,299.936909 202.206807,299.035917 199.293407,295.415115 C197.335309,292.986016 196.887903,289.624513 197.93831,286.993708 C201.007204,280.273312 211.417408,277.316414 212.27631,269.540512 L200.770709,269.540512 L200.770709,273.86981 L197.38031,273.86981 L197.38031,265.900118 L216.164209,265.971145 L216.164209,265.970814 Z" id="path15-5-4-5-2-7" fill="#D40000"></path>
        </g>
    </g>
</svg>