<?xml version="1.0" encoding="UTF-8" standalone="no"?>
<svg width="225px" height="314px" viewBox="0 0 225 314" version="1.1" xmlns="http://www.w3.org/2000/svg" xmlns:xlink="http://www.w3.org/1999/xlink">
    <!-- Generator: Sketch 39.1 (31720) - http://www.bohemiancoding.com/sketch -->
    <title>H4</title>
    <desc>Created with Sketch.</desc>
    <defs></defs>
    <g id="Page-3" stroke="none" stroke-width="1" fill="none" fill-rule="evenodd">
        <g id="H4" transform="translate(0.548269, -0.185985)">
            <rect id="rect5655" stroke="#000000" stroke-width="0.996734187" fill="#FFFFFF" x="0.209334111" y="0.92656374" width="223.228352" height="311.81103" rx="10.582486"></rect>
            <path d="M17.4268639,70.8999832 C17.4268639,70.8999832 15.2021365,67.7101802 12.2011452,63.9598844 C10.1934864,61.4501567 8.58842411,58.7326644 8.43915804,56.3918771 C8.26809471,53.7180244 9.88812376,51.0354438 12.8212121,50.9054279 C15.7526932,50.7755124 16.9425025,52.9671225 17.4268639,54.7741024 C17.9112252,52.9671225 19.101135,50.7755124 22.0324152,50.9054279 C24.965604,51.0354438 26.5857335,53.7180244 26.4145697,56.3918771 C26.2654041,58.7326644 24.6602414,61.4501567 22.652683,63.9598844 C19.6515913,67.7101802 17.4287724,70.8973749 17.4268639,70.8999832 L17.4268639,70.8999832 Z" id="path9902-6-7" fill="#D40000"></path>
            <path d="M206.221321,242.764586 C206.221321,242.767595 203.996694,245.954368 200.995703,249.704694 C198.987944,252.214382 197.382982,254.931914 197.233615,257.272642 C197.062552,259.946524 198.682681,262.629045 201.61577,262.759071 C204.54715,262.888996 205.73696,260.697386 206.221321,258.890476 C206.705783,260.697386 207.895693,262.888996 210.826973,262.759071 C213.760061,262.629045 215.380291,259.946524 215.209027,257.272642 C215.059861,254.931914 213.454799,252.214382 211.44714,249.704694 C208.446049,245.954368 206.22323,242.767194 206.221321,242.764586 L206.221321,242.764586 Z" id="path9904-6-0" fill="#D40000"></path>
            <path d="M60.0572936,81.6215576 C60.0572936,81.6155384 55.3909711,73.9660906 49.0963827,64.9653003 C44.885392,58.9420341 41.5187691,52.4199724 41.2057725,46.8022032 C40.8467705,40.3848765 44.2450346,33.9467834 50.3971873,33.6347854 C56.5457239,33.3229881 59.0413602,38.5828124 60.0572936,42.9193835 C61.0733274,38.5828124 63.5689637,33.3229881 69.7175003,33.6347854 C75.8697535,33.9467834 79.2679171,40.3848765 78.9089151,46.8022032 C78.5959185,52.4199724 75.2292956,58.9420341 71.0183049,64.9653003 C64.7237166,73.9660906 60.0613115,81.6153177 60.0572936,81.6215576 L60.0572936,81.6215576 Z" id="path9910-2-6" fill="#D40000"></path>
            <path d="M163.590088,81.6215576 C163.590088,81.6155384 158.923765,73.9660906 152.629177,64.9653003 C148.418186,58.9420341 145.051563,52.4199724 144.738567,46.8022032 C144.379565,40.3848765 147.777829,33.9467834 153.929982,33.6347854 C160.078518,33.3229881 162.574255,38.5828124 163.590088,42.9193835 C164.606122,38.5828124 167.101858,33.3229881 173.250295,33.6347854 C179.402548,33.9467834 182.800711,40.3848765 182.441709,46.8022032 C182.128713,52.4199724 178.76209,58.9420341 174.551099,64.9653003 C168.256511,73.9660906 163.594106,81.6153177 163.590088,81.6215576 L163.590088,81.6215576 Z" id="path9916-8-0" fill="#D40000"></path>
            <path d="M163.590088,232.042861 C163.590088,232.04888 158.923765,239.698328 152.629177,248.699118 C148.418186,254.722384 145.051563,261.244446 144.738567,266.862205 C144.379565,273.279522 147.777829,279.717585 153.929982,280.029623 C160.078518,280.34147 162.574255,275.081586 163.590088,270.745005 C164.606122,275.081586 167.101858,280.34147 173.250295,280.029623 C179.402548,279.717585 182.800711,273.279522 182.441709,266.862205 C182.128713,261.244446 178.76209,254.722384 174.551099,248.699118 C168.256511,239.698328 163.594106,232.049101 163.590088,232.042861 L163.590088,232.042861 Z" id="path9930-7-9" fill="#D40000"></path>
            <path d="M60.0572936,232.042861 C60.0572936,232.04888 55.3909711,239.698328 49.0963827,248.699118 C44.885392,254.722384 41.5187691,261.244446 41.2057725,266.862205 C40.8467705,273.279522 44.2450346,279.717585 50.3971873,280.029623 C56.5457239,280.34147 59.0413602,275.081586 60.0572936,270.745005 C61.0733274,275.081586 63.5689637,280.34147 69.7175003,280.029623 C75.8697535,279.717585 79.2679171,273.279522 78.9089151,266.862205 C78.5959185,261.244446 75.2292956,254.722384 71.0183049,248.699118 C64.7237166,239.698328 60.0613115,232.049101 60.0572936,232.042861 L60.0572936,232.042861 Z" id="path9932-9-8" fill="#D40000"></path>
            <path d="M17.6568903,47.7604683 L17.6568903,44.8457452 L20.2873281,44.8457452 L20.2873281,40.0376659 L7.12961447,40.0376659 L7.12961447,36.6451144 L21.3673475,14.764426 L23.6931258,14.7764645 L23.6931258,36.6455157 L27.7212003,36.6455157 L27.7212003,40.0379669 L23.6931258,40.0379669 L23.6167851,44.8460462 L25.8216238,44.8460462 L25.8216238,47.7645815 L17.6563881,47.7645815 L17.6568903,47.7604683 Z M20.2873281,22.7749488 L11.247791,36.6465189 L20.2873281,36.6465189 L20.2873281,22.7749488 L20.2873281,22.7749488 Z" id="path19-3-8-2-9" fill="#D40000"></path>
            <path d="M205.988482,265.9041 L205.988482,268.818803 L203.357944,268.818803 L203.357944,273.626803 L216.515658,273.626803 L216.515658,277.019304 L202.277925,298.900203 L199.952146,298.888164 L199.952146,277.019063 L195.924172,277.019063 L195.924172,273.626562 L199.952146,273.626562 L200.028487,268.818563 L197.823548,268.818563 L197.823548,265.899967 L205.988884,265.899967 L205.988482,265.9041 Z M203.357944,290.8895 L212.397581,277.018 L203.357944,277.018 L203.357944,290.8895 L203.357944,290.8895 Z" id="path19-4-46-0-1-9" fill="#D40000"></path>
        </g>
    </g>
</svg>