<?xml version="1.0" encoding="UTF-8" standalone="no"?>
<svg width="225px" height="314px" viewBox="0 0 225 314" version="1.1" xmlns="http://www.w3.org/2000/svg" xmlns:xlink="http://www.w3.org/1999/xlink">
    <!-- Generator: Sketch 39.1 (31720) - http://www.bohemiancoding.com/sketch -->
    <title>H5</title>
    <desc>Created with Sketch.</desc>
    <defs></defs>
    <g id="Page-3" stroke="none" stroke-width="1" fill="none" fill-rule="evenodd">
        <g id="H5" transform="translate(0.547196, -0.185985)">
            <rect id="rect5681" stroke="#000000" stroke-width="0.996734187" fill="#FFFFFF" x="0.435443077" y="0.92656374" width="223.228352" height="311.81103" rx="10.582486"></rect>
            <path d="M17.6529728,70.8999832 C17.6529728,70.8999832 15.4282454,67.7101802 12.4272541,63.9598844 C10.4195953,61.4501567 8.81453308,58.7326644 8.66526701,56.3918771 C8.49420367,53.7180244 10.1142327,51.0354438 13.047321,50.9054279 C15.9788022,50.7755124 17.1686115,52.9671225 17.6529728,54.7741024 C18.1373342,52.9671225 19.3272439,50.7755124 22.2585242,50.9054279 C25.1917129,51.0354438 26.8118424,53.7180244 26.6406787,56.3918771 C26.491513,58.7326644 24.8863503,61.4501567 22.878792,63.9598844 C19.8777002,67.7101802 17.6529728,70.8999832 17.6529728,70.8999832 L17.6529728,70.8999832 Z" id="path9970-5-6" fill="#D40000"></path>
            <path d="M206.44743,242.764586 C206.44743,242.764586 204.222803,245.954368 201.221812,249.704694 C199.214053,252.214382 197.609091,254.931914 197.459724,257.272642 C197.288661,259.946524 198.90879,262.629045 201.841879,262.759071 C204.773259,262.888996 205.963069,260.697386 206.44743,258.890476 C206.931892,260.697386 208.121802,262.888996 211.053082,262.759071 C213.98617,262.629045 215.6064,259.946524 215.435136,257.272642 C215.28597,254.931914 213.680908,252.214382 211.673249,249.704694 C208.672157,245.954368 206.44743,242.764586 206.44743,242.764586 L206.44743,242.764586 Z" id="path9972-9-9" fill="#D40000"></path>
            <path d="M60.2834025,81.6215576 C60.2834025,81.6215576 55.61708,73.9660906 49.3224917,64.9653003 C45.111501,58.9420341 41.7448781,52.4199724 41.4318814,46.8022032 C41.0728795,40.3848765 44.4711435,33.9467834 50.6232963,33.6347854 C56.7718329,33.3229881 59.2674691,38.5828124 60.2834025,42.9193835 C61.2994364,38.5828124 63.7950727,33.3229881 69.9436093,33.6347854 C76.0958625,33.9467834 79.4940261,40.3848765 79.1350241,46.8022032 C78.8220274,52.4199724 75.4554045,58.9420341 71.2444139,64.9653003 C64.9498255,73.9660906 60.2834025,81.6215576 60.2834025,81.6215576 L60.2834025,81.6215576 Z" id="path9978-0-4" fill="#D40000"></path>
            <path d="M163.816197,81.6215576 C163.816197,81.6215576 159.149874,73.9660906 152.855286,64.9653003 C148.644295,58.9420341 145.277672,52.4199724 144.964676,46.8022032 C144.605674,40.3848765 148.003938,33.9467834 154.156091,33.6347854 C160.304627,33.3229881 162.800364,38.5828124 163.816197,42.9193835 C164.832231,38.5828124 167.327967,33.3229881 173.476404,33.6347854 C179.628657,33.9467834 183.02682,40.3848765 182.667818,46.8022032 C182.354822,52.4199724 178.988199,58.9420341 174.777208,64.9653003 C168.48262,73.9660906 163.816197,81.6215576 163.816197,81.6215576 L163.816197,81.6215576 Z" id="path9984-9-5" fill="#D40000"></path>
            <path d="M112.0498,180.832206 C112.0498,180.832206 107.383477,173.176729 101.088889,164.175939 C96.8778981,158.152683 93.5112752,151.630611 93.1982786,146.012852 C92.8392766,139.595545 96.2375406,133.157472 102.389693,132.845444 C108.53823,132.533597 111.033866,137.793471 112.0498,142.130052 C113.065834,137.793471 115.56147,132.533597 121.710006,132.845444 C127.862159,133.157472 131.260423,139.595545 130.901421,146.012852 C130.588425,151.630611 127.221802,158.152683 123.010811,164.175939 C116.716223,173.176729 112.0498,180.832206 112.0498,180.832206 L112.0498,180.832206 Z" id="path9986-7-3" fill="#D40000"></path>
            <path d="M163.816197,232.042861 C163.816197,232.042861 159.149874,239.698328 152.855286,248.699118 C148.644295,254.722384 145.277672,261.244446 144.964676,266.862205 C144.605674,273.279522 148.003938,279.717585 154.156091,280.029623 C160.304627,280.34147 162.800364,275.081586 163.816197,270.745005 C164.832231,275.081586 167.327967,280.34147 173.476404,280.029623 C179.628657,279.717585 183.02682,273.279522 182.667818,266.862205 C182.354822,261.244446 178.988199,254.722384 174.777208,248.699118 C168.48262,239.698328 163.816197,232.042861 163.816197,232.042861 L163.816197,232.042861 Z" id="path9998-0-9" fill="#D40000"></path>
            <path d="M60.2834025,232.042861 C60.2834025,232.042861 55.61708,239.698328 49.3224917,248.699118 C45.111501,254.722384 41.7448781,261.244446 41.4318814,266.862205 C41.0728795,273.279522 44.4711435,279.717585 50.6232963,280.029623 C56.7718329,280.34147 59.2674691,275.081586 60.2834025,270.745005 C61.2994364,275.081586 63.7950727,280.34147 69.9436093,280.029623 C76.0958625,279.717585 79.4940261,273.279522 79.1350241,266.862205 C78.8220274,261.244446 75.4554045,254.722384 71.2444139,248.699118 C64.9498255,239.698328 60.2834025,232.042861 60.2834025,232.042861 L60.2834025,232.042861 Z" id="path10000-8-2" fill="#D40000"></path>
            <path d="M7.2500519,39.2210539 L10.4848867,39.1899544 C11.1019402,41.181926 12.467333,43.2064015 14.3213059,43.7681985 C19.5591789,45.0215074 22.9289157,42.0395693 24.0385673,38.602074 C25.384674,34.4324368 24.0084328,28.5774087 20.4025422,26.4991612 C17.4146092,24.7757486 12.9750988,26.2293983 10.9361001,29.9157897 L8.67079166,28.5040742 L9.88691838,14.7643257 L24.6864583,14.7643257 L24.6864583,18.0120139 L12.6936428,18.0120139 L12.5032934,23.7360229 C15.0850138,21.8896169 19.0526185,21.9091795 21.6329326,23.2044225 C26.5198394,25.5786167 28.7903712,30.9764825 27.8415373,37.3383317 C26.5250628,43.6660719 23.621908,47.2516408 17.0739892,47.7636786 C9.79058853,47.8308936 7.21911384,42.729777 7.2500519,39.2214552 L7.2500519,39.2214552 L7.2500519,39.2210539 Z" id="path21-9-5-1-8" fill="#D40000"></path>
            <path d="M216.847438,274.443435 L213.612603,274.474434 C212.99555,272.482532 211.630157,270.458037 209.776184,269.89623 C204.538311,268.642931 201.168574,271.624829 200.058923,275.062334 C198.712816,279.232032 200.089057,285.086929 203.694948,287.165237 C206.682881,288.88863 211.122391,287.43503 213.16139,283.748629 L215.426799,285.160334 L214.210572,298.900133 L199.411032,298.900133 L199.411032,295.652434 L211.403847,295.652434 L211.594196,289.928335 C209.012476,291.774831 205.044871,291.755229 202.464557,290.460036 C197.57765,288.085832 195.307119,282.687835 196.255953,276.326137 C197.572427,269.998336 200.475582,266.412838 207.023601,265.90073 C214.306901,265.833715 216.878376,270.934631 216.847438,274.442933 L216.847438,274.442933 L216.847438,274.443435 Z" id="path21-3-0-6-3-8" fill="#D40000"></path>
        </g>
    </g>
</svg>