<?xml version="1.0" encoding="UTF-8" standalone="no"?>
<svg width="225px" height="314px" viewBox="0 0 225 314" version="1.1" xmlns="http://www.w3.org/2000/svg" xmlns:xlink="http://www.w3.org/1999/xlink">
    <!-- Generator: Sketch 39.1 (31720) - http://www.bohemiancoding.com/sketch -->
    <title>H6</title>
    <desc>Created with Sketch.</desc>
    <defs></defs>
    <g id="Page-3" stroke="none" stroke-width="1" fill="none" fill-rule="evenodd">
        <g id="H6" transform="translate(0.546223, -0.185985)">
            <rect id="rect5709" stroke="#000000" stroke-width="0.996734187" fill="#FFFFFF" x="0.661552043" y="0.92656374" width="223.228352" height="311.81103" rx="10.582486"></rect>
            <path d="M17.8790818,70.8999832 C17.8790818,70.8999832 15.6543544,67.7101802 12.6533631,63.9598844 C10.6457043,61.4501567 9.04064204,58.7326644 8.89137597,56.3918771 C8.72031264,53.7180244 10.3403417,51.0354438 13.27343,50.9054279 C16.2049112,50.7755124 17.3947204,52.9671225 17.8790818,54.7741024 C18.3634432,52.9671225 19.5533529,50.7755124 22.4846331,50.9054279 C25.4178219,51.0354438 27.0379514,53.7180244 26.8667876,56.3918771 C26.717622,58.7326644 25.1124593,61.4501567 23.104901,63.9598844 C20.1038092,67.7101802 17.8790818,70.8999832 17.8790818,70.8999832 L17.8790818,70.8999832 Z" id="path10038-5-0" fill="#D40000"></path>
            <path d="M206.673539,242.764586 C206.673539,242.764586 204.448912,245.954368 201.447921,249.704694 C199.440162,252.214382 197.8352,254.931914 197.685833,257.272642 C197.51477,259.946524 199.134899,262.629045 202.067988,262.759071 C204.999368,262.888996 206.189178,260.697386 206.673539,258.890476 C207.158001,260.697386 208.347911,262.888996 211.279191,262.759071 C214.212279,262.629045 215.832509,259.946524 215.661245,257.272642 C215.512079,254.931914 213.907017,252.214382 211.899358,249.704694 C208.898266,245.954368 206.673539,242.764586 206.673539,242.764586 L206.673539,242.764586 Z" id="path10040-7-6" fill="#D40000"></path>
            <path d="M60.5095115,81.6215576 C60.5095115,81.6215576 55.843189,73.9660906 49.5486007,64.9653003 C45.33761,58.9420341 41.9709871,52.4199724 41.6579904,46.8022032 C41.2989884,40.3848765 44.6972525,33.9467834 50.8494052,33.6347854 C56.9979418,33.3229881 59.4935781,38.5828124 60.5095115,42.9193835 C61.5255454,38.5828124 64.0211816,33.3229881 70.1697182,33.6347854 C76.3219714,33.9467834 79.7201351,40.3848765 79.3611331,46.8022032 C79.0481364,52.4199724 75.6815135,58.9420341 71.4705228,64.9653003 C65.1759345,73.9660906 60.5095115,81.6215576 60.5095115,81.6215576 L60.5095115,81.6215576 Z" id="path10046-1-1" fill="#D40000"></path>
            <path d="M164.042306,180.832206 C164.042306,180.832206 159.375983,173.176729 153.081395,164.175939 C148.870404,158.152683 145.503781,151.630611 145.190785,146.012852 C144.831783,139.595545 148.230047,133.157472 154.382199,132.845444 C160.530736,132.533597 163.026473,137.793471 164.042306,142.130052 C165.05834,137.793471 167.554076,132.533597 173.702512,132.845444 C179.854766,133.157472 183.252929,139.595545 182.893927,146.012852 C182.580931,151.630611 179.214308,158.152683 175.003317,164.175939 C168.708729,173.176729 164.042306,180.832206 164.042306,180.832206 L164.042306,180.832206 Z" id="path10048-2-0" fill="#D40000"></path>
            <path d="M164.042306,81.6215576 C164.042306,81.6215576 159.375983,73.9660906 153.081395,64.9653003 C148.870404,58.9420341 145.503781,52.4199724 145.190785,46.8022032 C144.831783,40.3848765 148.230047,33.9467834 154.382199,33.6347854 C160.530736,33.3229881 163.026473,38.5828124 164.042306,42.9193835 C165.05834,38.5828124 167.554076,33.3229881 173.702512,33.6347854 C179.854766,33.9467834 183.252929,40.3848765 182.893927,46.8022032 C182.580931,52.4199724 179.214308,58.9420341 175.003317,64.9653003 C168.708729,73.9660906 164.042306,81.6215576 164.042306,81.6215576 L164.042306,81.6215576 Z" id="path10052-3-1" fill="#D40000"></path>
            <path d="M60.5095115,180.832206 C60.5095115,180.832206 55.843189,173.176729 49.5486007,164.175949 C45.33761,158.152693 41.9709871,151.630621 41.6579904,146.012862 C41.2989884,139.595555 44.6972525,133.157482 50.8494052,132.845454 C56.9979418,132.533607 59.4935781,137.793481 60.5095115,142.130062 C61.5255454,137.793481 64.0211816,132.533607 70.1697182,132.845454 C76.3219714,133.157482 79.7201351,139.595555 79.3611331,146.012862 C79.0481364,151.630621 75.6815135,158.152693 71.4705228,164.175949 C65.1759345,173.176729 60.5095115,180.832206 60.5095115,180.832206 L60.5095115,180.832206 Z" id="path10056-4-2" fill="#D40000"></path>
            <path d="M164.042306,232.042861 C164.042306,232.042861 159.375983,239.698328 153.081395,248.699118 C148.870404,254.722384 145.503781,261.244446 145.190785,266.862205 C144.831783,273.279522 148.230047,279.717585 154.382199,280.029623 C160.530736,280.34147 163.026473,275.081586 164.042306,270.745005 C165.05834,275.081586 167.554076,280.34147 173.702512,280.029623 C179.854766,279.717585 183.252929,273.279522 182.893927,266.862205 C182.580931,261.244446 179.214308,254.722384 175.003317,248.699118 C168.708729,239.698328 164.042306,232.042861 164.042306,232.042861 L164.042306,232.042861 Z" id="path10066-9-2" fill="#D40000"></path>
            <path d="M60.5095115,232.042861 C60.5095115,232.042861 55.843189,239.698328 49.5486007,248.699118 C45.33761,254.722384 41.9709871,261.244446 41.6579904,266.862205 C41.2989884,273.279522 44.6972525,279.717585 50.8494052,280.029623 C56.9979418,280.34147 59.4935781,275.081586 60.5095115,270.745005 C61.5255454,275.081586 64.0211816,280.34147 70.1697182,280.029623 C76.3219714,279.717585 79.7201351,273.279522 79.3611331,266.862205 C79.0481364,261.244446 75.6815135,254.722384 71.4705228,248.699118 C65.1759345,239.698328 60.5095115,232.042861 60.5095115,232.042861 L60.5095115,232.042861 Z" id="path10068-1-2" fill="#D40000"></path>
            <path d="M8.18663119,37.6122078 C7.7803181,34.8347236 7.79066427,27.6546572 8.12234433,25.5306633 C9.14701672,19.02375 11.6322064,16.0461257 15.7951828,15.0744176 C19.8387263,14.127589 25.5189733,15.1817609 26.7647322,20.6200561 L23.3846493,20.6852646 C21.5563911,17.0083034 16.9305492,17.9904449 14.3244198,19.5905631 C12.2455433,20.8647387 11.3056492,26.1851568 11.7080448,26.5126042 C11.7080448,26.5126042 15.639689,23.6002887 18.7395213,23.8149754 C25.363379,24.5050828 28.0954704,30.2498583 27.8639372,35.6738075 C27.6530964,42.1990795 25.5844655,47.4173709 18.5633351,47.7643809 C11.888048,47.5063555 8.82939942,43.8673156 8.18663119,37.6119068 L8.18663119,37.6119068 L8.18663119,37.6122078 Z M24.6496943,35.8888955 C24.6858557,31.3619153 22.6311871,27.9689625 18.7395213,27.597073 C14.8516726,27.2225751 10.9289683,31.0175137 11.200279,35.6321744 C11.4714892,40.2664979 13.2649924,44.1648673 17.9809363,44.1439003 C23.0529692,44.1238361 24.6252854,39.1115035 24.6496943,35.8888955 L24.6496943,35.8888955 L24.6496943,35.8888955 Z" id="path23-5-2-7-3" fill="#D40000"></path>
            <path d="M216.363177,276.052361 C216.76949,278.829865 216.759044,286.009861 216.427464,288.133865 C215.402792,294.640759 212.917501,297.618463 208.754425,298.590161 C204.710982,299.53696 199.030735,298.482758 197.784976,293.044463 L201.165059,292.979455 C202.993317,296.656456 207.619259,295.674355 210.225388,294.074156 C212.304265,292.800051 213.244059,287.479552 212.841663,287.152155 C212.841663,287.152155 208.909918,290.064451 205.810187,289.849754 C199.186429,289.159656 196.454237,283.414851 196.685771,277.990952 C196.896511,271.46565 198.965242,266.247348 205.986373,265.900348 C212.66176,266.158354 215.720208,269.797454 216.363177,276.052853 L216.363177,276.052853 L216.363177,276.052361 Z M199.899913,277.775663 C199.863752,282.302663 201.91842,285.695566 205.810287,286.067466 C209.698035,286.441964 213.62074,282.647065 213.349429,278.032364 C213.078219,273.398061 211.284715,269.499661 206.568872,269.520658 C201.496839,269.540622 199.924422,274.553065 199.899913,277.775663 L199.899913,277.775663 L199.899913,277.775663 Z" id="path23-6-5-1-7-1" fill="#D40000"></path>
        </g>
    </g>
</svg>