<?xml version="1.0" encoding="UTF-8" standalone="no"?>
<svg width="225px" height="314px" viewBox="0 0 225 314" version="1.1" xmlns="http://www.w3.org/2000/svg" xmlns:xlink="http://www.w3.org/1999/xlink">
    <!-- Generator: Sketch 39.1 (31720) - http://www.bohemiancoding.com/sketch -->
    <title>H8</title>
    <desc>Created with Sketch.</desc>
    <defs></defs>
    <g id="Page-3" stroke="none" stroke-width="1" fill="none" fill-rule="evenodd">
        <g id="H8" transform="translate(0.548660, -0.185985)">
            <rect id="rect5769" stroke="#000000" stroke-width="0.996734187" fill="#FFFFFF" x="0.109086778" y="0.92656374" width="223.228352" height="311.81103" rx="10.582486"></rect>
            <path d="M17.326717,70.8999832 C17.326717,70.8999832 15.1019896,67.7101802 12.1009983,63.9598844 C10.0933395,61.4501567 8.48827723,58.7326644 8.33901116,56.3918771 C8.16794782,53.7180244 9.78797688,51.0354438 12.7210652,50.9054279 C15.6525463,50.7755124 16.8423556,52.9671225 17.326717,54.7741024 C17.8110784,52.9671225 19.0009881,50.7755124 21.9322683,50.9054279 C24.8654571,51.0354438 26.4855866,53.7180244 26.3144228,56.3918771 C26.1652572,58.7326644 24.5600945,61.4501567 22.5525362,63.9598844 C19.5514444,67.7101802 17.326717,70.8999832 17.326717,70.8999832 L17.326717,70.8999832 Z" id="path10174-9-0" fill="#D40000"></path>
            <path d="M206.121174,242.764586 C206.121174,242.767595 203.896547,245.954368 200.895556,249.704694 C198.887797,252.214382 197.282835,254.931914 197.133468,257.272642 C196.962405,259.946524 198.582535,262.629045 201.515623,262.759071 C204.447004,262.888996 205.636813,260.697386 206.121174,258.890476 C206.605636,260.697386 207.795546,262.888996 210.726826,262.759071 C213.659914,262.629045 215.280144,259.946524 215.10888,257.272642 C214.959714,254.931914 213.354652,252.214382 211.346993,249.704694 C208.345902,245.954368 206.123083,242.767194 206.121174,242.764586 L206.121174,242.764586 Z" id="path10176-9-9" fill="#D40000"></path>
            <path d="M111.723544,131.226827 C111.723544,131.226827 107.057221,123.57136 100.762633,114.57057 C96.5516423,108.547303 93.1850194,102.025242 92.8720227,96.4074724 C92.5130207,89.9901658 95.9111843,83.5520927 102.063438,83.2400647 C108.211974,82.9282172 110.70761,88.1881016 111.723544,92.5246727 C112.739578,88.1881016 115.235214,82.9282172 121.383751,83.2400647 C127.535903,83.5520927 130.934167,89.9901658 130.575165,96.4074724 C130.262169,102.025242 126.895546,108.547303 122.684555,114.57057 C116.389967,123.57136 111.723544,131.226827 111.723544,131.226827 L111.723544,131.226827 Z" id="path10178-8-4" fill="#D40000"></path>
            <path d="M59.9571467,81.6215576 C59.9571467,81.6215576 55.2908242,73.9660906 48.9962358,64.9653003 C44.7852451,58.9420341 41.4186223,52.4199724 41.1056256,46.8022032 C40.7466236,40.3848765 44.1448877,33.9467834 50.2970404,33.6347854 C56.445577,33.3229881 58.9412133,38.5828124 59.9571467,42.9193835 C60.9731805,38.5828124 63.4688168,33.3229881 69.6173534,33.6347854 C75.7696066,33.9467834 79.1677702,40.3848765 78.8087683,46.8022032 C78.4957716,52.4199724 75.1291487,58.9420341 70.918158,64.9653003 C64.6235697,73.9660906 59.9571467,81.6215576 59.9571467,81.6215576 L59.9571467,81.6215576 Z" id="path10182-1-9" fill="#D40000"></path>
            <path d="M163.489941,180.832206 C163.489941,180.832206 158.823618,173.176729 152.52903,164.175939 C148.318039,158.152683 144.951417,151.630611 144.63842,146.012852 C144.279418,139.595545 147.677682,133.157472 153.829835,132.845444 C159.978371,132.533597 162.474108,137.793471 163.489941,142.130052 C164.505975,137.793471 167.001712,132.533597 173.150148,132.845444 C179.302401,133.157472 182.700564,139.595545 182.341563,146.012852 C182.028566,151.630611 178.661943,158.152683 174.450952,164.175939 C168.156364,173.176729 163.489941,180.832206 163.489941,180.832206 L163.489941,180.832206 Z" id="path10184-9-1" fill="#D40000"></path>
            <path d="M163.489941,81.6215576 C163.489941,81.6215576 158.823618,73.9660906 152.52903,64.9653003 C148.318039,58.9420341 144.951417,52.4199724 144.63842,46.8022032 C144.279418,40.3848765 147.677682,33.9467834 153.829835,33.6347854 C159.978371,33.3229881 162.474108,38.5828124 163.489941,42.9193835 C164.505975,38.5828124 167.001712,33.3229881 173.150148,33.6347854 C179.302401,33.9467834 182.700564,40.3848765 182.341563,46.8022032 C182.028566,52.4199724 178.661943,58.9420341 174.450952,64.9653003 C168.156364,73.9660906 163.489941,81.6215576 163.489941,81.6215576 L163.489941,81.6215576 Z" id="path10188-5-4" fill="#D40000"></path>
            <path d="M59.9571467,180.832206 C59.9571467,180.832206 55.2908242,173.176729 48.9962358,164.175949 C44.7852451,158.152693 41.4186223,151.630621 41.1056256,146.012862 C40.7466236,139.595555 44.1448877,133.157482 50.2970404,132.845454 C56.445577,132.533607 58.9412133,137.793481 59.9571467,142.130062 C60.9731805,137.793481 63.4688168,132.533607 69.6173534,132.845454 C75.7696066,133.157482 79.1677702,139.595555 78.8087683,146.012862 C78.4957716,151.630621 75.1291487,158.152693 70.918158,164.175949 C64.6235697,173.176729 59.9571467,180.832206 59.9571467,180.832206 L59.9571467,180.832206 Z" id="path10192-3-6" fill="#D40000"></path>
            <path d="M111.723544,182.437581 C111.723544,182.437581 107.057322,190.093058 100.762633,199.093859 C96.5517427,205.117115 93.1850194,211.639187 92.8721231,217.256936 C92.5131212,223.674242 95.9111843,230.112316 102.063438,230.424344 C108.212075,230.736191 110.707711,225.476317 111.723544,221.139735 C112.739678,225.476317 115.235214,230.736191 121.383851,230.424344 C127.536004,230.112316 130.934167,223.674242 130.575165,217.256936 C130.262269,211.639187 126.895646,205.117115 122.684656,199.093859 C116.390067,190.093058 111.723544,182.437581 111.723544,182.437581 L111.723544,182.437581 Z" id="path10196-7-3" fill="#D40000"></path>
            <path d="M163.489941,232.042861 C163.489941,232.042861 158.823618,239.698328 152.52903,248.699118 C148.318039,254.722384 144.951417,261.244446 144.63842,266.862205 C144.279418,273.279522 147.677682,279.717585 153.829835,280.029623 C159.978371,280.34147 162.474108,275.081586 163.489941,270.745005 C164.505975,275.081586 167.001712,280.34147 173.150148,280.029623 C179.302401,279.717585 182.700564,273.279522 182.341563,266.862205 C182.028566,261.244446 178.661943,254.722384 174.450952,248.699118 C168.156364,239.698328 163.489941,232.042861 163.489941,232.042861 L163.489941,232.042861 Z" id="path10202-2-8" fill="#D40000"></path>
            <path d="M59.9571467,232.042861 C59.9571467,232.042861 55.2908242,239.698328 48.9962358,248.699118 C44.7852451,254.722384 41.4186223,261.244446 41.1056256,266.862205 C40.7466236,273.279522 44.1448877,279.717585 50.2970404,280.029623 C56.445577,280.34147 58.9412133,275.081586 59.9571467,270.745005 C60.9731805,275.081586 63.4688168,280.34147 69.6173534,280.029623 C75.7696066,279.717585 79.1677702,273.279522 78.8087683,266.862205 C78.4957716,261.244446 75.1291487,254.722384 70.918158,248.699118 C64.6235697,239.698328 59.9571467,232.042861 59.9571467,232.042861 L59.9571467,232.042861 Z" id="path10204-9-4" fill="#D40000"></path>
            <path d="M6.60557605,38.0982625 C6.76237574,33.6681923 8.36442456,32.0064771 11.5181976,29.6885629 C9.00217037,27.8736577 7.94143706,25.1983002 8.15740076,22.9211163 C8.67551273,17.4067779 12.9337141,14.6502609 17.5802483,14.7681379 C22.2304991,14.8912316 26.2328589,18.5775227 26.5452528,22.58464 C26.8165635,26.0678817 25.781545,27.7492598 23.310418,29.5813199 C26.2431046,32.0575404 28.1163636,33.6839427 28.0469539,38.0471991 C27.9776446,42.4104556 24.2656807,47.6026636 17.7961116,47.7610703 C11.3266429,47.919477 6.44485889,42.5283327 6.60557605,38.0982625 L6.60557605,38.0982625 L6.60557605,38.0982625 Z M24.6656656,38.1143138 C24.9419986,34.103284 21.3961761,31.3978302 17.393716,31.3585044 C13.4968269,31.3163697 10.0113737,34.6428097 10.0113737,38.2439284 C10.0113737,42.1108974 14.5459082,44.2126201 17.4746772,44.2217493 C21.0348638,44.2378006 24.4250921,41.5673588 24.6656656,38.1143138 L24.6656656,38.1143138 L24.6656656,38.1143138 Z M23.3850511,23.7660188 C23.4613917,20.3915251 20.3468939,17.9701801 17.1327515,18.06709 C14.274698,18.1553724 11.2520098,20.3338406 11.246887,23.157071 C11.246887,26.6914763 14.6874397,28.4567227 17.6252491,28.5248406 C20.2917478,28.5850331 23.3245812,26.3182826 23.3850511,23.7660188 L23.3850511,23.7660188 L23.3850511,23.7660188 Z" id="path27-00-0-7-4" fill="#D40000"></path>
            <path d="M195.400134,275.566346 C195.556933,279.996447 197.158982,281.658142 200.312755,283.976046 C197.796628,285.790941 196.735894,288.466238 196.951958,290.743543 C197.47007,296.257841 201.728272,299.014338 206.374706,298.896441 C211.025057,298.773347 215.027316,295.087146 215.33971,291.080039 C215.611021,287.596747 214.576002,285.915339 212.104976,284.083339 C215.037662,281.607139 216.910821,279.980746 216.841411,275.61744 C216.772102,271.254143 213.060238,266.061945 206.590669,265.903539 C200.1211,265.745042 195.239316,271.136346 195.400134,275.566346 L195.400134,275.566346 L195.400134,275.566346 Z M213.460123,275.550395 C213.736556,279.561395 210.190633,282.266889 206.188274,282.306195 C202.291284,282.348229 198.805831,279.021889 198.805831,275.420791 C198.805831,271.553792 203.340466,269.452089 206.269235,269.44289 C209.829321,269.426838 213.21965,272.09729 213.460123,275.550395 L213.460123,275.550395 L213.460123,275.550395 Z M212.179508,289.89869 C212.255849,293.273194 209.141452,295.694489 205.927209,295.597589 C203.069256,295.509608 200.046568,293.330889 200.041445,290.507588 C200.041445,286.973193 203.481897,285.207997 206.419706,285.139889 C209.086205,285.079897 212.119139,287.346396 212.179508,289.89869 L212.179508,289.89869 L212.179508,289.89869 Z" id="path27-0-1-0-8-9" fill="#D40000"></path>
        </g>
    </g>
</svg>