<?xml version="1.0" encoding="UTF-8" standalone="no"?>
<svg width="225px" height="314px" viewBox="0 0 225 314" version="1.1" xmlns="http://www.w3.org/2000/svg" xmlns:xlink="http://www.w3.org/1999/xlink">
    <!-- Generator: Sketch 39.1 (31720) - http://www.bohemiancoding.com/sketch -->
    <title>H9</title>
    <desc>Created with Sketch.</desc>
    <defs></defs>
    <g id="Page-3" stroke="none" stroke-width="1" fill="none" fill-rule="evenodd">
        <g id="H9" transform="translate(0.547687, -0.185985)">
            <rect id="rect5803" stroke="#000000" stroke-width="0.996734187" fill="#FFFFFF" x="0.335195744" y="0.92656374" width="223.228352" height="311.81103" rx="10.582486"></rect>
            <path d="M60.1832557,147.761987 C60.1832557,147.761987 55.5169331,140.10651 49.2223448,131.105719 C45.0113541,125.082463 41.6447312,118.560392 41.3317345,112.942632 C40.9727326,106.525326 44.3709966,100.087253 50.5231494,99.7752246 C56.671686,99.4633771 59.1673223,104.723252 60.1832557,109.059833 C61.1992895,104.723252 63.6949258,99.4633771 69.8434624,99.7752246 C75.9957156,100.087253 79.3938792,106.525326 79.0348772,112.942632 C78.7218805,118.560392 75.3552577,125.082463 71.144267,131.105719 C64.8496786,140.10651 60.1832557,147.761987 60.1832557,147.761987 L60.1832557,147.761987 Z" id="path10240-7-9" fill="#D40000"></path>
            <path d="M17.552826,70.8999832 C17.552826,70.8999832 15.3280986,67.7101802 12.3271072,63.9598844 C10.3194485,61.4501567 8.71438619,58.7326644 8.56512012,56.3918771 C8.39405679,53.7180244 10.0140858,51.0354438 12.9471742,50.9054279 C15.8786553,50.7755124 17.0684646,52.9671225 17.552826,54.7741024 C18.0371873,52.9671225 19.227097,50.7755124 22.1583773,50.9054279 C25.0915661,51.0354438 26.7116956,53.7180244 26.5405318,56.3918771 C26.3913662,58.7326644 24.7862034,61.4501567 22.7786451,63.9598844 C19.7775533,67.7101802 17.5547345,70.8973749 17.552826,70.8999832 L17.552826,70.8999832 Z" id="path10242-3-8" fill="#D40000"></path>
            <path d="M206.347283,242.764586 C206.347283,242.764586 204.122656,245.954368 201.121665,249.704694 C199.113906,252.214382 197.508944,254.931914 197.359577,257.272642 C197.188514,259.946524 198.808644,262.629045 201.741732,262.759071 C204.673113,262.888996 205.862922,260.697386 206.347283,258.890476 C206.831745,260.697386 208.021655,262.888996 210.952935,262.759071 C213.886023,262.629045 215.506253,259.946524 215.334989,257.272642 C215.185823,254.931914 213.580761,252.214382 211.573102,249.704694 C208.572011,245.954368 206.347283,242.764586 206.347283,242.764586 L206.347283,242.764586 Z" id="path10244-4-5" fill="#D40000"></path>
            <path d="M60.1832557,81.6215576 C60.1832557,81.6215576 55.5169331,73.9660906 49.2223448,64.9653003 C45.0113541,58.9420341 41.6447312,52.4199724 41.3317345,46.8022032 C40.9727326,40.3848765 44.3709966,33.9467834 50.5231494,33.6347854 C56.671686,33.3229881 59.1673223,38.5828124 60.1832557,42.9193835 C61.1992895,38.5828124 63.6949258,33.3229881 69.8434624,33.6347854 C75.9957156,33.9467834 79.3938792,40.3848765 79.0348772,46.8022032 C78.7218805,52.4199724 75.3552577,58.9420341 71.144267,64.9653003 C64.8496786,73.9660906 60.1832557,81.6215576 60.1832557,81.6215576 L60.1832557,81.6215576 Z" id="path10250-9-0" fill="#D40000"></path>
            <path d="M163.71605,147.761987 C163.71605,147.761987 159.049727,140.10651 152.755139,131.105719 C148.544148,125.082463 145.177525,118.560392 144.864529,112.942632 C144.505527,106.525326 147.903791,100.087253 154.055944,99.7752246 C160.20448,99.4633771 162.700217,104.723252 163.71605,109.059833 C164.732084,104.723252 167.22782,99.4633771 173.376257,99.7752246 C179.52851,100.087253 182.926673,106.525326 182.567671,112.942632 C182.254675,118.560392 178.888052,125.082463 174.677061,131.105719 C168.382473,140.10651 163.71605,147.761987 163.71605,147.761987 L163.71605,147.761987 Z" id="path10254-7-3" fill="#D40000"></path>
            <path d="M163.71605,81.6215576 C163.71605,81.6215576 159.049727,73.9660906 152.755139,64.9653003 C148.544148,58.9420341 145.177525,52.4199724 144.864529,46.8022032 C144.505527,40.3848765 147.903791,33.9467834 154.055944,33.6347854 C160.20448,33.3229881 162.700217,38.5828124 163.71605,42.9193835 C164.732084,38.5828124 167.22782,33.3229881 173.376257,33.6347854 C179.52851,33.9467834 182.926673,40.3848765 182.567671,46.8022032 C182.254675,52.4199724 178.888052,58.9420341 174.677061,64.9653003 C168.382473,73.9660906 163.71605,81.6215576 163.71605,81.6215576 L163.71605,81.6215576 Z" id="path10256-4-7" fill="#D40000"></path>
            <path d="M111.949653,180.832206 C111.949653,180.832206 107.28333,173.176729 100.988742,164.175939 C96.7777512,158.152683 93.4111284,151.630611 93.0981317,146.012852 C92.7391297,139.595545 96.1373938,133.157472 102.289547,132.845444 C108.438083,132.533597 110.933719,137.793471 111.949653,142.130052 C112.965687,137.793471 115.461323,132.533597 121.60986,132.845444 C127.762012,133.157472 131.160276,139.595545 130.801274,146.012852 C130.488278,151.630611 127.121655,158.152683 122.910664,164.175939 C116.616076,173.176729 111.949653,180.832206 111.949653,180.832206 L111.949653,180.832206 Z" id="path10258-5-9" fill="#D40000"></path>
            <path d="M163.71605,165.902421 C163.71605,165.902421 159.049727,173.557888 152.755139,182.558679 C148.544148,188.581945 145.177525,195.104007 144.864529,200.721776 C144.505527,207.139083 147.903791,213.577156 154.055944,213.889184 C160.20448,214.201031 162.700217,208.941147 163.71605,204.604576 C164.732084,208.941147 167.22782,214.201031 173.376257,213.889184 C179.52851,213.577156 182.926673,207.139083 182.567671,200.721776 C182.254675,195.104007 178.888052,188.581945 174.677061,182.558679 C168.382473,173.557888 163.71605,165.902421 163.71605,165.902421 L163.71605,165.902421 Z" id="path10266-8-9" fill="#D40000"></path>
            <path d="M60.1832557,165.902421 C60.1832557,165.902421 55.5169331,173.557888 49.2223448,182.558679 C45.0113541,188.581945 41.6447312,195.104007 41.3317345,200.721776 C40.9727326,207.139083 44.3709966,213.577156 50.5231494,213.889184 C56.671686,214.201031 59.1673223,208.941147 60.1832557,204.604576 C61.1992895,208.941147 63.6949258,214.201031 69.8434624,213.889184 C75.9957156,213.577156 79.3938792,207.139083 79.0348772,200.721776 C78.7218805,195.104007 75.3552577,188.581945 71.144267,182.558679 C64.8496786,173.557888 60.1832557,165.902421 60.1832557,165.902421 L60.1832557,165.902421 Z" id="path10268-2-7" fill="#D40000"></path>
            <path d="M163.71605,232.042861 C163.71605,232.042861 159.049727,239.698328 152.755139,248.699118 C148.544148,254.722384 145.177525,261.244446 144.864529,266.862205 C144.505527,273.279522 147.903791,279.717585 154.055944,280.029623 C160.20448,280.34147 162.700217,275.081586 163.71605,270.745005 C164.732084,275.081586 167.22782,280.34147 173.376257,280.029623 C179.52851,279.717585 182.926673,273.279522 182.567671,266.862205 C182.254675,261.244446 178.888052,254.722384 174.677061,248.699118 C168.382473,239.698328 163.71605,232.042861 163.71605,232.042861 L163.71605,232.042861 Z" id="path10270-1-4" fill="#D40000"></path>
            <path d="M60.1832557,232.042861 C60.1832557,232.042861 55.5169331,239.698328 49.2223448,248.699118 C45.0113541,254.722384 41.6447312,261.244446 41.3317345,266.862205 C40.9727326,273.279522 44.3709966,279.717585 50.5231494,280.029623 C56.671686,280.34147 59.1673223,275.081586 60.1832557,270.745005 C61.1992895,275.081586 63.6949258,280.34147 69.8434624,280.029623 C75.9957156,279.717585 79.3938792,273.279522 79.0348772,266.862205 C78.7218805,261.244446 75.3552577,254.722384 71.144267,248.699118 C64.8496786,239.698328 60.1832557,232.042861 60.1832557,232.042861 L60.1832557,232.042861 Z" id="path10272-0-7" fill="#D40000"></path>
            <path d="M8.33298426,41.4030332 L11.3518554,40.4457713 C12.4922441,43.4888049 14.7923077,44.3896864 17.2273737,44.1945623 C21.5961686,43.8463485 23.0477459,38.962226 23.3743031,34.6451171 C21.672007,36.4507928 19.1147959,37.3674248 16.9355716,37.2744273 C9.96968772,36.9012336 8.18653074,31.3257998 8.12224388,25.4898327 C7.93189448,20.569093 9.96587069,17.0048925 13.4552413,15.3680568 C15.303991,14.5393059 19.5364776,14.5393059 21.3955734,15.5213471 C25.664121,17.7734508 27.2467833,21.6636943 26.960104,30.9526061 C26.960104,38.594249 25.3375638,47.494317 17.1464124,47.688137 C12.4164057,48.3428311 8.82035908,44.6607535 8.33298426,41.4030332 L8.33298426,41.4030332 L8.33298426,41.4030332 Z M20.1908978,33.0292485 C21.6116376,32.1297714 22.4113059,31.2851699 23.0490518,30.0216283 C23.5709808,28.983307 23.7522898,28.441173 23.6018184,26.2938043 C23.2147913,20.7536835 20.3118375,17.6085233 16.0986369,18.2318169 C13.7483492,18.5853478 12.4627123,19.8999527 11.7247192,22.3445722 C10.3631434,26.8660347 12.0911543,32.154651 15.3258887,33.3724463 C16.7812831,33.9250138 19.031223,33.7665068 20.1908978,33.0292485 L20.1908978,33.0292485 L20.1908978,33.0292485 Z" id="path29-5-8-5-4" fill="#D40000"></path>
            <path d="M215.564111,272.261525 L212.545341,273.218727 C211.404952,270.175724 209.104788,269.274822 206.669722,269.469926 C202.300927,269.81822 200.84945,274.702323 200.522793,279.019422 C202.225089,277.213726 204.7823,276.297124 206.961524,276.390121 C213.927408,276.763325 215.710665,282.338719 215.774952,288.174726 C215.965201,293.095426 213.931225,296.659626 210.441955,298.296422 C208.593105,299.125223 204.360618,299.125223 202.501522,298.143222 C198.233075,295.891018 196.650413,292.000824 196.937092,282.711923 C196.937092,275.070219 198.559632,266.170222 206.750683,265.976422 C211.48069,265.321728 215.076837,269.003725 215.564111,272.261525 L215.564111,272.261525 L215.564111,272.261525 Z M203.706198,280.63522 C202.285559,281.534727 201.48579,282.379319 200.848144,283.64292 C200.326115,284.681222 200.144906,285.223326 200.295277,287.370724 C200.682304,292.910825 203.585359,296.056025 207.798559,295.432722 C210.148847,295.079221 211.434383,293.764526 212.172377,291.319926 C213.534053,286.798524 211.806042,281.509827 208.571207,280.292122 C207.115813,279.739525 204.865873,279.898022 203.706198,280.63522 L203.706198,280.63522 L203.706198,280.63522 Z" id="path29-6-2-3-6-6" fill="#D40000"></path>
        </g>
    </g>
</svg>