<?xml version="1.0" encoding="UTF-8" standalone="no"?>
<svg width="225px" height="313px" viewBox="0 0 225 313" version="1.1" xmlns="http://www.w3.org/2000/svg" xmlns:xlink="http://www.w3.org/1999/xlink">
    <!-- Generator: Sketch 39.1 (31720) - http://www.bohemiancoding.com/sketch -->
    <title>S10</title>
    <desc>Created with Sketch.</desc>
    <defs></defs>
    <g id="Page-3" stroke="none" stroke-width="1" fill="none" fill-rule="evenodd">
        <g id="S10" transform="translate(0.546714, -0.185344)">
            <rect id="rect5473" stroke="#000000" stroke-width="0.996734187" fill="#FFFFFF" x="0.561304709" y="0.733726925" width="223.228352" height="311.81103" rx="10.582486"></rect>
            <path d="M60.4093646,33.4287765 C51.1833956,46.5859013 41.3116449,54.1573496 41.1476129,64.4221129 C41.0923664,67.7460148 42.889787,73.3955256 48.5188054,74.4768945 C52.1708017,75.1752182 57.1988383,72.2194136 57.3039071,66.2143656 C57.2878354,65.0188215 58.5697557,65.0498909 58.5578024,66.6880909 C58.3857346,71.424812 56.8863439,76.9396519 54.3663991,81.428781 L66.4523301,81.428781 C63.9323854,76.9396519 62.4329947,71.424812 62.2609268,66.6880909 C62.2488731,65.0498909 63.5308938,65.0188215 63.5148221,66.2143656 C63.619891,72.2194136 68.6479276,75.1752182 72.2999239,74.4768945 C77.9289422,73.3955256 79.7260615,67.7460148 79.6710159,64.4221129 C79.5070844,54.1573496 69.6353337,46.5859013 60.4093646,33.4287765 L60.4093646,33.4287765 Z" id="path7293-3-2" fill="#000000"></path>
            <path d="M17.7788345,50.7071838 C13.4682996,56.1893192 8.8560182,59.3440801 8.77947665,63.6210706 C8.75336011,65.0060206 9.59340865,67.3599901 12.2233442,67.8105613 C13.9296583,68.101532 16.2788411,66.8699426 16.3279602,64.3678393 C16.3179154,63.8696859 16.9193994,63.8826373 16.9137743,64.5652206 C16.8334157,66.5388636 16.1328898,68.8367136 14.9554356,70.7071765 L20.6022333,70.7071765 C19.4248796,68.8367136 18.7242532,66.5388636 18.6439951,64.5652206 C18.6339503,63.8826373 19.2372423,63.8696859 19.2298092,64.3678393 C19.2790288,66.8699426 21.6280106,68.101532 23.3343247,67.8105613 C25.9643607,67.3599901 26.8040075,65.0060206 26.7782927,63.6210706 C26.7009476,59.3440801 22.0893694,56.1893192 17.7788345,50.7071838 L17.7788345,50.7071838 Z" id="path7295-4-8" fill="#000000"></path>
            <path d="M60.4093646,213.709649 C51.1833956,200.552525 41.3116449,192.981076 41.1476129,182.716313 C41.0923664,179.392421 42.889787,173.7429 48.5188054,172.661541 C52.1708017,171.963208 57.1988383,174.919022 57.3039071,180.92406 C57.2878354,182.119604 58.5697557,182.088535 58.5578024,180.450335 C58.3857346,175.713614 56.8863439,170.198774 54.3663991,165.709645 L66.4523301,165.709645 C63.9323854,170.198774 62.4329947,175.713614 62.2609268,180.450335 C62.2488731,182.088535 63.5308938,182.119604 63.5148221,180.92406 C63.619891,174.919022 68.6479276,171.963208 72.2999239,172.661541 C77.9289422,173.7429 79.7260615,179.392421 79.6710159,182.716313 C79.5070844,192.981076 69.6353337,200.552525 60.4093646,213.709649 L60.4093646,213.709649 Z" id="path7297-5-1" fill="#000000"></path>
            <path d="M206.573392,262.571812 C202.262757,257.089676 197.650576,253.934915 197.573934,249.657925 C197.547817,248.272975 198.387866,245.919005 201.017902,245.468434 C202.724216,245.177463 205.073399,246.409053 205.122417,248.911156 C205.112373,249.40931 205.713857,249.396358 205.708232,248.713775 C205.627873,246.740132 204.927347,244.442282 203.749993,242.571819 L209.396791,242.571819 C208.219337,244.442282 207.518811,246.740132 207.438452,248.713775 C207.428408,249.396358 208.0318,249.40931 208.024266,248.911156 C208.073486,246.409053 210.422568,245.177463 212.128882,245.468434 C214.758818,245.919005 215.598465,248.272975 215.57275,249.657925 C215.495405,253.934915 210.883827,257.089676 206.573392,262.571812 L206.573392,262.571812 Z" id="path7299-3-5" fill="#000000"></path>
            <path d="M163.942159,33.4287765 C154.71619,46.5859013 144.844439,54.1573496 144.680508,64.4221129 C144.625261,67.7460148 146.422581,73.3955256 152.0516,74.4768945 C155.703596,75.1752182 160.731633,72.2194136 160.836701,66.2143656 C160.82063,65.0188215 162.10255,65.0498909 162.090597,66.6880909 C161.918529,71.424812 160.419138,76.9396519 157.899193,81.428781 L169.985124,81.428781 C167.46518,76.9396519 165.965789,71.424812 165.793721,66.6880909 C165.781667,65.0498909 167.063688,65.0188215 167.047616,66.2143656 C167.152685,72.2194136 172.180722,75.1752182 175.832718,74.4768945 C181.461736,73.3955256 183.258856,67.7460148 183.203911,64.4221129 C183.039879,54.1573496 173.168128,46.5859013 163.942159,33.4287765 L163.942159,33.4287765 Z" id="path7301-4-0" fill="#000000"></path>
            <path d="M60.4093646,99.5692056 C51.1833956,112.72633 41.3116449,120.297779 41.1476129,130.562542 C41.0923664,133.886434 42.889787,139.535955 48.5188054,140.617324 C52.1708017,141.315647 57.1988383,138.359843 57.3039071,132.354795 C57.2878354,131.159251 58.5697557,131.19032 58.5578024,132.82852 C58.3857346,137.565241 56.8863439,143.080081 54.3663991,147.56921 L66.4523301,147.56921 C63.9323854,143.080081 62.4329947,137.565241 62.2609268,132.82852 C62.2488731,131.19032 63.5308938,131.159251 63.5148221,132.354795 C63.619891,138.359843 68.6479276,141.315647 72.2999239,140.617324 C77.9289422,139.535955 79.7260615,133.886434 79.6710159,130.562542 C79.5070844,120.297779 69.6353337,112.72633 60.4093646,99.5692056 L60.4093646,99.5692056 Z" id="path7303-7-8" fill="#000000"></path>
            <path d="M112.175762,76.0692077 C102.949793,89.2263326 93.078042,96.7977809 92.9141105,107.062544 C92.858864,110.386436 94.6561842,116.035957 100.285203,117.117316 C103.937199,117.815649 108.965235,114.859835 109.070304,108.854797 C109.054233,107.659253 110.336153,107.690322 110.3242,109.328522 C110.152132,114.065243 108.652741,119.580083 106.132796,124.069212 L118.218727,124.069212 C115.698783,119.580083 114.199392,114.065243 114.027324,109.328522 C114.01527,107.690322 115.297291,107.659253 115.281219,108.854797 C115.386288,114.859835 120.414325,117.815649 124.066321,117.117316 C129.695339,116.035957 131.492459,110.386436 131.437513,107.062544 C131.273481,96.7977809 121.401731,89.2263326 112.175762,76.0692077 L112.175762,76.0692077 Z" id="path7305-6-7" fill="#000000"></path>
            <path d="M163.942159,99.5692056 C154.71619,112.72633 144.844439,120.297779 144.680508,130.562542 C144.625261,133.886434 146.422581,139.535955 152.0516,140.617324 C155.703596,141.315647 160.731633,138.359843 160.836701,132.354795 C160.82063,131.159251 162.10255,131.19032 162.090597,132.82852 C161.918529,137.565241 160.419138,143.080081 157.899193,147.56921 L169.985124,147.56921 C167.46518,143.080081 165.965789,137.565241 165.793721,132.82852 C165.781667,131.19032 167.063688,131.159251 167.047616,132.354795 C167.152685,138.359843 172.180722,141.315647 175.832718,140.617324 C181.461736,139.535955 183.258856,133.886434 183.203911,130.562542 C183.039879,120.297779 173.168128,112.72633 163.942159,99.5692056 L163.942159,99.5692056 Z" id="path7309-8-5" fill="#000000"></path>
            <path d="M60.4093646,279.850089 C51.1833956,266.692964 41.3116449,259.121515 41.1476129,248.856752 C41.0923664,245.53286 42.889787,239.883339 48.5188054,238.801981 C52.1708017,238.103647 57.1988383,241.059451 57.3039071,247.064499 C57.2878354,248.260043 58.5697557,248.228974 58.5578024,246.590774 C58.3857346,241.854053 56.8863439,236.339213 54.3663991,231.850084 L66.4523301,231.850084 C63.9323854,236.339213 62.4329947,241.854053 62.2609268,246.590774 C62.2488731,248.228974 63.5308938,248.260043 63.5148221,247.064499 C63.619891,241.059451 68.6479276,238.103647 72.2999239,238.801981 C77.9289422,239.883339 79.7260615,245.53286 79.6710159,248.856752 C79.5070844,259.121515 69.6353337,266.692964 60.4093646,279.850089 L60.4093646,279.850089 Z" id="path7313-6-8" fill="#000000"></path>
            <path d="M163.942159,279.850089 C154.71619,266.692964 144.844439,259.121515 144.680508,248.856752 C144.625261,245.53286 146.422581,239.883339 152.0516,238.801981 C155.703596,238.103647 160.731633,241.059451 160.836701,247.064499 C160.82063,248.260043 162.10255,248.228974 162.090597,246.590774 C161.918529,241.854053 160.419138,236.339213 157.899193,231.850084 L169.985124,231.850084 C167.46518,236.339213 165.965789,241.854053 165.793721,246.590774 C165.781667,248.228974 167.063688,248.260043 167.047616,247.064499 C167.152685,241.059451 172.180722,238.103647 175.832718,238.801981 C181.461736,239.883339 183.258856,245.53286 183.203911,248.856752 C183.039879,259.121515 173.168128,266.692964 163.942159,279.850089 L163.942159,279.850089 Z" id="path7315-7-3" fill="#000000"></path>
            <path d="M112.175762,237.209657 C102.949793,224.052532 93.078042,216.481084 92.9141105,206.216331 C92.858864,202.892429 94.6561842,197.242908 100.285203,196.161549 C103.937199,195.463216 108.965235,198.41903 109.070304,204.424068 C109.054233,205.619612 110.336153,205.588543 110.3242,203.950343 C110.152132,199.213632 108.652741,193.698792 106.132796,189.209643 L118.218727,189.209643 C115.698783,193.698792 114.199392,199.213632 114.027324,203.950343 C114.01527,205.588543 115.297291,205.619612 115.281219,204.424068 C115.386288,198.41903 120.414325,195.463216 124.066321,196.161549 C129.695339,197.242908 131.492459,202.892429 131.437513,206.216331 C131.273481,216.481084 121.401731,224.052532 112.175762,237.209657 L112.175762,237.209657 Z" id="path7317-0-2" fill="#000000"></path>
            <path d="M163.942159,213.709649 C154.71619,200.552535 144.844439,192.981086 144.680508,182.716323 C144.625261,179.392431 146.422581,173.74291 152.0516,172.661551 C155.703596,171.963218 160.731633,174.919032 160.836701,180.92407 C160.82063,182.119614 162.10255,182.088545 162.090597,180.450345 C161.918529,175.713624 160.419138,170.198774 157.899193,165.709645 L169.985124,165.709645 C167.46518,170.198774 165.965789,175.713624 165.793721,180.450345 C165.781667,182.088545 167.063688,182.119614 167.047616,180.92407 C167.152685,174.919032 172.180722,171.963218 175.832718,172.661551 C181.461736,173.74291 183.258856,179.392431 183.203911,182.716323 C183.039879,192.981086 173.168128,200.552535 163.942159,213.709649 L163.942159,213.709649 Z" id="path7319-5-6" fill="#000000"></path>
            <polygon id="path31-5-4-7" fill="#000000" points="7.75862129 47.5716644 7.75862129 14.5723115 10.9574956 14.5723115 10.9574956 47.5716644"></polygon>
            <path d="M20.4394067,14.5716594 C17.3600658,14.5716594 14.8851219,17.3842559 14.8851219,20.8777102 L14.8851219,41.2662758 C14.8851219,44.7597401 17.3613716,47.5710123 20.4394067,47.5710123 L22.2367269,47.5710123 C25.3159674,47.5710123 27.7960342,44.7597401 27.7960342,41.2662758 L27.7960342,20.8777102 C27.7960342,17.3842559 25.3146616,14.5716594 22.2367269,14.5716594 L20.4394067,14.5716594 L20.4394067,14.5716594 Z M21.3688542,17.6919501 C23.1868667,17.6919501 24.6486898,19.0864606 24.6486898,20.8305694 L24.6486898,41.4888678 C24.6486898,43.2329866 23.1868667,44.640579 21.3688542,44.640579 C19.5509421,44.640579 18.0839962,43.2329866 18.0839962,41.4888678 L18.0839962,20.8305694 C18.0839962,19.0877748 19.5509421,17.6919501 21.3688542,17.6919501 L21.3688542,17.6919501 L21.3688542,17.6919501 Z" id="path33-4-6-8" fill="#000000"></path>
            <g id="g8583-6-9" transform="translate(206.641194, 282.142105) scale(-1, 1) translate(-206.641194, -282.142105) translate(196.141194, 265.142106)" fill="#000000">
                <polygon id="path31-5-5-6-7" points="0.550600021 0.565219986 0.550600021 33.5645692 3.74940015 33.5645692 3.74940015 0.565219986"></polygon>
                <path d="M13.2313005,33.5652192 C10.1520004,33.5652192 7.6771003,30.7526293 7.6771003,27.2591693 L7.6771003,6.87060983 C7.6771003,3.37713992 10.1533004,0.565869986 13.2313005,0.565869986 L15.0287006,0.565869986 C18.1079007,0.565869986 20.5880008,3.37713992 20.5880008,6.87060983 L20.5880008,27.2591693 C20.5880008,30.7526293 18.1066007,33.5652192 15.0287006,33.5652192 L13.2313005,33.5652192 L13.2313005,33.5652192 Z M14.1608005,30.4449293 C15.9788006,30.4449293 17.4406007,29.0504193 17.4406007,27.3063093 L17.4406007,6.64800984 C17.4406007,4.90388988 15.9788006,3.49629992 14.1608005,3.49629992 C12.3429005,3.49629992 10.8759004,4.90388988 10.8759004,6.64800984 L10.8759004,27.3063093 C10.8759004,29.0491093 12.3429005,30.4449293 14.1608005,30.4449293 L14.1608005,30.4449293 L14.1608005,30.4449293 Z" id="path33-4-3-7-9"></path>
            </g>
        </g>
    </g>
</svg>