<?xml version="1.0" encoding="UTF-8" standalone="no"?>
<svg width="225px" height="313px" viewBox="0 0 225 313" version="1.1" xmlns="http://www.w3.org/2000/svg" xmlns:xlink="http://www.w3.org/1999/xlink">
    <!-- Generator: Sketch 39.1 (31720) - http://www.bohemiancoding.com/sketch -->
    <title>S3</title>
    <desc>Created with Sketch.</desc>
    <defs></defs>
    <g id="Page-3" stroke="none" stroke-width="1" fill="none" fill-rule="evenodd">
        <g id="S3" transform="translate(-0.455241, -0.185344)">
            <rect id="rect5298" stroke="#000000" stroke-width="0.996734187" fill="#FFFFFF" x="0.988109239" y="0.733726925" width="223.228352" height="311.81103" rx="10.582486"></rect>
            <path d="M18.2052372,50.7071537 C13.8947023,56.1892891 9.28242093,59.34405 9.20587938,63.6210405 C9.17976284,65.0059905 10.0198114,67.35996 12.6497469,67.8105312 C14.356061,68.1015019 16.7052438,66.8699125 16.754363,64.3678092 C16.7443181,63.8696558 17.3458021,63.8826072 17.340177,64.5651905 C17.2598185,66.5388335 16.5592925,68.8366835 15.3818384,70.7071464 L21.0286361,70.7071464 C19.8512824,68.8366835 19.1506559,66.5388335 19.0703978,64.5651905 C19.060353,63.8826072 19.6636451,63.8696558 19.6562119,64.3678092 C19.7054315,66.8699125 22.0545138,68.1015019 23.7607275,67.8105312 C26.3907635,67.35996 27.2304102,65.0059905 27.2046955,63.6210405 C27.1273503,59.34405 22.5157721,56.1892891 18.2052372,50.7071537 L18.2052372,50.7071537 Z" id="path6816-2-4" fill="#000000"></path>
            <path d="M206.999795,262.571782 C202.68916,257.089646 198.076979,253.934885 198.000337,249.657895 C197.97422,248.272945 198.814269,245.918975 201.444305,245.468404 C203.150619,245.177433 205.499801,246.409023 205.548921,248.911126 C205.538876,249.409279 206.140259,249.396328 206.134634,248.713745 C206.054276,246.740102 205.35375,244.442252 204.176396,242.571789 L209.823194,242.571789 C208.64574,244.442252 207.945214,246.740102 207.864855,248.713745 C207.85481,249.396328 208.458203,249.409279 208.450669,248.911126 C208.499889,246.409023 210.848971,245.177433 212.555285,245.468404 C215.185321,245.918975 216.024867,248.272945 215.999153,249.657895 C215.921808,253.934885 211.31033,257.089646 206.999795,262.571782 L206.999795,262.571782 Z" id="path6820-0-2" fill="#000000"></path>
            <path d="M112.602164,33.4287464 C103.376195,46.5858712 93.5044448,54.1573195 93.3405132,64.4220828 C93.2852667,67.7459847 95.0825869,73.3954955 100.711605,74.4768644 C104.363602,75.1751881 109.391638,72.2193835 109.496707,66.2143356 C109.480635,65.0187914 110.762556,65.0498608 110.750602,66.6880608 C110.578534,71.4247819 109.079144,76.9396218 106.559199,81.4287509 L118.64513,81.4287509 C116.125185,76.9396218 114.625795,71.4247819 114.453827,66.6880608 C114.441773,65.0498608 115.723694,65.0187914 115.707722,66.2143356 C115.812691,72.2193835 120.840828,75.1751881 124.492824,74.4768644 C130.121742,73.3954955 131.918861,67.7459847 131.863916,64.4220828 C131.699884,54.1573195 121.828134,46.5858712 112.602164,33.4287464 L112.602164,33.4287464 Z" id="path6828-8-3" fill="#000000"></path>
            <path d="M112.602164,279.850058 C103.376195,266.692934 93.5044448,259.121485 93.3405132,248.856722 C93.2852667,245.53283 95.0825869,239.883309 100.711605,238.80195 C104.363602,238.103617 109.391638,241.059421 109.496707,247.064469 C109.480635,248.260013 110.762556,248.228944 110.750602,246.590744 C110.578534,241.854023 109.079144,236.339183 106.559199,231.850054 L118.64513,231.850054 C116.125185,236.339183 114.625795,241.854023 114.453827,246.590744 C114.441773,248.228944 115.723694,248.260013 115.707722,247.064469 C115.812691,241.059421 120.840828,238.103617 124.492824,238.80195 C130.121742,239.883309 131.918861,245.53283 131.863916,248.856722 C131.699884,259.121485 121.828134,266.692934 112.602164,279.850058 L112.602164,279.850058 Z" id="path6842-0-7" fill="#000000"></path>
            <path d="M112.602164,132.639395 C103.376195,145.79652 93.5044448,153.367968 93.3405132,163.632732 C93.2852667,166.956623 95.0825869,172.606144 100.711605,173.687503 C104.363602,174.385837 109.391638,171.430032 109.496707,165.424984 C109.480635,164.22944 110.762556,164.26051 110.750602,165.89871 C110.578534,170.635431 109.079144,176.150271 106.559199,180.6394 L118.64513,180.6394 C116.125185,176.150271 114.625795,170.635431 114.453827,165.89871 C114.441773,164.26051 115.723694,164.22944 115.707722,165.424984 C115.812691,171.430032 120.840828,174.385837 124.492824,173.687503 C130.121742,172.606144 131.918861,166.956623 131.863916,163.632732 C131.699884,153.367968 121.828134,145.79652 112.602164,132.639395 L112.602164,132.639395 Z" id="path6844-7-0" fill="#000000"></path>
            <path d="M7.49378953,40.3379364 L10.0343764,38.4693394 C12.2393155,42.0597438 14.7052191,44.4245379 18.4773515,44.0186396 C24.1370065,43.6297457 26.4820709,37.6968385 25.2979872,33.2265396 C24.1524756,29.2159412 19.4660634,27.262242 15.7401372,29.4005416 C14.8608134,29.9072424 14.0123272,30.321046 13.8463867,30.321046 C13.4555426,30.321046 12.5709955,28.561237 12.6918348,28.0243397 C15.1924934,24.3724386 21.2647898,17.9747447 21.2647898,17.9747447 L11.7776554,17.9747447 L11.7776554,22.2590386 L8.13668833,22.2590386 L8.13668833,14.5716394 L26.6787485,14.5716394 L26.6787485,17.1799424 C26.6787485,17.1799424 21.7108804,22.332343 20.0690541,25.1541389 C24.1125976,25.302042 27.3717409,27.8645385 28.5417619,31.9158371 C29.2245085,34.0488398 28.9184427,38.9276454 28.0248553,41.0305418 C26.532295,44.5358439 22.4553023,47.3798409 18.7281707,47.5435445 C12.4706478,47.9638389 9.15103465,43.5799363 7.49378953,40.3379364 L7.49378953,40.3379364 L7.49378953,40.3379364 Z" id="path17-9-11-4" fill="#000000"></path>
            <path d="M217.70838,272.940999 L215.167743,274.809596 C212.962904,271.219191 210.497,268.854397 206.724768,269.260296 C201.065213,269.6492 198.720048,275.582097 199.904232,280.052396 C201.049644,284.062994 205.736056,286.016693 209.461982,283.878394 C210.341406,283.371693 211.189892,282.957899 211.355833,282.957899 C211.746576,282.957899 212.631224,284.717698 212.510284,285.254596 C210.009726,288.906497 203.93743,295.304191 203.93743,295.304191 L213.424464,295.304191 L213.424464,291.019897 L217.065511,291.019897 L217.065511,298.707296 L198.523371,298.707296 L198.523371,296.098993 C198.523371,296.098993 203.491239,290.946592 205.133065,288.124796 C201.089622,287.976893 197.830378,285.414397 196.660357,281.363098 C195.977711,279.230095 196.283676,274.3513 197.177264,272.248393 C198.669925,268.743091 202.746917,265.899094 206.473948,265.735391 C212.731471,265.315096 216.051084,269.698999 217.70838,272.940999 L217.70838,272.940999 L217.70838,272.940999 Z" id="path17-9-1-0-8" fill="#000000"></path>
        </g>
    </g>
</svg>