<?xml version="1.0" encoding="UTF-8" standalone="no"?>
<svg width="225px" height="313px" viewBox="0 0 225 313" version="1.1" xmlns="http://www.w3.org/2000/svg" xmlns:xlink="http://www.w3.org/1999/xlink">
    <!-- Generator: Sketch 39.1 (31720) - http://www.bohemiancoding.com/sketch -->
    <title>S6</title>
    <desc>Created with Sketch.</desc>
    <defs></defs>
    <g id="Page-3" stroke="none" stroke-width="1" fill="none" fill-rule="evenodd">
        <g id="S6" transform="translate(0.546223, -0.185344)">
            <rect id="rect5362" stroke="#000000" stroke-width="0.996734187" fill="#FFFFFF" x="0.661552043" y="0.733726925" width="223.228352" height="311.81103" rx="10.582486"></rect>
            <path d="M60.5095115,33.4287464 C51.283442,46.5858712 41.4117918,54.1573195 41.2477598,64.4220828 C41.1925133,67.7459847 42.9898335,73.3954955 48.6188518,74.4768644 C52.2708481,75.1751881 57.2989852,72.2193835 57.4039536,66.2143356 C57.3878819,65.0187914 58.6699026,65.0498608 58.6578488,66.6880608 C58.4858815,71.4247819 56.9864907,76.9396218 54.4664455,81.4287509 L66.552477,81.4287509 C64.0324318,76.9396218 62.5330411,71.4247819 62.3610737,66.6880608 C62.3490199,65.0498608 63.6309403,65.0187914 63.614969,66.2143356 C63.7199374,72.2193835 68.7480744,75.1751881 72.4000707,74.4768644 C78.0290891,73.3954955 79.8262084,67.7459847 79.7711628,64.4220828 C79.6071308,54.1573195 69.7354805,46.5858712 60.5095115,33.4287464 L60.5095115,33.4287464 Z" id="path7018-7-4" fill="#000000"></path>
            <path d="M17.8789814,50.7071537 C13.568346,56.1892891 8.95616508,59.34405 8.87952308,63.6210405 C8.85340654,65.0059905 9.69345509,67.35996 12.3234911,67.8105312 C14.0298052,68.1015019 16.3789879,66.8699125 16.4281071,64.3678092 C16.4180623,63.8696558 17.0194459,63.8826072 17.0138207,64.5651905 C16.9334622,66.5388335 16.2329362,68.8366835 15.0555825,70.7071464 L20.7023802,70.7071464 C19.5249261,68.8366835 18.8244001,66.5388335 18.7440415,64.5651905 C18.7339967,63.8826072 19.3373892,63.8696558 19.3298556,64.3678092 C19.3790752,66.8699125 21.7281575,68.1015019 23.4344716,67.8105312 C26.0645076,67.35996 26.9040539,65.0059905 26.8783392,63.6210405 C26.800994,59.34405 22.1895162,56.1892891 17.8789814,50.7071537 L17.8789814,50.7071537 Z" id="path7020-0-8" fill="#000000"></path>
            <path d="M206.673439,262.571782 C202.362904,257.089646 197.750723,253.934885 197.674081,249.657895 C197.647964,248.272945 198.488013,245.918975 201.117948,245.468404 C202.824262,245.177433 205.173445,246.409023 205.222564,248.911126 C205.21252,249.409279 205.814004,249.396328 205.808378,248.713745 C205.72802,246.740102 205.027494,244.442252 203.85004,242.571789 L209.496837,242.571789 C208.319484,244.442252 207.618857,246.740102 207.538599,248.713745 C207.528554,249.396328 208.131846,249.409279 208.124413,248.911126 C208.173633,246.409023 210.522715,245.177433 212.228929,245.468404 C214.858965,245.918975 215.698612,248.272945 215.672897,249.657895 C215.595552,253.934885 210.983973,257.089646 206.673439,262.571782 L206.673439,262.571782 Z" id="path7024-7-1" fill="#000000"></path>
            <path d="M164.042306,33.4287464 C154.816236,46.5858712 144.944586,54.1573195 144.780554,64.4220828 C144.725308,67.7459847 146.522628,73.3954955 152.151646,74.4768644 C155.803642,75.1751881 160.831779,72.2193835 160.936748,66.2143356 C160.920676,65.0187914 162.202697,65.0498608 162.190643,66.6880608 C162.018676,71.4247819 160.519285,76.9396218 157.99924,81.4287509 L170.085271,81.4287509 C167.565226,76.9396218 166.065835,71.4247819 165.893868,66.6880608 C165.881814,65.0498608 167.163735,65.0187914 167.147763,66.2143356 C167.252732,72.2193835 172.280869,75.1751881 175.932865,74.4768644 C181.561883,73.3954955 183.359003,67.7459847 183.303957,64.4220828 C183.140025,54.1573195 173.268275,46.5858712 164.042306,33.4287464 L164.042306,33.4287464 Z" id="path7026-2-6" fill="#000000"></path>
            <path d="M60.5095115,132.639395 C51.283442,145.79652 41.4117918,153.367968 41.2477598,163.632732 C41.1925133,166.956623 42.9898335,172.606144 48.6188518,173.687503 C52.2708481,174.385837 57.2989852,171.430032 57.4039536,165.424984 C57.3878819,164.22944 58.6699026,164.26051 58.6578488,165.89871 C58.4858815,170.635431 56.9864907,176.150271 54.4664455,180.6394 L66.552477,180.6394 C64.0324318,176.150271 62.5330411,170.635431 62.3610737,165.89871 C62.3490199,164.26051 63.6309403,164.22944 63.614969,165.424984 C63.7199374,171.430032 68.7480744,174.385837 72.4000707,173.687503 C78.0290891,172.606144 79.8262084,166.956623 79.7711628,163.632732 C79.6071308,153.367968 69.7354805,145.79652 60.5095115,132.639395 L60.5095115,132.639395 Z" id="path7036-9-6" fill="#000000"></path>
            <path d="M60.5095115,279.850058 C51.283442,266.692934 41.4117918,259.121485 41.2477598,248.856722 C41.1925133,245.53283 42.9898335,239.883309 48.6188518,238.80195 C52.2708481,238.103617 57.2989852,241.059421 57.4039536,247.064469 C57.3878819,248.260013 58.6699026,248.228944 58.6578488,246.590744 C58.4858815,241.854023 56.9864907,236.339183 54.4664455,231.850054 L66.552477,231.850054 C64.0324318,236.339183 62.5330411,241.854023 62.3610737,246.590744 C62.3490199,248.228944 63.6309403,248.260013 63.614969,247.064469 C63.7199374,241.059421 68.7480744,238.103617 72.4000707,238.80195 C78.0290891,239.883309 79.8262084,245.53283 79.7711628,248.856722 C79.6071308,259.121485 69.7354805,266.692934 60.5095115,279.850058 L60.5095115,279.850058 Z" id="path7038-9-6" fill="#000000"></path>
            <path d="M164.042306,279.850058 C154.816236,266.692934 144.944586,259.121485 144.780554,248.856722 C144.725308,245.53283 146.522628,239.883309 152.151646,238.80195 C155.803642,238.103617 160.831779,241.059421 160.936748,247.064469 C160.920676,248.260013 162.202697,248.228944 162.190643,246.590744 C162.018676,241.854023 160.519285,236.339183 157.99924,231.850054 L170.085271,231.850054 C167.565226,236.339183 166.065835,241.854023 165.893868,246.590744 C165.881814,248.228944 167.163735,248.260013 167.147763,247.064469 C167.252732,241.059421 172.280869,238.103617 175.932865,238.80195 C181.561883,239.883309 183.359003,245.53283 183.303957,248.856722 C183.140025,259.121485 173.268275,266.692934 164.042306,279.850058 L164.042306,279.850058 Z" id="path7040-0-9" fill="#000000"></path>
            <path d="M164.042306,132.639395 C154.816236,145.79652 144.944586,153.367968 144.780554,163.632732 C144.725308,166.956623 146.522628,172.606144 152.151646,173.687503 C155.803642,174.385837 160.831779,171.430032 160.936748,165.424984 C160.920676,164.22944 162.202697,164.26051 162.190643,165.89871 C162.018676,170.635431 160.519285,176.150271 157.99924,180.6394 L170.085271,180.6394 C167.565226,176.150271 166.065835,170.635431 165.893868,165.89871 C165.881814,164.26051 167.163735,164.22944 167.147763,165.424984 C167.252732,171.430032 172.280869,174.385837 175.932865,173.687503 C181.561883,172.606144 183.359003,166.956623 183.303957,163.632732 C183.140025,153.367968 173.268275,145.79652 164.042306,132.639395 L164.042306,132.639395 Z" id="path7050-2-9" fill="#000000"></path>
            <path d="M8.18653075,37.4188091 C7.7803181,34.6414153 7.79056382,27.461409 8.12224388,25.3374152 C9.14701672,18.830512 11.6322064,15.852707 15.7951828,14.8810089 C19.8386259,13.9343108 25.5188728,14.9884125 26.7646318,20.4268079 L23.3845488,20.4928191 C21.5563911,16.8157174 16.9304487,17.7978187 14.3243194,19.3980172 C12.2454428,20.6722229 11.3055487,25.9927213 11.7079443,26.3200182 C11.7079443,26.3200182 15.639689,23.4077228 18.7394209,23.6225198 C25.3632785,24.3126172 28.0953699,30.0573224 27.8638368,35.4813218 C27.6530964,42.0065236 25.5843651,47.224825 18.5632347,47.5719253 C11.8879476,47.31392 8.82939942,43.6748198 8.18653074,37.4193208 L8.18653074,37.4193208 L8.18653075,37.4188091 Z M24.6496943,35.6955069 C24.6858557,31.168607 22.6311871,27.7757144 18.7394209,27.4038148 C14.8515722,27.0293069 10.9288679,30.8242154 11.2001785,35.4388159 C11.4714892,40.0732096 13.2649924,43.9715088 17.9808359,43.950612 C23.0528688,43.9306481 24.6252854,38.9182152 24.6496943,35.6955069 L24.6496943,35.6955069 L24.6496943,35.6955069 Z" id="path23-1-9-8" fill="#000000"></path>
            <path d="M216.362976,275.860126 C216.769289,278.63753 216.758943,285.817526 216.427263,287.94152 C215.402591,294.448423 212.917401,297.426228 208.754425,298.397926 C204.710881,299.344624 199.030634,298.290523 197.784875,292.852127 L201.164958,292.786116 C202.993216,296.463218 207.619058,295.481117 210.225188,293.880918 C212.304064,292.606712 213.243958,287.286214 212.841563,286.958917 C212.841563,286.958917 208.909918,289.871212 205.810086,289.656415 C199.186228,288.966318 196.454137,283.221613 196.68567,277.797613 C196.896511,271.272412 198.965142,266.05412 205.986272,265.70702 C212.661559,265.965015 215.720208,269.604115 216.362976,275.859614 L216.362976,275.859614 L216.362976,275.860126 Z M199.899913,277.583428 C199.863752,282.110328 201.91842,285.503221 205.810086,285.87512 C209.697935,286.249628 213.620639,282.45473 213.349328,277.840129 C213.078018,273.205726 211.284515,269.307426 206.568671,269.328323 C201.496638,269.348287 199.924322,274.36073 199.899913,277.583428 L199.899913,277.583428 L199.899913,277.583428 Z" id="path23-1-5-6-4" fill="#000000"></path>
        </g>
    </g>
</svg>