<?xml version="1.0" encoding="UTF-8" standalone="no"?>
<svg width="226px" height="313px" viewBox="0 0 226 313" version="1.1" xmlns="http://www.w3.org/2000/svg" xmlns:xlink="http://www.w3.org/1999/xlink">
    <!-- Generator: Sketch 39.1 (31720) - http://www.bohemiancoding.com/sketch -->
    <title>S7</title>
    <desc>Created with Sketch.</desc>
    <defs></defs>
    <g id="Page-3" stroke="none" stroke-width="1" fill="none" fill-rule="evenodd">
        <g id="S7" transform="translate(0.545250, -0.185344)">
            <rect id="rect5386" stroke="#000000" stroke-width="0.996734187" fill="#FFFFFF" x="0.887460112" y="0.733726925" width="223.228352" height="311.81103" rx="10.582486"></rect>
            <path d="M60.7358214,33.4287464 C51.5097519,46.5858712 41.6381016,54.1573195 41.4740697,64.4220828 C41.4188232,67.7459847 43.2161433,73.3954955 48.8451617,74.4768644 C52.497158,75.1751881 57.525295,72.2193835 57.6302634,66.2143356 C57.6141917,65.0187914 58.8962125,65.0498608 58.8841587,66.6880608 C58.7121913,71.4247819 57.2128006,76.9396218 54.6927554,81.4287509 L66.7787869,81.4287509 C64.2587417,76.9396218 62.759351,71.4247819 62.5873836,66.6880608 C62.5753298,65.0498608 63.8572501,65.0187914 63.8412789,66.2143356 C63.9462473,72.2193835 68.9743843,75.1751881 72.6263806,74.4768644 C78.255399,73.3954955 80.0525182,67.7459847 79.9974726,64.4220828 C79.8334407,54.1573195 69.9617904,46.5858712 60.7358214,33.4287464 L60.7358214,33.4287464 Z" id="path7086-8-0" fill="#000000"></path>
            <path d="M18.1052912,50.7071537 C13.7946559,56.1892891 9.18247495,59.34405 9.10583295,63.6210405 C9.07971641,65.0059905 9.91976495,67.35996 12.549801,67.8105312 C14.256115,68.1015019 16.6052978,66.8699125 16.654417,64.3678092 C16.6443722,63.8696558 17.2457557,63.8826072 17.2401306,64.5651905 C17.159772,66.5388335 16.4592461,68.8366835 15.2818924,70.7071464 L20.9286901,70.7071464 C19.7512359,68.8366835 19.05071,66.5388335 18.9703514,64.5651905 C18.9603066,63.8826072 19.5636991,63.8696558 19.5561655,64.3678092 C19.6053851,66.8699125 21.9544674,68.1015019 23.6607815,67.8105312 C26.2908175,67.35996 27.1303638,65.0059905 27.104649,63.6210405 C27.0273039,59.34405 22.4157257,56.1892891 18.1052912,50.7071537 L18.1052912,50.7071537 Z" id="path7088-9-3" fill="#000000"></path>
            <path d="M206.899748,262.571782 C202.589214,257.089646 197.976932,253.934885 197.900391,249.657895 C197.874274,248.272945 198.714323,245.918975 201.344258,245.468404 C203.050572,245.177433 205.399755,246.409023 205.448874,248.911126 C205.438829,249.409279 206.040313,249.396328 206.034688,248.713745 C205.95433,246.740102 205.253804,244.442252 204.07635,242.571789 L209.723147,242.571789 C208.545794,244.442252 207.845167,246.740102 207.764909,248.713745 C207.754864,249.396328 208.358156,249.409279 208.350723,248.911126 C208.399943,246.409023 210.749025,245.177433 212.455239,245.468404 C215.085275,245.918975 215.924921,248.272945 215.899207,249.657895 C215.821862,253.934885 211.210283,257.089646 206.899748,262.571782 L206.899748,262.571782 Z" id="path7092-7-0" fill="#000000"></path>
            <path d="M164.268616,33.4287464 C155.042546,46.5858712 145.170896,54.1573195 145.006864,64.4220828 C144.951617,67.7459847 146.748938,73.3954955 152.377956,74.4768644 C156.029952,75.1751881 161.058089,72.2193835 161.163058,66.2143356 C161.146986,65.0187914 162.429007,65.0498608 162.416953,66.6880608 C162.244986,71.4247819 160.745595,76.9396218 158.22555,81.4287509 L170.311581,81.4287509 C167.791536,76.9396218 166.292145,71.4247819 166.120178,66.6880608 C166.108124,65.0498608 167.390044,65.0187914 167.374073,66.2143356 C167.479041,72.2193835 172.507179,75.1751881 176.159175,74.4768644 C181.788193,73.3954955 183.585312,67.7459847 183.530267,64.4220828 C183.366235,54.1573195 173.494585,46.5858712 164.268616,33.4287464 L164.268616,33.4287464 Z" id="path7094-3-5" fill="#000000"></path>
            <path d="M112.502218,83.0340156 C103.276149,96.1911404 93.4044988,103.762589 93.2404668,114.027352 C93.1852203,117.351254 94.9825405,123.000765 100.611559,124.082134 C104.263555,124.780457 109.291692,121.824653 109.396661,115.819605 C109.380589,114.624061 110.66261,114.65513 110.650556,116.29333 C110.478588,121.030051 108.979198,126.544891 106.459153,131.03402 L118.545184,131.03402 C116.025139,126.544891 114.525748,121.030051 114.353781,116.29333 C114.341727,114.65513 115.623647,114.624061 115.607676,115.819605 C115.712644,121.824653 120.740781,124.780457 124.392778,124.082134 C130.021796,123.000765 131.818915,117.351254 131.76387,114.027352 C131.599838,103.762589 121.728188,96.1911404 112.502218,83.0340156 L112.502218,83.0340156 Z" id="path7098-7-3" fill="#000000"></path>
            <path d="M60.7358214,132.639395 C51.5097519,145.79652 41.6381016,153.367968 41.4740697,163.632732 C41.4188232,166.956623 43.2161433,172.606144 48.8451617,173.687503 C52.497158,174.385837 57.525295,171.430032 57.6302634,165.424984 C57.6141917,164.22944 58.8962125,164.26051 58.8841587,165.89871 C58.7121913,170.635431 57.2128006,176.150271 54.6927554,180.6394 L66.7787869,180.6394 C64.2587417,176.150271 62.759351,170.635431 62.5873836,165.89871 C62.5753298,164.26051 63.8572501,164.22944 63.8412789,165.424984 C63.9462473,171.430032 68.9743843,174.385837 72.6263806,173.687503 C78.255399,172.606144 80.0525182,166.956623 79.9974726,163.632732 C79.8334407,153.367968 69.9617904,145.79652 60.7358214,132.639395 L60.7358214,132.639395 Z" id="path7105-0-7" fill="#000000"></path>
            <path d="M60.7358214,279.850058 C51.5097519,266.692934 41.6381016,259.121485 41.4740697,248.856722 C41.4188232,245.53283 43.2161433,239.883309 48.8451617,238.80195 C52.497158,238.103617 57.525295,241.059421 57.6302634,247.064469 C57.6141917,248.260013 58.8962125,248.228944 58.8841587,246.590744 C58.7121913,241.854023 57.2128006,236.339183 54.6927554,231.850054 L66.7787869,231.850054 C64.2587417,236.339183 62.759351,241.854023 62.5873836,246.590744 C62.5753298,248.228944 63.8572501,248.260013 63.8412789,247.064469 C63.9462473,241.059421 68.9743843,238.103617 72.6263806,238.80195 C78.255399,239.883309 80.0525182,245.53283 79.9974726,248.856722 C79.8334407,259.121485 69.9617904,266.692934 60.7358214,279.850058 L60.7358214,279.850058 Z" id="path7107-6-3" fill="#000000"></path>
            <path d="M164.268616,279.850058 C155.042546,266.692934 145.170896,259.121485 145.006864,248.856722 C144.951617,245.53283 146.748938,239.883309 152.377956,238.80195 C156.029952,238.103617 161.058089,241.059421 161.163058,247.064469 C161.146986,248.260013 162.429007,248.228944 162.416953,246.590744 C162.244986,241.854023 160.745595,236.339183 158.22555,231.850054 L170.311581,231.850054 C167.791536,236.339183 166.292145,241.854023 166.120178,246.590744 C166.108124,248.228944 167.390044,248.260013 167.374073,247.064469 C167.479041,241.059421 172.507179,238.103617 176.159175,238.80195 C181.788193,239.883309 183.585312,245.53283 183.530267,248.856722 C183.366235,259.121485 173.494585,266.692934 164.268616,279.850058 L164.268616,279.850058 Z" id="path7109-5-0" fill="#000000"></path>
            <path d="M164.268616,132.639395 C155.042546,145.79652 145.170896,153.367968 145.006864,163.632732 C144.951617,166.956623 146.748938,172.606144 152.377956,173.687503 C156.029952,174.385837 161.058089,171.430032 161.163058,165.424984 C161.146986,164.22944 162.429007,164.26051 162.416953,165.89871 C162.244986,170.635431 160.745595,176.150271 158.22555,180.6394 L170.311581,180.6394 C167.791536,176.150271 166.292145,170.635431 166.120178,165.89871 C166.108124,164.26051 167.390044,164.22944 167.374073,165.424984 C167.479041,171.430032 172.507179,174.385837 176.159175,173.687503 C181.788193,172.606144 183.585312,166.956623 183.530267,163.632732 C183.366235,153.367968 173.494585,145.79652 164.268616,132.639395 L164.268616,132.639395 Z" id="path7119-1-9" fill="#000000"></path>
            <path d="M13.0310484,47.5680428 C15.2013329,36.0947439 17.5116422,27.4813428 23.5776103,18.1332416 L11.2478915,18.1332416 L11.2478915,22.1571426 L7.97448453,22.1571426 L7.97448453,14.5716394 L26.0087588,14.5716394 L28.2330845,18.1332416 C21.7904354,25.1662376 15.8942248,47.9005364 16.9382837,47.5680428 L13.0310484,47.5680428 L13.0310484,47.5680428 Z" id="path25-4-6-4" fill="#000000"></path>
            <path d="M211.970978,265.710892 C209.800693,277.184191 207.490284,285.797592 201.424516,295.145694 L213.754135,295.145694 L213.754135,291.121793 L217.027542,291.121793 L217.027542,298.707296 L198.993267,298.707296 L196.768942,295.145694 C203.211591,288.112698 209.107801,265.378399 208.063642,265.710892 L211.970978,265.710892 L211.970978,265.710892 Z" id="path25-4-1-9-1" fill="#000000"></path>
        </g>
    </g>
</svg>