<?xml version="1.0" encoding="UTF-8" standalone="no"?>
<svg width="225px" height="313px" viewBox="0 0 225 313" version="1.1" xmlns="http://www.w3.org/2000/svg" xmlns:xlink="http://www.w3.org/1999/xlink">
    <!-- Generator: Sketch 39.1 (31720) - http://www.bohemiancoding.com/sketch -->
    <title>S8</title>
    <desc>Created with Sketch.</desc>
    <defs></defs>
    <g id="Page-3" stroke="none" stroke-width="1" fill="none" fill-rule="evenodd">
        <g id="S8" transform="translate(0.548660, -0.185344)">
            <rect id="rect5412" stroke="#000000" stroke-width="0.996734187" fill="#FFFFFF" x="0.109086778" y="0.733726925" width="223.228352" height="311.81103" rx="10.582486"></rect>
            <path d="M59.9571467,33.4287464 C50.7311777,46.5858712 40.8595274,54.1573195 40.6954955,64.4220828 C40.6402489,67.7459847 42.4375691,73.3954955 48.0665875,74.4768644 C51.7185838,75.1751881 56.7467208,72.2193835 56.8516892,66.2143356 C56.8356175,65.0187914 58.1176383,65.0498608 58.1055845,66.6880608 C57.9336171,71.4247819 56.4342264,76.9396218 53.9141812,81.4287509 L66.0002127,81.4287509 C63.4801675,76.9396218 61.9807767,71.4247819 61.8088094,66.6880608 C61.7967556,65.0498608 63.0786759,65.0187914 63.0627046,66.2143356 C63.167673,72.2193835 68.1958101,75.1751881 71.8478064,74.4768644 C77.4768247,73.3954955 79.273944,67.7459847 79.2188984,64.4220828 C79.0548664,54.1573195 69.1832162,46.5858712 59.9571467,33.4287464 L59.9571467,33.4287464 Z" id="path7155-4-0" fill="#000000"></path>
            <path d="M17.326717,50.7071537 C13.0160816,56.1892891 8.40390071,59.34405 8.32725872,63.6210405 C8.30114218,65.0059905 9.14119072,67.35996 11.7712267,67.8105312 C13.4775408,68.1015019 15.8267236,66.8699125 15.8758428,64.3678092 C15.8657979,63.8696558 16.4671815,63.8826072 16.4615564,64.5651905 C16.3811978,66.5388335 15.6806718,68.8366835 14.5033181,70.7071464 L20.1501158,70.7071464 C18.9726617,68.8366835 18.2721357,66.5388335 18.1917771,64.5651905 C18.1817323,63.8826072 18.7851248,63.8696558 18.7775912,64.3678092 C18.8268109,66.8699125 21.1758932,68.1015019 22.8822072,67.8105312 C25.5122432,67.35996 26.3517896,65.0059905 26.3260748,63.6210405 C26.2487297,59.34405 21.6371514,56.1892891 17.326717,50.7071537 L17.326717,50.7071537 Z" id="path7157-2-9" fill="#000000"></path>
            <path d="M206.121174,262.571782 C201.810639,257.089646 197.198358,253.934885 197.121816,249.657895 C197.0957,248.272945 197.935748,245.918975 200.565684,245.468404 C202.271998,245.177433 204.621181,246.409023 204.6703,248.911126 C204.660255,249.409279 205.261739,249.396328 205.256114,248.713745 C205.175755,246.740102 204.47523,244.442252 203.297775,242.571789 L208.944573,242.571789 C207.767219,244.442252 207.066593,246.740102 206.986335,248.713745 C206.97629,249.396328 207.579582,249.409279 207.572149,248.911126 C207.621369,246.409023 209.97035,245.177433 211.676664,245.468404 C214.3067,245.918975 215.146347,248.272945 215.120633,249.657895 C215.043287,253.934885 210.431709,257.089646 206.121174,262.571782 L206.121174,262.571782 Z" id="path7162-7-0" fill="#000000"></path>
            <path d="M163.490041,33.4287464 C154.263972,46.5858712 144.392322,54.1573195 144.22829,64.4220828 C144.173043,67.7459847 145.970363,73.3954955 151.599382,74.4768644 C155.251378,75.1751881 160.279515,72.2193835 160.384483,66.2143356 C160.368412,65.0187914 161.650433,65.0498608 161.638379,66.6880608 C161.466411,71.4247819 159.967021,76.9396218 157.446975,81.4287509 L169.533007,81.4287509 C167.012962,76.9396218 165.513571,71.4247819 165.341604,66.6880608 C165.32955,65.0498608 166.61147,65.0187914 166.595499,66.2143356 C166.700467,72.2193835 171.728604,75.1751881 175.380601,74.4768644 C181.009619,73.3954955 182.806738,67.7459847 182.751693,64.4220828 C182.587661,54.1573195 172.71601,46.5858712 163.490041,33.4287464 L163.490041,33.4287464 Z" id="path7164-8-3" fill="#000000"></path>
            <path d="M111.723644,83.0340156 C102.497575,96.1911404 92.6259245,103.762589 92.4618926,114.027352 C92.4066461,117.351254 94.2039662,123.000765 99.8329846,124.082134 C103.484981,124.780457 108.513118,121.824653 108.618086,115.819605 C108.602015,114.624061 109.884035,114.65513 109.871982,116.29333 C109.700014,121.030051 108.200623,126.544891 105.680578,131.03402 L117.76661,131.03402 C115.246565,126.544891 113.747174,121.030051 113.575206,116.29333 C113.563153,114.65513 114.845073,114.624061 114.829102,115.819605 C114.93407,121.824653 119.962207,124.780457 123.614203,124.082134 C129.243222,123.000765 131.040341,117.351254 130.985296,114.027352 C130.821264,103.762589 120.949613,96.1911404 111.723644,83.0340156 L111.723644,83.0340156 Z" id="path7168-3-2" fill="#000000"></path>
            <path d="M59.9571467,132.639395 C50.7311777,145.79652 40.8595274,153.367968 40.6954955,163.632732 C40.6402489,166.956623 42.4375691,172.606144 48.0665875,173.687503 C51.7185838,174.385837 56.7467208,171.430032 56.8516892,165.424984 C56.8356175,164.22944 58.1176383,164.26051 58.1055845,165.89871 C57.9336171,170.635431 56.4342264,176.150271 53.9141812,180.6394 L66.0002127,180.6394 C63.4801675,176.150271 61.9807767,170.635431 61.8088094,165.89871 C61.7967556,164.26051 63.0786759,164.22944 63.0627046,165.424984 C63.167673,171.430032 68.1958101,174.385837 71.8478064,173.687503 C77.4768247,172.606144 79.273944,166.956623 79.2188984,163.632732 C79.0548664,153.367968 69.1832162,145.79652 59.9571467,132.639395 L59.9571467,132.639395 Z" id="path7174-5-0" fill="#000000"></path>
            <path d="M59.9571467,279.850058 C50.7311777,266.692934 40.8595274,259.121485 40.6954955,248.856722 C40.6402489,245.53283 42.4375691,239.883309 48.0665875,238.80195 C51.7185838,238.103617 56.7467208,241.059421 56.8516892,247.064469 C56.8356175,248.260013 58.1176383,248.228944 58.1055845,246.590744 C57.9336171,241.854023 56.4342264,236.339183 53.9141812,231.850054 L66.0002127,231.850054 C63.4801675,236.339183 61.9807767,241.854023 61.8088094,246.590744 C61.7967556,248.228944 63.0786759,248.260013 63.0627046,247.064469 C63.167673,241.059421 68.1958101,238.103617 71.8478064,238.80195 C77.4768247,239.883309 79.273944,245.53283 79.2188984,248.856722 C79.0548664,259.121485 69.1832162,266.692934 59.9571467,279.850058 L59.9571467,279.850058 Z" id="path7176-7-0" fill="#000000"></path>
            <path d="M163.490041,279.850058 C154.263972,266.692934 144.392322,259.121485 144.22829,248.856722 C144.173043,245.53283 145.970363,239.883309 151.599382,238.80195 C155.251378,238.103617 160.279515,241.059421 160.384483,247.064469 C160.368412,248.260013 161.650433,248.228944 161.638379,246.590744 C161.466411,241.854023 159.967021,236.339183 157.446975,231.850054 L169.533007,231.850054 C167.012962,236.339183 165.513571,241.854023 165.341604,246.590744 C165.32955,248.228944 166.61147,248.260013 166.595499,247.064469 C166.700467,241.059421 171.728604,238.103617 175.380601,238.80195 C181.009619,239.883309 182.806738,245.53283 182.751693,248.856722 C182.587661,259.121485 172.71601,266.692934 163.490041,279.850058 L163.490041,279.850058 Z" id="path7178-9-4" fill="#000000"></path>
            <path d="M111.723644,230.244789 C102.497575,217.087664 92.6259245,209.516216 92.4618926,199.251453 C92.4066461,195.927561 94.2039662,190.27804 99.8329846,189.196681 C103.484981,188.498348 108.513118,191.454162 108.618086,197.4592 C108.602015,198.654744 109.884035,198.623675 109.871982,196.985475 C109.700014,192.248754 108.200623,186.733914 105.680578,182.244775 L117.76661,182.244775 C115.246565,186.733914 113.747174,192.248754 113.575206,196.985475 C113.563153,198.623675 114.845073,198.654744 114.829102,197.4592 C114.93407,191.454162 119.962207,188.498348 123.614203,189.196681 C129.243222,190.27804 131.040341,195.927561 130.985296,199.251453 C130.821264,209.516216 120.949613,217.087664 111.723644,230.244789 L111.723644,230.244789 Z" id="path7180-5-1" fill="#000000"></path>
            <path d="M163.490041,132.639395 C154.263972,145.79652 144.392322,153.367968 144.22829,163.632732 C144.173043,166.956623 145.970363,172.606144 151.599382,173.687503 C155.251378,174.385837 160.279515,171.430032 160.384483,165.424984 C160.368412,164.22944 161.650433,164.26051 161.638379,165.89871 C161.466411,170.635431 159.967021,176.150271 157.446975,180.6394 L169.533007,180.6394 C167.012962,176.150271 165.513571,170.635431 165.341604,165.89871 C165.32955,164.26051 166.61147,164.22944 166.595499,165.424984 C166.700467,171.430032 171.728604,174.385837 175.380601,173.687503 C181.009619,172.606144 182.806738,166.956623 182.751693,163.632732 C182.587661,153.367968 172.71601,145.79652 163.490041,132.639395 L163.490041,132.639395 Z" id="path7189-7-7" fill="#000000"></path>
            <path d="M6.60557605,37.9053554 C6.76237574,33.4753555 8.36442456,31.81355 11.5181976,29.4957562 C9.00206992,27.6807506 7.94143706,25.0054533 8.15740076,22.7282494 C8.67551273,17.2138508 12.9337141,14.4573538 17.5801479,14.5752509 C22.2304991,14.6983547 26.2327584,18.3845555 26.5451524,22.3916527 C26.8164631,25.8749546 25.7814445,27.5563527 23.310418,29.3883526 C26.2431046,31.8646534 28.1162632,33.4910557 28.0468534,37.854252 C27.9775442,42.2175486 24.2656807,47.4097465 17.7961116,47.5682535 C11.3265424,47.7266502 6.44475844,42.3354557 6.60557605,37.9053554 L6.60557605,37.9053554 L6.60557605,37.9053554 Z M24.6655651,37.9213065 C24.9419986,33.9103067 21.3960757,31.2049132 17.393716,31.1656074 C13.4968269,31.123573 10.0112733,34.4498124 10.0112733,38.0510113 C10.0112733,41.9179101 14.5459082,44.019713 17.4746772,44.0289125 C21.0347634,44.0449638 24.4250921,41.374512 24.6655651,37.9213065 L24.6655651,37.9213065 L24.6655651,37.9213065 Z M23.3849506,23.5731118 C23.4612913,20.1985077 20.3468939,17.7772128 17.132651,17.8741128 C14.274698,17.9620942 11.2520098,20.1409134 11.246887,22.9642142 C11.246887,26.4985091 14.6874397,28.2637153 17.6251487,28.3318132 C20.2916474,28.391805 23.3245812,26.1253154 23.3849506,23.5731118 L23.3849506,23.5731118 L23.3849506,23.5731118 Z" id="path27-43-30-7" fill="#000000"></path>
            <path d="M195.400033,275.37359 C195.556833,279.80359 197.158882,281.465385 200.312655,283.783189 C197.796628,285.598185 196.735894,288.273482 196.951858,290.550686 C197.46997,296.065084 201.728171,298.821581 206.374706,298.703684 C211.024956,298.580581 215.027316,294.89439 215.33971,290.887283 C215.611021,287.403981 214.576002,285.722583 212.104875,283.890583 C215.037562,281.414282 216.910821,279.78789 216.841411,275.424683 C216.772102,271.061387 213.060238,265.869189 206.590569,265.710682 C200.1211,265.552285 195.239316,270.94349 195.400134,275.37359 L195.400134,275.37359 L195.400033,275.37359 Z M213.460022,275.357539 C213.736355,279.368538 210.190533,282.073932 206.188073,282.113238 C202.291184,282.155272 198.805731,278.829033 198.805731,275.227834 C198.805731,271.360935 203.340265,269.259132 206.269235,269.249932 C209.829221,269.233881 213.21965,271.904333 213.460123,275.357539 L213.460123,275.357539 L213.460022,275.357539 Z M212.179408,289.705733 C212.255749,293.080337 209.141251,295.501632 205.927108,295.404732 C203.069055,295.316751 200.046367,293.137932 200.041344,290.314631 C200.041344,286.780336 203.481797,285.01514 206.419606,284.947032 C209.086105,284.88704 212.119038,287.15354 212.179408,289.705733 L212.179408,289.705733 L212.179408,289.705733 Z" id="path27-43-3-4-8" fill="#000000"></path>
        </g>
    </g>
</svg>