<?xml version="1.0" encoding="UTF-8" standalone="no"?>
<svg width="226px" height="314px" viewBox="0 0 226 314" version="1.1" xmlns="http://www.w3.org/2000/svg" xmlns:xlink="http://www.w3.org/1999/xlink">
    <!-- Generator: Sketch 39.1 (31720) - http://www.bohemiancoding.com/sketch -->
    <title>C2</title>
    <desc>Created with Sketch.</desc>
    <defs></defs>
    <g id="Page-3" stroke="none" stroke-width="1" fill="none" fill-rule="evenodd">
        <g id="C2" transform="translate(0.545732, 0.816682)">
            <rect id="rect4942" stroke="#000000" stroke-width="0.996734187" fill="#FFFFFF" x="0.762010318" y="0.116171591" width="223.228352" height="311.81103" rx="10.582486"></rect>
            <path d="M112.371987,33.2271817 C102.553685,33.4400626 98.1510895,44.4804768 105.422587,53.0539001 C106.477183,54.3044 106.585999,55.0220957 104.65458,53.8208533 C99.758894,50.5511949 90.3716051,52.7006703 89.89089,62.6965434 C89.2971003,75.0128388 106.52799,78.5615899 109.763287,65.465099 C109.934089,64.0832791 111.058476,64.1147798 110.787376,66.0761536 C110.49238,71.3995813 108.827782,76.3751964 106.539792,81.227116 L118.212078,81.227116 C115.924188,76.3751964 114.25949,71.3995813 113.964484,66.0761536 C113.693374,64.1147798 114.817781,64.0832791 114.988583,65.465099 C118.22388,78.5615899 135.45478,75.0128388 134.86098,62.6965434 C134.380375,52.7006703 124.992986,50.5511949 120.09729,53.8208533 C118.165881,55.0220957 118.274677,54.3044 119.329283,53.0539001 C126.600791,44.4804768 122.198185,33.4401629 112.379973,33.2271817 C112.379973,33.2270813 112.379973,33.2271817 112.369928,33.2271817 L112.371987,33.2271817 Z" id="path147-0-8-1-6-7-2-1-6-3" fill="#000000"></path>
            <path d="M112.371987,279.648393 C102.553695,279.435412 98.1510895,268.395098 105.422597,259.821675 C106.477203,258.571175 106.586009,257.853479 104.65459,259.054722 C99.758894,262.32438 90.371595,260.174905 89.89089,250.179032 C89.2970903,237.862736 106.528,234.313985 109.763297,247.410476 C109.934099,248.792296 111.058486,248.760795 110.787386,246.799421 C110.49239,241.475994 108.827802,236.500379 106.539802,231.648459 L118.212088,231.648459 C115.924198,236.500379 114.2595,241.475994 113.964494,246.799421 C113.693394,248.760795 114.817791,248.792296 114.988593,247.410476 C118.22389,234.313985 135.45479,237.862736 134.86099,250.179032 C134.380385,260.174905 124.992996,262.32438 120.0973,259.054722 C118.165891,257.853479 118.274697,258.571175 119.329293,259.821675 C126.600801,268.395098 122.198195,279.435412 112.379993,279.648393 C112.379993,279.648494 112.379993,279.648293 112.369948,279.648393 L112.371987,279.648393 Z" id="path147-0-8-1-6-1-4-5-4-2" fill="#000000"></path>
            <path d="M206.775203,261.954296 C210.702497,261.866014 212.463596,257.265499 209.554997,253.693172 C209.133094,253.172105 209.0896,252.873149 209.862198,253.37365 C211.820496,254.736008 215.575402,253.840343 215.7677,249.675421 C216.0052,244.543606 209.112804,243.064976 207.818699,248.521831 C207.750696,249.097572 207.300597,249.084531 207.409101,248.267216 C207.527098,246.049122 208.192899,243.97599 209.108103,241.954324 L204.4394,241.954324 C205.354604,243.97599 206.020395,246.049122 206.138401,248.267216 C206.246895,249.08443 205.797098,249.097572 205.728803,248.521831 C204.434699,243.064976 197.542303,244.543606 197.779803,249.675421 C197.972101,253.840343 201.726996,254.736008 203.685295,253.37365 C204.457902,252.873149 204.414398,253.172105 203.992495,253.693172 C201.083896,257.265499 202.844995,261.865613 206.772199,261.954296 L206.772199,261.954296 L206.775203,261.954296 Z" id="path147-6-9-8-7-0-5-4-9-1" fill="#000000"></path>
            <path d="M17.9777923,50.0897188 C14.0504875,50.1780012 12.2893889,54.7786169 15.197988,58.3508431 C15.6198906,58.8719098 15.6633947,59.1709664 14.8907871,58.6704655 C12.9324886,57.3081078 9.17760321,58.2036724 8.98530511,62.3685944 C8.74780532,67.5004092 15.6401912,68.9790388 16.9342959,63.5221843 C17.0022993,62.9464428 17.4523878,62.9595848 17.3438936,63.7767988 C17.2258871,65.9948936 16.5600961,68.0680248 15.6448922,70.0896914 L20.3135953,70.0896914 C19.3983914,68.0680248 18.7325904,65.9948936 18.6145939,63.7767988 C18.5060897,62.9595848 18.9558868,62.9464428 19.0241916,63.5221843 C20.3182963,68.9790388 27.2106922,67.5004092 26.9731924,62.3685944 C26.7808943,58.2036724 23.0259888,57.3081078 21.0676903,58.6704655 C20.2950928,59.1709664 20.3385868,58.8719098 20.7604895,58.3508431 C23.6690885,54.7786169 21.90799,50.1785028 17.9807957,50.0897188 C17.9797912,50.0897188 17.9807957,50.0897188 17.9807957,50.0897188 L17.9777923,50.0897188 Z" id="path147-6-9-8-7-4-5-9-2-7" fill="#000000"></path>
            <path d="M8.08584144,46.8834631 L8.24663897,44.8485542 C8.75444495,38.5602402 10.1056444,36.4388546 17.7696435,29.8742569 C21.4904367,26.6921786 22.7105412,25.1220563 22.8815443,23.3005299 C23.3688387,19.0040872 19.567044,17.6630978 17.0908445,17.6434349 C13.8817445,17.6143419 10.2509428,19.567088 11.9840363,24.105906 L8.38283672,25.1836533 C7.65903691,20.9499111 8.4038304,16.9782071 11.7732457,15.2156694 C16.2731456,12.9174181 22.0432435,13.8184 24.956644,17.4391816 C26.9147416,19.8683516 27.362138,23.2298037 26.3117408,25.8606187 C23.2428465,32.5810148 12.8326431,35.5378727 11.9737404,43.3137449 L23.4793418,43.3137449 L23.4793418,38.9845975 L26.8697408,38.9845975 L26.8697408,46.9541894 L8.08584144,46.8839647 L8.08584144,46.8834631 Z" id="path15-9-1-0-1" fill="#000000"></path>
            <path d="M216.164249,265.160552 L216.003452,267.195561 C215.495646,273.483775 214.144446,275.605161 206.480447,282.169758 C202.759644,285.351837 201.53955,286.921959 201.368547,288.743586 C200.881252,293.040028 204.683047,294.381018 207.159246,294.400681 C210.368346,294.429774 213.999148,292.476927 212.266044,287.938209 L215.867244,286.860462 C216.591054,291.094104 215.84625,295.065908 212.476845,296.828446 C207.976945,299.126697 202.206847,298.225715 199.293447,294.604834 C197.335349,292.175764 196.887953,288.814212 197.93835,286.183497 C201.007244,279.463101 211.417448,276.506142 212.27635,268.73027 L200.770749,268.73027 L200.770749,273.059618 L197.38035,273.059618 L197.38035,265.089826 L216.164249,265.161054 L216.164249,265.160552 Z" id="path15-5-7-4-9-4" fill="#000000"></path>
        </g>
    </g>
</svg>