<?xml version="1.0" encoding="UTF-8" standalone="no"?>
<svg width="225px" height="314px" viewBox="0 0 225 314" version="1.1" xmlns="http://www.w3.org/2000/svg" xmlns:xlink="http://www.w3.org/1999/xlink">
    <!-- Generator: Sketch 39.1 (31720) - http://www.bohemiancoding.com/sketch -->
    <title>C3</title>
    <desc>Created with Sketch.</desc>
    <defs></defs>
    <g id="Page-3" stroke="none" stroke-width="1" fill="none" fill-rule="evenodd">
        <g id="C3" transform="translate(-0.455241, 0.816682)">
            <rect id="rect4960" stroke="#000000" stroke-width="0.996734187" fill="#FFFFFF" x="0.988109239" y="0.116171591" width="223.228352" height="311.81103" rx="10.582486"></rect>
            <path d="M112.598046,33.2271817 C102.779734,33.4401629 98.3771884,44.4804768 105.648636,53.0539001 C106.703242,54.3044 106.812027,55.0220957 104.880609,53.8208533 C99.9849628,50.5511949 90.5976739,52.7006703 90.1169286,62.6965434 C89.5231792,75.0128388 106.754069,78.5615899 109.989305,65.465099 C110.160168,64.0832791 111.284485,64.1147798 111.013475,66.0761536 C110.718459,71.3995813 109.053831,76.3751964 106.765821,81.227116 L118.438106,81.227116 C116.150197,76.3751964 114.485569,71.3995813 114.190552,66.0761536 C113.919443,64.1147798 115.04386,64.0832791 115.214622,65.465099 C118.449959,78.5615899 135.680848,75.0128388 135.086999,62.6965434 C134.606454,52.7006703 125.219065,50.5511949 120.323319,53.8208533 C118.3919,55.0220957 118.500685,54.3044 119.555392,53.0539001 C126.826839,44.4804768 122.424294,33.4401629 112.606082,33.2271817 C112.606082,33.2270813 112.606082,33.2271817 112.596037,33.2271817 L112.598046,33.2271817 Z" id="path147-0-8-1-6-7-2-5-9-2" fill="#000000"></path>
            <path d="M112.598046,279.648393 C102.779734,279.435512 98.3771884,268.395098 105.648636,259.821675 C106.703242,258.571175 106.812027,257.85358 104.880609,259.054722 C99.9849628,262.32438 90.5976739,260.174905 90.1169286,250.179032 C89.5231792,237.862736 106.754069,234.314085 109.989305,247.410576 C110.160168,248.792296 111.284585,248.760795 111.013475,246.799421 C110.718459,241.475994 109.053831,236.500379 106.765821,231.648459 L118.438106,231.648459 C116.150297,236.500379 114.485569,241.475994 114.190552,246.799421 C113.919443,248.760795 115.04386,248.792296 115.214622,247.410576 C118.449959,234.313985 135.680848,237.862736 135.086999,250.179032 C134.606454,260.174905 125.219065,262.32438 120.323319,259.054722 C118.392,257.85358 118.500786,258.571175 119.555392,259.821675 C126.826839,268.395098 122.424294,279.435412 112.606082,279.648393 C112.606082,279.648494 112.606082,279.648393 112.596037,279.648393 L112.598046,279.648393 Z" id="path147-0-8-1-6-1-4-3-4-3" fill="#000000"></path>
            <path d="M112.598046,132.43782 C102.779734,132.650701 98.3771884,143.691015 105.648636,152.264438 C106.703242,153.515039 106.812027,154.232634 104.880609,153.031492 C99.9849628,149.761834 90.5976739,151.911209 90.1169286,161.907082 C89.5231792,174.223477 106.754069,177.772128 109.989305,164.675637 C110.160168,163.293918 111.284485,163.325419 111.013475,165.286792 C110.718459,170.61022 109.053831,175.585735 106.765821,180.437755 L118.438106,180.437755 C116.150197,175.585735 114.485569,170.61022 114.190552,165.286792 C113.919443,163.325419 115.04386,163.293817 115.214622,164.675637 C118.449959,177.772128 135.680848,174.223477 135.086999,161.907082 C134.606454,151.911209 125.219065,149.761834 120.323319,153.031492 C118.3919,154.232634 118.500786,153.515039 119.555392,152.264438 C126.826839,143.691015 122.424294,132.650701 112.606082,132.43782 C112.606082,132.43772 112.606082,132.43782 112.596037,132.43782 L112.598046,132.43782 Z" id="path147-0-8-1-6-1-1-0-4-8-8" fill="#000000"></path>
            <path d="M207.001302,261.954296 C210.928526,261.866014 212.689685,257.265499 209.781106,253.693172 C209.359123,253.172105 209.315629,252.873149 210.088277,253.37365 C212.046515,254.736008 215.801471,253.840343 215.993729,249.675421 C216.231289,244.543606 209.338832,243.064976 208.044758,248.521831 C207.976453,249.097572 207.526646,249.08443 207.63513,248.267216 C207.753157,246.049122 208.418927,243.97599 209.334111,241.954324 L204.665478,241.954324 C205.580662,243.97599 206.246433,246.049122 206.36446,248.267216 C206.472944,249.08443 206.023137,249.097572 205.954832,248.521831 C204.660757,243.064976 197.768402,244.543606 198.005861,249.675421 C198.198119,253.840343 201.953075,254.736008 203.911313,253.37365 C204.683961,252.873149 204.640467,253.172105 204.218584,253.693172 C201.310005,257.265499 203.071064,261.865613 206.998288,261.954296 L206.998288,261.954296 L207.001302,261.954296 Z" id="path147-6-9-8-7-0-5-5-1-4" fill="#000000"></path>
            <path d="M18.2038309,50.0897188 C14.276506,50.1780012 12.5154477,54.7786169 15.4240266,58.3508431 C15.8459092,58.8719098 15.8894033,59.1709664 15.1168559,58.6704655 C13.1585172,57.3081078 9.40366195,58.2036724 9.21130359,62.3685944 C8.97384397,67.5004092 15.8661997,68.9790388 17.1603747,63.5221843 C17.2286795,62.9464428 17.6784867,62.9595848 17.5699022,63.7767988 C17.4519759,65.9948936 16.7861046,68.0680248 15.8709208,70.0896914 L20.5396541,70.0896914 C19.6244702,68.0680248 18.9585989,65.9948936 18.8406727,63.7767988 C18.7321886,62.9595848 19.1818953,62.9464428 19.2502001,63.5221843 C20.5443751,68.9790388 27.4367309,67.5004092 27.1992713,62.3685944 C27.0069129,58.2036724 23.2520576,57.3081078 21.2937189,58.6704655 C20.5211716,59.1709664 20.5646657,58.8719098 20.9865482,58.3508431 C23.8951272,54.7786169 22.1340688,50.1785028 18.2068444,50.0897188 C18.2058399,50.0897188 18.2068444,50.0897188 18.2068444,50.0897188 L18.2038309,50.0897188 Z" id="path147-6-9-8-7-4-5-8-2-3" fill="#000000"></path>
            <path d="M7.4945228,39.7205516 L10.0350795,37.8519747 C12.2400186,41.442359 14.7059222,43.807123 18.478155,43.4012247 C24.1377097,43.0123809 26.4828745,37.0795038 25.2986903,32.609205 C24.1532791,28.5984761 19.466867,26.6449274 15.7409408,28.7831669 C14.8615165,29.2898877 14.0130303,29.703611 13.8470899,29.703611 C13.4563462,29.703611 12.5716987,27.943782 12.6926383,27.4069649 C15.1931966,23.7550839 21.265493,17.3573197 21.265493,17.3573197 L11.778459,17.3573197 L11.778459,21.641724 L8.13742161,21.641724 L8.13742161,13.9542345 L26.6795521,13.9542345 L26.6795521,16.5625777 C26.6795521,16.5625777 21.7115836,21.7149582 20.0698577,24.5367842 C24.1133007,24.6847576 27.3725445,27.247254 28.5425655,31.2985125 C29.2252116,33.4315353 28.9192463,38.3103408 28.0256589,40.413167 C26.5329982,43.9184792 22.4560054,46.7624761 18.7289743,46.9260995 C12.4714513,47.346444 9.15183824,42.9626218 7.4945228,39.7205516 L7.4945228,39.7205516 L7.4945228,39.7205516 Z" id="path17-9-7-6-4" fill="#000000"></path>
            <path d="M217.70838,272.323564 L215.167843,274.192041 C212.962904,270.601656 210.497,268.236792 206.724768,268.642891 C201.065213,269.031735 198.720149,274.964511 199.904232,279.43481 C201.049744,283.445539 205.736156,285.399088 209.461982,283.260949 C210.341406,282.754128 211.189892,282.340404 211.355833,282.340404 C211.746576,282.340404 212.631224,284.100233 212.510284,284.63705 C210.009726,288.289032 203.93743,294.686695 203.93743,294.686695 L213.424464,294.686695 L213.424464,290.402392 L217.065511,290.402392 L217.065511,298.089881 L198.523371,298.089881 L198.523371,295.481538 C198.523371,295.481538 203.491339,290.329057 205.133065,287.507231 C201.089622,287.359358 197.830378,284.796861 196.660458,280.745503 C195.977711,278.61258 196.283676,273.733775 197.177264,271.630848 C198.669925,268.125636 202.746917,265.281539 206.474049,265.117916 C212.731471,264.697671 216.051084,269.081494 217.70838,272.323564 L217.70838,272.323564 L217.70838,272.323564 Z" id="path17-5-0-1-5-7" fill="#000000"></path>
        </g>
    </g>
</svg>