<?xml version="1.0" encoding="UTF-8" standalone="no"?>
<svg width="225px" height="314px" viewBox="0 0 225 314" version="1.1" xmlns="http://www.w3.org/2000/svg" xmlns:xlink="http://www.w3.org/1999/xlink">
    <!-- Generator: Sketch 39.1 (31720) - http://www.bohemiancoding.com/sketch -->
    <title>C4</title>
    <desc>Created with Sketch.</desc>
    <defs></defs>
    <g id="Page-3" stroke="none" stroke-width="1" fill="none" fill-rule="evenodd">
        <g id="C4" transform="translate(0.548269, 0.816682)">
            <rect id="rect4978" stroke="#000000" stroke-width="0.996734187" fill="#FFFFFF" x="0.209334111" y="0.116171591" width="223.228352" height="311.81103" rx="10.582486"></rect>
            <path d="M163.585969,33.2271817 C153.767657,33.4400626 149.365112,44.4803765 156.636559,53.0537998 C157.691165,54.3044 157.800051,55.0219953 155.868632,53.8208533 C150.972886,50.5511949 141.585597,52.7005699 141.104952,62.6965434 C140.511103,75.0128388 157.741992,78.5614896 160.977329,65.4649987 C161.148091,64.0832791 162.272508,64.1147798 162.001399,66.0761536 C161.706382,71.3995813 160.041855,76.3750961 157.753845,81.227116 L169.42613,81.227116 C167.138221,76.3750961 165.473492,71.3995813 165.178476,66.0761536 C164.907366,64.1147798 166.031783,64.0832791 166.202646,65.4649987 C169.437882,78.5614896 186.668772,75.0128388 186.075022,62.6965434 C185.594378,52.7005699 176.206988,50.5511949 171.311342,53.8208533 C169.379924,55.0219953 169.488709,54.3044 170.543315,53.0537998 C177.814763,44.4803765 173.412217,33.4400626 163.594005,33.2271817 C163.594005,33.2270813 163.594005,33.2271817 163.58396,33.2271817 L163.585969,33.2271817 Z" id="path147-0-8-1-6-13-2-06-7" fill="#000000"></path>
            <path d="M60.0531752,33.2271817 C50.234863,33.4400626 45.8323175,44.4803765 53.1037649,53.0537998 C54.1583708,54.3044 54.2671563,55.0219953 52.3358381,53.8208533 C47.4400919,50.5511949 38.052803,52.7005699 37.5720577,62.6965434 C36.9783083,75.0128388 54.2091976,78.5614896 57.4445347,65.4649987 C57.6152967,64.0832791 58.7397141,64.1147798 58.4686044,66.0761536 C58.1735879,71.3995813 56.5089599,76.3750961 54.2210505,81.227116 L65.8933357,81.227116 C63.6054264,76.3750961 61.9406979,71.3995813 61.6456814,66.0761536 C61.3745717,64.1147798 62.4989892,64.0832791 62.6698516,65.4649987 C65.9050882,78.5614896 83.1359776,75.0128388 82.5422281,62.6965434 C82.0615833,52.7005699 72.674194,50.5511949 67.7785481,53.8208533 C65.8471296,55.0219953 65.955915,54.3044 67.010521,53.0537998 C74.2819683,44.4803765 69.8794229,33.4400626 60.0612111,33.2271817 C60.0612111,33.2270813 60.0612111,33.2271817 60.0511662,33.2271817 L60.0531752,33.2271817 Z" id="path147-0-8-1-6-75-2-83-35-3" fill="#000000"></path>
            <path d="M163.585969,279.648393 C153.767657,279.435412 149.365112,268.395098 156.636559,259.821675 C157.691165,258.571175 157.800051,257.853479 155.868632,259.054722 C150.972886,262.32428 141.585597,260.174905 141.104952,250.179032 C140.511103,237.862636 157.741992,234.313985 160.977329,247.410476 C161.148091,248.792296 162.272508,248.760695 162.001399,246.799421 C161.706382,241.475893 160.041855,236.500379 157.753845,231.648359 L169.42613,231.648359 C167.138221,236.500379 165.473492,241.475893 165.178476,246.799421 C164.907366,248.760695 166.031783,248.792296 166.202646,247.410476 C169.437882,234.313985 186.668772,237.862636 186.075022,250.179032 C185.594378,260.174905 176.206988,262.32428 171.311342,259.054722 C169.379924,257.853479 169.488709,258.571175 170.543315,259.821675 C177.814763,268.395098 173.412217,279.435412 163.594005,279.648393 C163.594005,279.648393 163.594005,279.648293 163.58396,279.648393 L163.585969,279.648393 Z" id="path147-0-8-1-6-7-5-5-7-77-6" fill="#000000"></path>
            <path d="M60.0531752,279.648393 C50.234863,279.435412 45.8323175,268.395098 53.1037649,259.821675 C54.1583708,258.571175 54.2671563,257.853479 52.3358381,259.054722 C47.4400919,262.32428 38.052803,260.174905 37.5720577,250.179032 C36.9783083,237.862636 54.2091976,234.313985 57.4445347,247.410476 C57.6152967,248.792296 58.7397141,248.760695 58.4686044,246.799421 C58.1735879,241.475893 56.5089599,236.500379 54.2210505,231.648359 L65.8933357,231.648359 C63.6054264,236.500379 61.9406979,241.475893 61.6456814,246.799421 C61.3745717,248.760695 62.4989892,248.792296 62.6698516,247.410476 C65.9050882,234.313985 83.1359776,237.862636 82.5422281,250.179032 C82.0615833,260.174905 72.674194,262.32428 67.7785481,259.054722 C65.8471296,257.853479 65.955915,258.571175 67.010521,259.821675 C74.2819683,268.395098 69.8794229,279.435412 60.0612111,279.648393 C60.0612111,279.648393 60.0612111,279.648293 60.0511662,279.648393 L60.0531752,279.648393 Z" id="path147-0-8-1-6-75-6-1-2-08-0" fill="#000000"></path>
            <path d="M206.222828,261.954296 C210.150153,261.866014 211.911211,257.265398 209.002632,253.693172 C208.58075,253.172105 208.537256,252.873049 209.309803,253.37355 C211.268142,254.735907 215.022997,253.840343 215.215355,249.675421 C215.452815,244.543606 208.560459,243.064976 207.266284,248.521831 C207.197979,249.097572 206.748172,249.08443 206.856757,248.267216 C206.974683,246.049122 207.640554,243.97599 208.555738,241.954324 L203.887005,241.954324 C204.802189,243.97599 205.46806,246.049122 205.585986,248.267216 C205.69447,249.08443 205.244763,249.097572 205.176459,248.521831 C203.882284,243.064976 196.989928,244.543606 197.227388,249.675421 C197.419746,253.840343 201.174601,254.735907 203.13294,253.37355 C203.905487,252.873049 203.861993,253.172105 203.440111,253.693172 C200.531532,257.265398 202.29259,261.865512 206.219814,261.954296 L206.219814,261.954296 L206.222828,261.954296 Z" id="path147-6-9-8-7-0-5-6-17-9" fill="#000000"></path>
            <path d="M17.4254576,50.0897188 C13.4981327,50.1780012 11.7369739,54.7785165 14.6456533,58.3508431 C15.0675358,58.8719098 15.1110299,59.1708661 14.3383821,58.6703651 C12.3801439,57.3080074 8.62518817,58.2036724 8.43293025,62.3685944 C8.19547064,67.5004092 15.0878264,68.9790388 16.3819009,63.5221843 C16.4502057,62.9464428 16.9000129,62.9595848 16.7915288,63.7767988 C16.6735021,65.9948936 16.0077313,68.0680248 15.0925475,70.0896914 L19.7611803,70.0896914 C18.8459965,68.0680248 18.1802256,65.9948936 18.0621989,63.7767988 C17.9537148,62.9595848 18.403522,62.9464428 18.4718268,63.5221843 C19.7659014,68.9790388 26.6583576,67.5004092 26.4207975,62.3685944 C26.2285396,58.2036724 22.4735838,57.3080074 20.5153456,58.6703651 C19.7426978,59.1708661 19.7861919,58.8719098 20.2080745,58.3508431 C23.1167539,54.7785165 21.355595,50.1784024 17.4283706,50.0897188 C17.4273661,50.0897188 17.4283706,50.0897188 17.4283706,50.0897188 L17.4254576,50.0897188 Z" id="path147-6-9-8-7-4-5-62-79-3" fill="#000000"></path>
            <path d="M17.6568903,46.9502768 L17.6568903,44.0355537 L20.2873281,44.0355537 L20.2873281,39.2275747 L7.12961447,39.2275747 L7.12961447,35.8350232 L21.3673475,13.9542345 L23.6931258,13.966273 L23.6931258,35.8353242 L27.7212003,35.8353242 L27.7212003,39.2278757 L23.6931258,39.2278757 L23.6167851,44.035955 L25.8216238,44.035955 L25.8216238,46.9544903 L17.6563881,46.9544903 L17.6568903,46.9502768 Z M20.2873281,21.9648576 L11.247791,35.8363274 L20.2873281,35.8363274 L20.2873281,21.9648576 L20.2873281,21.9648576 Z" id="path19-0-7-3" fill="#000000"></path>
            <path d="M205.988482,265.093839 L205.988482,268.008562 L203.357944,268.008562 L203.357944,272.816541 L216.515658,272.816541 L216.515658,276.208992 L202.278025,298.089881 L199.952146,298.077842 L199.952146,276.208791 L195.924172,276.208791 L195.924172,272.81624 L199.952146,272.81624 L200.028487,268.008261 L197.823548,268.008261 L197.823548,265.089726 L205.988884,265.089726 L205.988482,265.093839 Z M203.357944,290.079158 L212.397581,276.207688 L203.357944,276.207688 L203.357944,290.079158 L203.357944,290.079158 Z" id="path19-4-4-9-1" fill="#000000"></path>
        </g>
    </g>
</svg>