<?xml version="1.0" encoding="UTF-8" standalone="no"?>
<svg width="225px" height="314px" viewBox="0 0 225 314" version="1.1" xmlns="http://www.w3.org/2000/svg" xmlns:xlink="http://www.w3.org/1999/xlink">
    <!-- Generator: Sketch 39.1 (31720) - http://www.bohemiancoding.com/sketch -->
    <title>C5</title>
    <desc>Created with Sketch.</desc>
    <defs></defs>
    <g id="Page-3" stroke="none" stroke-width="1" fill="none" fill-rule="evenodd">
        <g id="C5" transform="translate(0.547196, 0.816682)">
            <rect id="rect5000" stroke="#000000" stroke-width="0.996734187" fill="#FFFFFF" x="0.435945318" y="0.11607127" width="223.228352" height="311.81103" rx="10.582486"></rect>
            <path d="M163.812179,33.2270813 C153.993867,33.4400626 149.591321,44.4803765 156.862769,53.0537998 C157.917374,54.3042997 158.02616,55.0219953 156.094741,53.820753 C151.199096,50.5510945 141.811807,52.7005699 141.331061,62.6964431 C140.737312,75.0127384 157.968201,78.5614896 161.203438,65.4649987 C161.3743,64.0831788 162.498718,64.1146795 162.227608,66.0760532 C161.932592,71.3994809 160.267964,76.3750961 157.979954,81.2270156 L169.652239,81.2270156 C167.36433,76.3750961 165.699702,71.3994809 165.404685,66.0760532 C165.133575,64.1146795 166.257993,64.0831788 166.428755,65.4649987 C169.664092,78.5614896 186.894981,75.0127384 186.301131,62.6964431 C185.820587,52.7005699 176.433198,50.5510945 171.537451,53.820753 C169.606033,55.0219953 169.714919,54.3042997 170.769525,53.0537998 C178.040972,44.4803765 173.638427,33.4400626 163.820215,33.2270813 C163.820215,33.226981 163.820215,33.2270813 163.81017,33.2270813 L163.812179,33.2270813 Z" id="path147-0-8-1-6-13-2-8-2-5" fill="#000000"></path>
            <path d="M60.2793846,33.2270813 C50.4610724,33.4400626 46.0584265,44.4803765 53.3299743,53.0537998 C54.3845802,54.3042997 54.4933657,55.0219953 52.5619471,53.820753 C47.6663013,50.5510945 38.2790124,52.7005699 37.7982672,62.6964431 C37.2045177,75.0127384 54.435407,78.5614896 57.6706436,65.4649987 C57.8415061,64.0831788 58.9658231,64.1146795 58.6948138,66.0760532 C58.3997973,71.3994809 56.7351693,76.3750961 54.4471595,81.2270156 L66.1194447,81.2270156 C63.8315354,76.3750961 62.1669073,71.3994809 61.8718909,66.0760532 C61.6007811,64.1146795 62.7251986,64.0831788 62.8959606,65.4649987 C66.1312976,78.5614896 83.362187,75.0127384 82.768337,62.6964431 C82.2877927,52.7005699 72.9004034,50.5510945 68.0046571,53.820753 C66.0732385,55.0219953 66.182024,54.3042997 67.2366299,53.0537998 C74.5081777,44.4803765 70.1055318,33.4400626 60.2874205,33.2270813 C60.2874205,33.226981 60.2874205,33.2270813 60.2773757,33.2270813 L60.2793846,33.2270813 Z" id="path147-0-8-1-6-75-2-83-7-6-4" fill="#000000"></path>
            <path d="M163.812179,279.648293 C153.993867,279.435312 149.591321,268.394998 156.862769,259.821575 C157.917374,258.571075 158.02616,257.853379 156.094741,259.054621 C151.199096,262.32428 141.811807,260.174804 141.331061,250.178931 C140.737312,237.862636 157.968201,234.313985 161.203438,247.410376 C161.3743,248.792196 162.498718,248.760695 162.227608,246.799321 C161.932592,241.475893 160.267964,236.500278 157.979954,231.648359 L169.652239,231.648359 C167.36433,236.500278 165.699702,241.475893 165.404685,246.799321 C165.133575,248.760695 166.257993,248.792196 166.428755,247.410376 C169.664092,234.313985 186.894981,237.862636 186.301131,250.178931 C185.820587,260.174804 176.433198,262.32428 171.537451,259.054621 C169.606033,257.853379 169.714919,258.571075 170.769525,259.821575 C178.040972,268.394998 173.638427,279.435312 163.820215,279.648293 C163.820215,279.648393 163.820215,279.648293 163.81017,279.648293 L163.812179,279.648293 Z" id="path147-0-8-1-6-7-5-5-7-6-8-5" fill="#000000"></path>
            <path d="M60.2793846,279.648293 C50.4610724,279.435312 46.0584265,268.394998 53.3299743,259.821575 C54.3845802,258.571075 54.4933657,257.853379 52.5619471,259.054621 C47.6663013,262.32428 38.2790124,260.174804 37.7982672,250.178931 C37.2045177,237.862636 54.435407,234.313985 57.6706436,247.410376 C57.8415061,248.792196 58.9658231,248.760695 58.6948138,246.799321 C58.3997973,241.475893 56.7351693,236.500278 54.4471595,231.648359 L66.1194447,231.648359 C63.8315354,236.500278 62.1669073,241.475893 61.8718909,246.799321 C61.6007811,248.760695 62.7251986,248.792196 62.8959606,247.410376 C66.1312976,234.313985 83.362187,237.862636 82.768337,250.178931 C82.2877927,260.174804 72.9004034,262.32428 68.0046571,259.054621 C66.0732385,257.853379 66.182024,258.571075 67.2366299,259.821575 C74.5081777,268.394998 70.1055318,279.435312 60.2874205,279.648293 C60.2874205,279.648393 60.2874205,279.648293 60.2773757,279.648293 L60.2793846,279.648293 Z" id="path147-0-8-1-6-75-6-1-2-4-9-5" fill="#000000"></path>
            <path d="M112.045782,132.43772 C102.227469,132.650601 97.824924,143.690915 105.096371,152.264338 C106.150977,153.514938 106.259763,154.232534 104.328344,153.031392 C99.4326984,149.761733 90.0454095,151.911108 89.5646643,161.906981 C88.9709148,174.223377 106.201804,177.772028 109.437041,164.675537 C109.607903,163.293817 110.73222,163.325318 110.461211,165.286692 C110.166194,170.61012 108.501566,175.585635 106.213557,180.437654 L117.885842,180.437654 C115.597932,175.585635 113.933304,170.61012 113.638288,165.286692 C113.367178,163.325318 114.491596,163.293817 114.662358,164.675537 C117.897695,177.772028 135.128584,174.223377 134.534734,161.906981 C134.05419,151.911108 124.6668,149.761733 119.771054,153.031392 C117.839636,154.232534 117.948522,153.514938 119.003027,152.264338 C126.274575,143.690915 121.871929,132.650601 112.053818,132.43772 C112.053818,132.43762 112.053818,132.43772 112.043773,132.43772 L112.045782,132.43772 Z" id="path147-0-8-1-6-1-1-0-5-6-4-0" fill="#000000"></path>
            <path d="M206.449037,261.954196 C210.376262,261.865914 212.137421,257.265398 209.228741,253.693072 C208.806859,253.172005 208.763364,252.873049 209.536012,253.37355 C211.494251,254.735907 215.249206,253.840243 215.441464,249.67532 C215.679024,244.543506 208.786568,243.064876 207.492493,248.521731 C207.424189,249.097472 206.974382,249.08433 207.082866,248.267116 C207.200892,246.049021 207.866663,243.97589 208.781847,241.954223 L204.113214,241.954223 C205.028398,243.97589 205.694169,246.049021 205.812195,248.267116 C205.92068,249.08433 205.470872,249.097472 205.402568,248.521731 C204.108493,243.064876 197.216137,244.543506 197.453597,249.67532 C197.645855,253.840243 201.400811,254.735907 203.359049,253.37355 C204.131697,252.873049 204.088203,253.172005 203.66632,253.693072 C200.757641,257.265398 202.518799,261.865512 206.446024,261.954196 L206.446024,261.954196 L206.449037,261.954196 Z" id="path147-6-9-8-7-0-5-6-7-4-6" fill="#000000"></path>
            <path d="M17.6515666,50.0896185 C13.7242417,50.1779008 11.9631833,54.7785165 14.8717622,58.3507428 C15.2936448,58.8718095 15.3371389,59.1708661 14.5645916,58.6703651 C12.6062529,57.3080074 8.85139758,58.203572 8.65913967,62.3685944 C8.4215796,67.5003089 15.3139354,68.9789385 16.6081103,63.522084 C16.6764151,62.9463424 17.1262223,62.9594845 17.0176378,63.7766984 C16.8997116,65.9947933 16.2338402,68.0680248 15.3186564,70.0895911 L19.9873897,70.0895911 C19.0722059,68.0680248 18.4063346,65.9947933 18.2884083,63.7766984 C18.1799243,62.9594845 18.629631,62.9463424 18.6979358,63.522084 C19.9921108,68.9789385 26.8844665,67.5003089 26.6470069,62.3685944 C26.4546485,58.203572 22.6997933,57.3080074 20.7414546,58.6703651 C19.9689072,59.1708661 20.0124013,58.8718095 20.4342839,58.3507428 C23.3428628,54.7785165 21.5818045,50.1784024 17.65458,50.0896185 C17.6535755,50.0896185 17.65458,50.0896185 17.65458,50.0896185 L17.6515666,50.0896185 Z" id="path147-6-9-8-7-4-5-62-2-3-8" fill="#000000"></path>
            <path d="M7.2500519,38.4112636 L10.4848867,38.3801642 C11.1019402,40.3719351 12.467333,42.396511 14.3214064,42.958308 C19.5591789,44.2116169 22.9290161,41.2296787 24.0385673,37.7921834 C25.384674,33.6225463 24.0084328,27.7675182 20.4025422,25.6892706 C17.4147096,23.9659584 12.9751992,25.4195077 10.9362006,29.1058992 L8.67079166,27.6941836 L9.88701883,13.9544352 L24.6864583,13.9544352 L24.6864583,17.2021233 L12.6936428,17.2021233 L12.5033939,22.9261323 C15.0851143,21.079626 19.0527189,21.0992889 21.6329326,22.3944316 C26.5198394,24.7687261 28.7903712,30.1666923 27.8415373,36.5284412 C26.5250628,42.8561813 23.6220085,46.4417502 17.0739892,46.9537881 C9.79058853,47.0210031 7.21911384,41.9198865 7.2500519,38.4115646 L7.2500519,38.4115646 L7.2500519,38.4112636 Z" id="path21-39-8-1" fill="#000000"></path>
            <path d="M216.847538,273.633053 L213.612704,273.664152 C212.99555,271.672281 211.630157,269.647805 209.776184,269.086008 C204.538411,267.832699 201.168574,270.814637 200.059023,274.252133 C198.712916,278.42177 200.089158,284.276698 203.694948,286.354945 C206.682881,288.078358 211.122391,286.624808 213.16139,282.938417 L215.426799,284.350133 L214.210572,298.089881 L199.411132,298.089881 L199.411132,294.842193 L211.403948,294.842193 L211.594196,289.118083 C209.012476,290.96459 205.044871,290.945027 202.464557,289.649784 C197.57765,287.27559 195.307219,281.877624 196.255953,275.515875 C197.572528,269.188135 200.475582,265.602566 207.023601,265.090528 C214.307002,265.023313 216.878376,270.12443 216.847538,273.632651 L216.847538,273.632651 L216.847538,273.633053 Z" id="path21-3-4-1-8" fill="#000000"></path>
        </g>
    </g>
</svg>