<?xml version="1.0" encoding="UTF-8" standalone="no"?>
<svg width="225px" height="314px" viewBox="0 0 225 314" version="1.1" xmlns="http://www.w3.org/2000/svg" xmlns:xlink="http://www.w3.org/1999/xlink">
    <!-- Generator: Sketch 39.1 (31720) - http://www.bohemiancoding.com/sketch -->
    <title>C8</title>
    <desc>Created with Sketch.</desc>
    <defs></defs>
    <g id="Page-3" stroke="none" stroke-width="1" fill="none" fill-rule="evenodd">
        <g id="C8" transform="translate(0.548660, 0.816682)">
            <rect id="rect5072" stroke="#000000" stroke-width="0.996734187" fill="#FFFFFF" x="0.109086778" y="0.11607127" width="223.228352" height="311.81103" rx="10.582486"></rect>
            <path d="M163.485823,33.2271817 C153.66751,33.4400626 149.264965,44.4803765 156.536412,53.0539001 C157.591018,54.3044 157.699804,55.0219953 155.768385,53.8208533 C150.872739,50.5511949 141.48545,52.7006703 141.004705,62.6965434 C140.410956,75.0128388 157.641845,78.5614896 160.877182,65.4649987 C161.047944,64.0832791 162.172462,64.1147798 161.901252,66.0761536 C161.606235,71.3995813 159.941607,76.3750961 157.653597,81.227116 L169.325983,81.227116 C167.038074,76.3750961 165.373345,71.3995813 165.078329,66.0761536 C164.807219,64.1147798 165.931637,64.0832791 166.102399,65.4649987 C169.337736,78.5614896 186.568625,75.0128388 185.974875,62.6965434 C185.494231,52.7006703 176.106841,50.5511949 171.211095,53.8208533 C169.279777,55.0219953 169.388562,54.3044 170.443168,53.0539001 C177.714616,44.4803765 173.31207,33.4400626 163.493858,33.2271817 C163.493858,33.2270813 163.493858,33.2271817 163.483814,33.2271817 L163.485823,33.2271817 Z" id="path147-0-8-1-6-13-2-2-3-8" fill="#000000"></path>
            <path d="M59.9530283,33.2271817 C50.1347161,33.4400626 45.7321706,44.4803765 53.003618,53.0539001 C54.0582239,54.3044 54.1670094,55.0219953 52.2355908,53.8208533 C47.339945,50.5511949 37.9527565,52.7006703 37.4719109,62.6965434 C36.8782618,75.0128388 54.1090507,78.5614896 57.3442873,65.4649987 C57.5151498,64.0832791 58.6395673,64.1147798 58.3684575,66.0761536 C58.073441,71.3995813 56.408813,76.3750961 54.1208032,81.227116 L65.7930884,81.227116 C63.5052795,76.3750961 61.840551,71.3995813 61.5455346,66.0761536 C61.2744248,64.1147798 62.3988423,64.0832791 62.5696043,65.4649987 C65.8049413,78.5614896 83.0358307,75.0128388 82.4420812,62.6965434 C81.9614364,52.7006703 72.5740471,50.5511949 67.6783008,53.8208533 C65.7468822,55.0219953 65.8557681,54.3044 66.9103741,53.0539001 C74.1818214,44.4803765 69.779276,33.4400626 59.9610642,33.2271817 C59.9610642,33.2270813 59.9610642,33.2271817 59.9510194,33.2271817 L59.9530283,33.2271817 Z" id="path147-0-8-1-6-75-2-83-9-8-9" fill="#000000"></path>
            <path d="M163.485823,279.648393 C153.66751,279.435412 149.264965,268.395098 156.536412,259.821675 C157.591018,258.571175 157.699804,257.853479 155.768385,259.054722 C150.872739,262.32438 141.485551,260.174905 141.004705,250.179032 C140.411056,237.862636 157.641845,234.313985 160.877182,247.410476 C161.047944,248.792296 162.172462,248.760695 161.901252,246.799421 C161.606235,241.475893 159.941607,236.500379 157.653597,231.648359 L169.325983,231.648359 C167.038074,236.500379 165.373345,241.475893 165.078329,246.799421 C164.807219,248.760795 165.931637,248.792296 166.102399,247.410476 C169.337736,234.313985 186.568625,237.862636 185.974875,250.179032 C185.494231,260.174905 176.106841,262.32438 171.211095,259.054722 C169.279777,257.853479 169.388562,258.571175 170.443168,259.821675 C177.714616,268.395098 173.31207,279.435412 163.493858,279.648393 C163.493858,279.648393 163.493858,279.648293 163.483814,279.648393 L163.485823,279.648393 Z" id="path147-0-8-1-6-7-5-5-7-62-3-0" fill="#000000"></path>
            <path d="M59.9530283,279.648393 C50.1347161,279.435412 45.7321706,268.395098 53.003618,259.821675 C54.0582239,258.571175 54.1670094,257.853479 52.2355908,259.054722 C47.339945,262.32438 37.9527565,260.174905 37.4719109,250.179032 C36.8782618,237.862636 54.1090507,234.313985 57.3442873,247.410476 C57.5151498,248.792296 58.6395673,248.760695 58.3684575,246.799421 C58.073441,241.475893 56.408813,236.500379 54.1208032,231.648359 L65.7930884,231.648359 C63.5052795,236.500379 61.840551,241.475893 61.5455346,246.799421 C61.2744248,248.760795 62.3988423,248.792296 62.5696043,247.410476 C65.8049413,234.313985 83.0358307,237.862636 82.4420812,250.179032 C81.9614364,260.174905 72.5740471,262.32438 67.6783008,259.054722 C65.7468822,257.853479 65.8557681,258.571175 66.9103741,259.821675 C74.1818214,268.395098 69.779276,279.435412 59.9610642,279.648393 C59.9610642,279.648393 59.9610642,279.648293 59.9510194,279.648393 L59.9530283,279.648393 Z" id="path147-0-8-1-6-75-6-1-2-41-4-5" fill="#000000"></path>
            <path d="M111.719626,82.8326515 C101.901314,83.0455324 97.4988691,94.0858464 104.770216,102.65927 C105.824822,103.90977 105.933708,104.627465 104.002189,103.426223 C99.1066434,100.156564 89.7193546,102.30604 89.2386093,112.301913 C88.6448598,124.618208 105.875649,128.166959 109.110885,115.070469 C109.281748,113.688649 110.406165,113.720149 110.135056,115.681523 C109.840039,121.004951 108.175411,125.980566 105.887401,130.832586 L117.559686,130.832586 C115.271777,125.980566 113.607149,121.004951 113.312133,115.681523 C113.041023,113.720149 114.16544,113.688649 114.336202,115.070469 C117.571539,128.166959 134.802429,124.618208 134.208579,112.301913 C133.728034,102.30604 124.340645,100.156564 119.444899,103.426223 C117.51348,104.627465 117.622366,103.90977 118.676972,102.65927 C125.948419,94.0858464 121.545774,83.0455324 111.727662,82.8326515 C111.727662,82.8325512 111.727662,82.8326515 111.717617,82.8326515 L111.719626,82.8326515 Z" id="path147-0-8-1-6-2-00-7-5-5-3" fill="#000000"></path>
            <path d="M163.485823,132.43772 C153.66751,132.650701 149.264965,143.691015 156.536412,152.264438 C157.591018,153.514938 157.699804,154.232634 155.768385,153.031392 C150.872739,149.761733 141.48545,151.911209 141.004705,161.907082 C140.411056,174.223477 157.641845,177.772128 160.877182,164.675637 C161.047944,163.293817 162.172362,163.325318 161.901252,165.286692 C161.606235,170.61022 159.941607,175.585735 157.653597,180.437755 L169.325983,180.437755 C167.038074,175.585735 165.373345,170.61022 165.078329,165.286692 C164.807219,163.325318 165.931637,163.293817 166.102399,164.675637 C169.337736,177.772128 186.568625,174.223477 185.974875,161.907082 C185.494231,151.911209 176.106841,149.761733 171.211095,153.031392 C169.279777,154.232634 169.388562,153.514938 170.443168,152.264438 C177.714616,143.691015 173.31207,132.650701 163.493858,132.43772 C163.493858,132.43772 163.493858,132.43782 163.483814,132.43772 L163.485823,132.43772 Z" id="path147-0-8-1-6-7-5-7-3-0-4-4-6" fill="#000000"></path>
            <path d="M59.9530283,132.43772 C50.1347161,132.650701 45.7321706,143.691015 53.003618,152.264438 C54.0582239,153.514938 54.1670094,154.232634 52.2355908,153.031392 C47.339945,149.761733 37.9527565,151.911209 37.4720113,161.907082 C36.8782618,174.223477 54.1090507,177.772128 57.3442873,164.675637 C57.5151498,163.293817 58.6395673,163.325318 58.3684575,165.286692 C58.073441,170.61022 56.408813,175.585735 54.1208032,180.437755 L65.7930884,180.437755 C63.5052795,175.585735 61.840551,170.61022 61.5455346,165.286692 C61.2744248,163.325318 62.3988423,163.293817 62.5696043,164.675637 C65.8049413,177.772128 83.0358307,174.223477 82.4420812,161.907082 C81.9614364,151.911209 72.5740471,149.761733 67.6783008,153.031392 C65.7468822,154.232634 65.8557681,153.514938 66.9103741,152.264438 C74.1818214,143.691015 69.779276,132.650701 59.9610642,132.43772 C59.9610642,132.43772 59.9610642,132.43782 59.9510194,132.43772 L59.9530283,132.43772 Z" id="path147-0-8-1-6-75-6-6-5-3-2-4-8" fill="#000000"></path>
            <path d="M111.719626,230.043024 C101.901415,229.830143 97.4987686,218.789829 104.770316,210.216305 C105.824922,208.965806 105.933708,208.24821 104.002289,209.449352 C99.106543,212.719011 89.7192541,210.569535 89.2385089,200.573662 C88.6447594,188.257367 105.875749,184.708716 109.110885,197.805207 C109.281848,199.186926 110.406165,199.155426 110.135056,197.194052 C109.840039,191.870624 108.175511,186.895009 105.887502,182.04309 L117.559686,182.04309 C115.271777,186.895009 113.607149,191.870624 113.312133,197.194052 C113.041123,199.155426 114.16544,199.186926 114.336202,197.805207 C117.571539,184.708716 134.802429,188.257367 134.208579,200.573662 C133.728034,210.569535 124.340645,212.719011 119.444899,209.449352 C117.51348,208.24821 117.622366,208.965806 118.676972,210.216305 C125.948419,218.789829 121.545874,229.830043 111.727763,230.043024 C111.727763,230.043124 111.727763,230.043024 111.717718,230.043024 L111.719626,230.043024 Z" id="path147-0-8-1-6-2-0-8-6-42-9-6" fill="#000000"></path>
            <path d="M206.122781,261.954296 C210.050006,261.866014 211.811165,257.265398 208.902586,253.693172 C208.480603,253.172105 208.437109,252.873049 209.209756,253.37355 C211.167995,254.735907 214.92295,253.840343 215.115208,249.675421 C215.352768,244.543606 208.460312,243.064976 207.166238,248.521831 C207.097933,249.097572 206.648126,249.08443 206.75661,248.267216 C206.874636,246.049122 207.540407,243.97599 208.455591,241.954324 L203.786958,241.954324 C204.702142,243.97599 205.367913,246.049122 205.48594,248.267216 C205.594424,249.08443 205.144617,249.097572 205.076312,248.521831 C203.782237,243.064976 196.889881,244.543606 197.127341,249.675421 C197.319599,253.840343 201.074555,254.735907 203.032793,253.37355 C203.805441,252.873049 203.761947,253.172105 203.340064,253.693172 C200.431485,257.265398 202.192544,261.865512 206.119768,261.954296 L206.119768,261.954296 L206.122781,261.954296 Z" id="path147-6-9-8-7-0-5-6-1-6-9" fill="#000000"></path>
            <path d="M17.3253107,50.0897188 C13.3979858,50.1780012 11.6369274,54.7786169 14.5455064,58.3508431 C14.967389,58.8719098 15.0107826,59.1708661 14.2383357,58.6703651 C12.2798966,57.3080074 8.52514173,58.2036724 8.33278337,62.3685944 C8.09532375,67.5004092 14.9876795,68.9790388 16.281754,63.5221843 C16.3500588,62.9464428 16.7999665,62.9595848 16.6913819,63.7767988 C16.5733553,65.9948936 15.9075844,68.0680248 14.9924006,70.0896914 L19.6611339,70.0896914 C18.74595,68.0680248 18.0800787,65.9948936 17.962052,63.7767988 C17.8536684,62.9595848 18.3033751,62.9464428 18.3716799,63.5221843 C19.6657545,68.9790388 26.5582107,67.5004092 26.3206506,62.3685944 C26.1283927,58.2036724 22.3735374,57.3080074 20.4151987,58.6703651 C19.6426514,59.1708661 19.6861455,58.8719098 20.1079276,58.3508431 C23.016607,54.7786169 21.2554482,50.1785028 17.3283242,50.0897188 L17.3283242,50.0897188 L17.3253107,50.0897188 Z" id="path147-6-9-8-7-4-5-62-4-0-0" fill="#000000"></path>
            <path d="M6.60557605,37.2879706 C6.76237574,32.8579005 8.36442456,31.1961852 11.5181976,28.8782711 C9.00206992,27.0633659 7.94143706,24.3880084 8.15740076,22.1108245 C8.67551273,16.5964861 12.9337141,13.839969 17.5802483,13.9578461 C22.2304991,14.0809398 26.2328589,17.7671306 26.5452528,21.7742479 C26.8165635,25.2574895 25.781545,26.9389679 23.310418,28.7709277 C26.2431046,31.2472486 28.1163636,32.8736508 28.0469539,37.2369073 C27.9776446,41.6001638 24.2656807,46.7923718 17.7961116,46.9507784 C11.3266429,47.1091851 6.44485889,41.7180408 6.60557605,37.2879706 L6.60557605,37.2879706 L6.60557605,37.2879706 Z M24.6656656,37.304022 C24.9419986,33.2929922 21.3960757,30.5876387 17.393716,30.5483129 C13.4968269,30.5061782 10.0112733,33.8325179 10.0112733,37.4337369 C10.0112733,41.3007059 14.5459082,43.4024286 17.4746772,43.4115578 C21.0348638,43.4276091 24.4250921,40.7571673 24.6656656,37.304022 L24.6656656,37.304022 L24.6656656,37.304022 Z M23.3850511,22.9558273 C23.4613917,19.5812332 20.3468939,17.1599886 17.1327515,17.2568985 C14.274698,17.3441777 11.2520098,19.523649 11.246887,22.3468795 C11.246887,25.8812848 14.6874397,27.6464309 17.6252491,27.7145488 C20.2917478,27.7747413 23.3245812,25.5079908 23.3850511,22.9558273 L23.3850511,22.9558273 L23.3850511,22.9558273 Z" id="path27-3-3-2" fill="#000000"></path>
            <path d="M195.400134,274.756045 C195.556933,279.186115 197.158882,280.84783 200.312755,283.165744 C197.796628,284.980649 196.735894,287.655907 196.951958,289.933291 C197.47007,295.447529 201.728272,298.204046 206.374706,298.086169 C211.025057,297.963075 215.027316,294.276885 215.33971,290.269767 C215.611021,286.786425 214.576002,285.105047 212.104976,283.273087 C215.037662,280.796867 216.910821,279.170465 216.841411,274.807108 C216.772102,270.443851 213.060238,265.251643 206.590669,265.093237 C200.1211,264.93473 195.239316,270.326075 195.400134,274.756045 L195.400134,274.756045 L195.400134,274.756045 Z M213.460123,274.739993 C213.736556,278.751023 210.190633,281.456477 206.188274,281.495803 C202.291284,281.537937 198.805831,278.211497 198.805831,274.610379 C198.805831,270.74341 203.340466,268.641687 206.269235,268.632457 C209.829321,268.616406 213.21965,271.286948 213.460123,274.739993 L213.460123,274.739993 L213.460123,274.739993 Z M212.179508,289.088288 C212.255849,292.462782 209.141452,294.884127 205.927209,294.787217 C203.069256,294.698935 200.046568,292.520466 200.041445,289.697236 C200.041445,286.162831 203.481897,284.397584 206.419706,284.329466 C209.086205,284.269274 212.119139,286.536024 212.179508,289.088288 L212.179508,289.088288 L212.179508,289.088288 Z" id="path27-0-0-5-0" fill="#000000"></path>
        </g>
    </g>
</svg>