<?xml version="1.0" encoding="UTF-8" standalone="no"?>
<svg width="225px" height="314px" viewBox="0 0 225 314" version="1.1" xmlns="http://www.w3.org/2000/svg" xmlns:xlink="http://www.w3.org/1999/xlink">
    <!-- Generator: Sketch 39.1 (31720) - http://www.bohemiancoding.com/sketch -->
    <title>C9</title>
    <desc>Created with Sketch.</desc>
    <defs></defs>
    <g id="Page-3" stroke="none" stroke-width="1" fill="none" fill-rule="evenodd">
        <g id="C9" transform="translate(0.547687, 0.816682)">
            <rect id="rect5100" stroke="#000000" stroke-width="0.996734187" fill="#FFFFFF" x="0.335195744" y="0.11607127" width="223.228352" height="311.81103" rx="10.582486"></rect>
            <path d="M163.711932,33.2271817 C153.893619,33.4400626 149.490973,44.4803765 156.762521,53.0537998 C157.817127,54.3044 157.925913,55.0219953 155.994494,53.8208533 C151.098848,50.5511949 141.711559,52.7005699 141.230814,62.6964431 C140.637065,75.0128388 157.867954,78.5614896 161.103191,65.4649987 C161.274053,64.0832791 162.398571,64.1147798 162.127361,66.0761536 C161.832344,71.3995813 160.167716,76.3750961 157.879706,81.227116 L169.551992,81.227116 C167.264082,76.3750961 165.599454,71.3995813 165.304438,66.0761536 C165.033328,64.1147798 166.157745,64.0832791 166.328507,65.4649987 C169.563845,78.5614896 186.794734,75.0128388 186.200884,62.6964431 C185.72034,52.7005699 176.33295,50.5511949 171.437204,53.8208533 C169.505785,55.0219953 169.614671,54.3044 170.669177,53.0537998 C177.940725,44.4803765 173.538079,33.4400626 163.719967,33.2271817 C163.719967,33.2270813 163.719967,33.2271817 163.709923,33.2271817 L163.711932,33.2271817 Z" id="path147-0-8-1-6-13-2-9-8-8" fill="#000000"></path>
            <path d="M60.1791373,33.2271817 C50.360825,33.4400626 45.9581791,44.4803765 53.2297269,53.0537998 C54.2843329,54.3044 54.3931183,55.0219953 52.4616998,53.8208533 C47.5660539,50.5511949 38.1788655,52.7005699 37.6980198,62.6964431 C37.1042703,75.0128388 54.3351597,78.5614896 57.5703963,65.4649987 C57.7412587,64.0832791 58.8655758,64.1147798 58.5945665,66.0761536 C58.29955,71.3995813 56.6349219,76.3750961 54.3469122,81.227116 L66.0191974,81.227116 C63.731288,76.3750961 62.06666,71.3995813 61.7716435,66.0761536 C61.5005337,64.1147798 62.6249512,64.0832791 62.7957132,65.4649987 C66.0310503,78.5614896 83.2619396,75.0128388 82.6680897,62.6964431 C82.1875454,52.7005699 72.800156,50.5511949 67.9044098,53.8208533 C65.9729912,55.0219953 66.0817766,54.3044 67.1363826,53.0537998 C74.4079304,44.4803765 70.0052845,33.4400626 60.1870727,33.2271817 C60.1870727,33.2270813 60.1870727,33.2271817 60.1770279,33.2271817 L60.1791373,33.2271817 Z" id="path147-0-8-1-6-75-2-83-3-5-0" fill="#000000"></path>
            <path d="M163.711932,279.648393 C153.893619,279.435412 149.490973,268.395098 156.762521,259.821675 C157.817127,258.571075 157.925913,257.853479 155.994494,259.054722 C151.098848,262.32428 141.711559,260.174905 141.230814,250.179032 C140.637165,237.862636 157.867954,234.313985 161.103191,247.410476 C161.274053,248.792296 162.398571,248.760695 162.127361,246.799421 C161.832344,241.475893 160.167716,236.500379 157.879706,231.648359 L169.551992,231.648359 C167.264082,236.500379 165.599454,241.475893 165.304438,246.799421 C165.033328,248.760695 166.157745,248.792296 166.328507,247.410476 C169.563845,234.313985 186.794734,237.862636 186.200884,250.179032 C185.72034,260.174905 176.33295,262.32428 171.437204,259.054722 C169.505785,257.853479 169.614671,258.571075 170.669177,259.821675 C177.940725,268.395098 173.538079,279.435412 163.719967,279.648393 C163.719967,279.648393 163.719967,279.648293 163.709923,279.648393 L163.711932,279.648393 Z" id="path147-0-8-1-6-7-5-5-7-63-0-4" fill="#000000"></path>
            <path d="M60.1791373,279.648393 C50.360825,279.435412 45.9581791,268.395098 53.2297269,259.821675 C54.2843329,258.571075 54.3931183,257.853479 52.4616998,259.054722 C47.5660539,262.32428 38.1788655,260.174905 37.6980198,250.179032 C37.1042703,237.862636 54.3351597,234.313985 57.5703963,247.410476 C57.7412587,248.792296 58.8655758,248.760695 58.5945665,246.799421 C58.29955,241.475893 56.6349219,236.500379 54.3469122,231.648359 L66.0191974,231.648359 C63.731288,236.500379 62.06666,241.475893 61.7716435,246.799421 C61.5005337,248.760695 62.6249512,248.792296 62.7957132,247.410476 C66.0310503,234.313985 83.2619396,237.862636 82.6680897,250.179032 C82.1875454,260.174905 72.800156,262.32428 67.9044098,259.054722 C65.9729912,257.853479 66.0817766,258.571075 67.1363826,259.821675 C74.4079304,268.395098 70.0052845,279.435412 60.1870727,279.648393 C60.1870727,279.648393 60.1870727,279.648293 60.1770279,279.648393 L60.1791373,279.648393 Z" id="path147-0-8-1-6-75-6-1-2-46-5-0" fill="#000000"></path>
            <path d="M111.945534,132.43772 C102.127222,132.650701 97.7246767,143.691015 104.996124,152.264438 C106.05083,153.514938 106.159616,154.232634 104.228097,153.031392 C99.3325515,149.761733 89.9451622,151.911209 89.4645174,161.907082 C88.8707679,174.223377 106.101557,177.772128 109.336793,164.675637 C109.507656,163.293817 110.631973,163.325318 110.360964,165.286692 C110.065947,170.61012 108.40142,175.585735 106.11341,180.437755 L117.785594,180.437755 C115.497685,175.585735 113.833057,170.61012 113.538041,165.286692 C113.266931,163.325318 114.391348,163.293817 114.56211,164.675637 C117.797447,177.772128 135.028337,174.223377 134.434487,161.907082 C133.953942,151.911209 124.566553,149.761733 119.670807,153.031392 C117.739388,154.232634 117.848174,153.514938 118.90278,152.264438 C126.174328,143.691015 121.771682,132.650701 111.95357,132.43772 C111.95357,132.43772 111.95357,132.43782 111.943525,132.43772 L111.945534,132.43772 Z" id="path147-0-8-1-6-1-1-0-5-61-2-0" fill="#000000"></path>
            <path d="M206.34879,261.954296 C210.276014,261.866014 212.037274,257.265398 209.128594,253.693172 C208.706712,253.172105 208.663218,252.873049 209.435865,253.37355 C211.394104,254.735907 215.149059,253.840343 215.341317,249.675421 C215.578777,244.543606 208.686321,243.064976 207.392347,248.521831 C207.324042,249.097572 206.874235,249.08443 206.982618,248.267216 C207.100745,246.049122 207.766516,243.97599 208.6816,241.954324 L204.013067,241.954324 C204.928251,243.97599 205.594022,246.049122 205.712049,248.267216 C205.820533,249.08443 205.370726,249.097572 205.30232,248.521831 C204.008346,243.064976 197.11589,244.543606 197.35345,249.675421 C197.545708,253.840343 201.300563,254.735907 203.258902,253.37355 C204.03155,252.873049 203.988056,253.172105 203.566173,253.693172 C200.657494,257.265398 202.418652,261.865512 206.345776,261.954296 L206.345776,261.954296 L206.34879,261.954296 Z" id="path147-6-9-8-7-0-5-6-5-2-8" fill="#000000"></path>
            <path d="M60.1791373,99.3675406 C50.3609255,99.5804215 45.9582796,110.620735 53.2297269,119.194259 C54.2843329,120.444759 54.3932188,121.162354 52.4618002,119.961212 C47.5661544,116.691554 38.1788655,118.841029 37.6981203,128.836902 C37.1042703,141.153198 54.3352602,144.701849 57.5704967,131.605358 C57.7413592,130.223638 58.8655758,130.255139 58.5946669,132.216512 C58.2996505,137.53994 56.6350224,142.515455 54.3470126,147.367475 L66.0191974,147.367475 C63.731288,142.515555 62.06666,137.53994 61.7716435,132.216512 C61.5005337,130.255139 62.6249512,130.223638 62.7957132,131.605358 C66.0310503,144.701849 83.2619396,141.153198 82.6680897,128.836902 C82.1875454,118.841029 72.800156,116.691554 67.9044098,119.961212 C65.9729912,121.162354 66.0817766,120.444759 67.1363826,119.194259 C74.4079304,110.620735 70.0052845,99.5804215 60.1870727,99.3675406 C60.1870727,99.3674403 60.1870727,99.3675406 60.1770279,99.3675406 L60.1791373,99.3675406 Z" id="path147-0-8-1-6-75-2-9-77-4-4-2" fill="#000000"></path>
            <path d="M60.1791373,213.507934 C50.360825,213.294953 45.9581791,202.254639 53.2297269,193.681216 C54.2843329,192.430716 54.3931183,191.71302 52.4616998,192.914262 C47.5660539,196.183921 38.1788655,194.034446 37.6980198,184.038572 C37.1042703,171.722277 54.3351597,168.173526 57.5703963,181.270017 C57.7412587,182.651837 58.8655758,182.620336 58.5945665,180.658962 C58.29955,175.335434 56.6349219,170.359919 54.3469122,165.5079 L66.0191974,165.5079 C63.731288,170.359919 62.06666,175.335434 61.7716435,180.658962 C61.5005337,182.620336 62.6249512,182.651837 62.7957132,181.270017 C66.0310503,168.173526 83.2619396,171.722277 82.6680897,184.038572 C82.1875454,194.034446 72.800156,196.183921 67.9044098,192.914262 C65.9729912,191.71302 66.0817766,192.430716 67.1363826,193.681216 C74.4079304,202.254639 70.0052845,213.294953 60.1870727,213.507934 C60.1870727,213.507934 60.1870727,213.507834 60.1770279,213.507934 L60.1791373,213.507934 Z" id="path147-0-8-1-6-75-2-8-0-6-4-4" fill="#000000"></path>
            <path d="M163.711932,99.3675406 C153.893619,99.5804215 149.490973,110.620735 156.762521,119.194259 C157.817127,120.444759 157.925913,121.162354 155.994494,119.961212 C151.098848,116.691554 141.711559,118.841029 141.230814,128.836902 C140.637165,141.153198 157.867954,144.701849 161.103191,131.605358 C161.274053,130.223638 162.39847,130.255139 162.127361,132.216512 C161.832344,137.53994 160.167716,142.515455 157.879706,147.367475 L169.551992,147.367475 C167.264082,142.515555 165.599454,137.53994 165.304438,132.216512 C165.033328,130.255139 166.157745,130.223638 166.328507,131.605358 C169.563845,144.701849 186.794734,141.153198 186.200884,128.836902 C185.72034,118.841029 176.33295,116.691554 171.437204,119.961212 C169.505785,121.162354 169.614671,120.444759 170.669177,119.194259 C177.940725,110.620735 173.538079,99.5804215 163.719967,99.3675406 C163.719967,99.3674403 163.719967,99.3675406 163.709923,99.3675406 L163.711932,99.3675406 Z" id="path147-0-8-1-6-75-2-9-7-1-36-2-4" fill="#000000"></path>
            <path d="M163.711932,213.507934 C153.893619,213.294953 149.490973,202.254639 156.762521,193.681216 C157.817127,192.430716 157.925913,191.71302 155.994494,192.914262 C151.098848,196.183921 141.711559,194.034446 141.230814,184.038572 C140.637165,171.722277 157.867954,168.173526 161.103191,181.270017 C161.274053,182.651837 162.39847,182.620336 162.127361,180.658962 C161.832344,175.335434 160.167716,170.359919 157.879706,165.5079 L169.551992,165.5079 C167.264082,170.359919 165.599454,175.335434 165.304438,180.658962 C165.033328,182.620336 166.157745,182.651837 166.328507,181.270017 C169.563845,168.173526 186.794734,171.722277 186.200884,184.038572 C185.72034,194.034446 176.33295,196.183921 171.437204,192.914262 C169.505785,191.71302 169.614671,192.430716 170.669177,193.681216 C177.940725,202.254639 173.538079,213.294953 163.719967,213.507934 C163.719967,213.507934 163.719967,213.507834 163.709923,213.507934 L163.711932,213.507934 Z" id="path147-0-8-1-6-75-2-8-5-1-55-5-4" fill="#000000"></path>
            <path d="M17.5514197,50.0897188 C13.6240948,50.1780012 11.8630364,54.7785165 14.7716154,58.3508431 C15.1934979,58.8719098 15.2368916,59.1708661 14.4644447,58.6703651 C12.5060055,57.3080074 8.75125069,58.2036724 8.55889233,62.3685944 C8.32143272,67.5004092 15.2137885,68.9790388 16.507863,63.5221843 C16.5761678,62.9464428 17.025975,62.9595848 16.9174909,63.7767988 C16.7994642,65.9948936 16.1336934,68.0680248 15.2185095,70.0896914 L19.8872428,70.0896914 C18.972059,68.0680248 18.3061877,65.9948936 18.188161,63.7767988 C18.0796769,62.9595848 18.5293836,62.9464428 18.5977889,63.5221843 C19.8918634,68.9790388 26.7843196,67.5004092 26.5467596,62.3685944 C26.3545017,58.2036724 22.5996464,57.3080074 20.6413077,58.6703651 C19.8687603,59.1708661 19.9122544,58.8719098 20.3340365,58.3508431 C23.2427159,54.7785165 21.4815571,50.1784024 17.5544331,50.0897188 L17.5544331,50.0897188 L17.5514197,50.0897188 Z" id="path147-6-9-8-7-4-5-62-7-8-4" fill="#000000"></path>
            <path d="M8.33308471,40.5927414 L11.3519558,39.6355798 C12.4923446,42.6786133 14.7924081,43.5794949 17.2274741,43.3843708 C21.596269,43.0360567 23.0478464,38.1520345 23.3744036,33.8349256 C21.6721074,35.6406013 19.1148964,36.557133 16.935672,36.4642358 C9.96978817,36.0910421 8.18663119,30.5156083 8.12234433,24.6795409 C7.93199493,19.7588012 9.96597114,16.1946006 13.4553418,14.5578653 C15.3040914,13.7290141 19.536578,13.7290141 21.3956739,14.7110553 C25.664121,16.9632593 27.2467833,20.8535028 26.960104,30.1424146 C26.960104,37.7840574 25.3375638,46.6840252 17.1465129,46.8778452 C12.4165062,47.5325393 8.82035908,43.850562 8.33308471,40.5927414 L8.33308471,40.5927414 L8.33308471,40.5927414 Z M20.1909983,32.219057 C21.611738,31.3195799 22.4114064,30.4749784 23.0491522,29.2114368 C23.5710812,28.1730152 23.7522898,27.6309814 23.6019188,25.4835125 C23.2148918,19.943492 20.3119379,16.7982314 16.0987374,17.4215251 C13.7484497,17.7750559 12.4628128,19.0897612 11.7248196,21.5343806 C10.3632439,26.0557428 12.0912548,31.3444595 15.3259891,32.5621545 C16.7813835,33.1147219 19.0313234,32.9563153 20.1909983,32.219057 L20.1909983,32.219057 L20.1909983,32.219057 Z" id="path29-2-3-4" fill="#000000"></path>
            <path d="M215.564111,271.451173 L212.545341,272.408435 C211.404952,269.365402 209.104788,268.46452 206.669722,268.659644 C202.300927,269.007959 200.84945,273.892081 200.522793,278.20909 C202.225089,276.403414 204.7823,275.486782 206.961524,275.57988 C213.927408,275.952973 215.710665,281.528407 215.774952,287.364374 C215.965201,292.285114 213.931225,295.849314 210.441955,297.48615 C208.593105,298.314901 204.360618,298.314901 202.501522,297.33296 C198.232975,295.080756 196.650413,291.190512 196.937092,281.901601 C196.937092,274.259958 198.559632,265.35989 206.750683,265.16617 C211.48069,264.511476 215.076837,268.193453 215.564111,271.451274 L215.564111,271.451274 L215.564111,271.451173 Z M203.706198,279.824958 C202.285559,280.724435 201.48579,281.569037 200.848144,282.832578 C200.326115,283.8709 200.144806,284.413034 200.295277,286.560402 C200.682304,292.100523 203.585359,295.245683 207.798559,294.62239 C210.148847,294.268959 211.434383,292.954254 212.172377,290.509635 C213.534053,285.988172 211.806042,280.699556 208.571207,279.481861 C207.115813,278.929193 204.865873,279.0877 203.706198,279.824958 L203.706198,279.824958 L203.706198,279.824958 Z" id="path29-6-1-3-7" fill="#000000"></path>
        </g>
    </g>
</svg>