<?xml version="1.0" encoding="UTF-8" standalone="no"?>
<svg width="225px" height="314px" viewBox="0 0 225 314" version="1.1" xmlns="http://www.w3.org/2000/svg" xmlns:xlink="http://www.w3.org/1999/xlink">
    <!-- Generator: Sketch 39.1 (31720) - http://www.bohemiancoding.com/sketch -->
    <title>CA</title>
    <desc>Created with Sketch.</desc>
    <defs></defs>
    <g id="Page-3" stroke="none" stroke-width="1" fill="none" fill-rule="evenodd">
        <g id="CA" transform="translate(0.546759, 0.816682)">
            <rect id="rect4926" stroke="#000000" stroke-width="0.996732882" fill="#FFFFFF" x="0.535931433" y="0.116171591" width="223.228339" height="311.81103" rx="10.582488"></rect>
            <path d="M112.145807,132.43772 C102.327516,132.650701 97.9249306,143.691015 105.196417,152.264438 C106.251033,153.514938 106.359829,154.232634 104.42842,153.031392 C99.5327249,149.761733 90.1454269,151.911209 89.6647319,161.907082 C89.0709323,174.223377 106.30182,177.772128 109.537116,164.675637 C109.707919,163.293817 110.832306,163.325318 110.561206,165.286692 C110.26622,170.61012 108.601632,175.585735 106.313633,180.437755 L117.985907,180.437755 C115.698018,175.585735 114.033319,170.61012 113.738323,165.286692 C113.467223,163.325318 114.591621,163.293817 114.762423,164.675637 C117.997719,177.772128 135.228607,174.223377 134.634807,161.907082 C134.154213,151.911209 124.766814,149.761733 119.871119,153.031392 C117.939721,154.232634 118.048516,153.514938 119.103122,152.264438 C126.374619,143.691015 121.972024,132.650701 112.153823,132.43772 C112.153823,132.43762 112.153823,132.43782 112.143778,132.43772 L112.145807,132.43772 Z" id="path147-0-8-1-6-1-1-0-9-1-8" fill="#000000"></path>
            <path d="M206.549023,261.954296 C210.476327,261.866014 212.237426,257.265398 209.328827,253.693172 C208.906924,253.172105 208.86342,252.873049 209.636028,253.37355 C211.594326,254.735907 215.349221,253.840343 215.541519,249.67532 C215.779019,244.543606 208.886624,243.064976 207.592519,248.521831 C207.524516,249.097572 207.074427,249.08443 207.182922,248.267216 C207.300928,246.049122 207.966729,243.97589 208.881923,241.954324 L204.21322,241.954324 C205.128424,243.97589 205.794225,246.049122 205.912221,248.267216 C206.020726,249.08443 205.570929,249.097572 205.502624,248.521831 C204.208529,243.064976 197.316124,244.543606 197.553624,249.67532 C197.745922,253.840343 201.500827,254.735907 203.459125,253.37355 C204.231723,252.873049 204.188229,253.172105 203.766326,253.693172 C200.857727,257.265398 202.618826,261.865512 206.54602,261.954296 L206.54602,261.954296 L206.549023,261.954296 Z" id="path147-6-9-8-7-0-5-0-8-3" fill="#000000"></path>
            <path d="M7.65959866,46.9541894 L7.65959866,44.1324637 L10.3518922,44.1324637 L16.0872947,13.9542345 L19.3516911,13.9542345 L25.6695828,44.1324637 L27.8436841,44.1324637 L27.8436841,46.9541894 L20.4354973,46.9541894 L20.4354973,44.1324637 L22.4347985,44.1324637 L21.6363959,39.507771 L14.1626968,39.507771 L13.5853907,44.1324637 L15.5845916,44.1324637 L15.5845916,46.9541894 L7.65959866,46.9541894 L7.65959866,46.9541894 Z M20.9986903,36.2134336 L17.7496927,20.0610681 L14.7064933,36.2134336 L20.9986903,36.2134336 L20.9986903,36.2134336 Z" id="path41-6-3-5-1" fill="#000000"></path>
            <path d="M196.454077,265.089826 L196.454077,267.911451 L199.146371,267.911451 L204.881773,298.089781 L208.14617,298.089781 L214.464071,267.911451 L216.638173,267.911451 L216.638173,265.089826 L209.229976,265.089826 L209.229976,267.911451 L211.229277,267.911451 L210.430875,272.536144 L202.957175,272.536144 L202.379879,267.911451 L204.37907,267.911451 L204.37907,265.089826 L196.454077,265.089826 L196.454077,265.089826 Z M209.793179,275.830481 L206.544171,291.982947 L203.500972,275.830481 L209.793179,275.830481 L209.793179,275.830481 Z" id="path41-6-4-0-2-8" fill="#000000"></path>
            <path d="M17.7516313,50.0897188 C13.8243369,50.1780012 12.0632386,54.7785165 14.9718373,58.3508431 C15.3937299,58.8719098 15.437234,59.1708661 14.6646365,58.6703651 C12.7063382,57.3080074 8.95144313,58.2036724 8.75914505,62.3685944 C8.52164528,67.5004092 15.4140305,68.9790388 16.708135,63.5221843 C16.7761385,62.9464428 17.2262369,62.9595848 17.1177327,63.7767988 C16.9997362,65.9948936 16.3339353,68.0680248 15.4187315,70.0896914 L20.0874341,70.0896914 C19.1722303,68.0680248 18.5064294,65.9948936 18.3884329,63.7767988 C18.2799387,62.9595848 18.7297358,62.9464428 18.7980306,63.5221843 C20.0921351,68.9790388 26.9845304,67.5004092 26.7470306,62.3685944 C26.5547325,58.2036724 22.7998374,57.3080074 20.8415291,58.6703651 C20.0689316,59.1708661 20.1124357,58.8719098 20.5343383,58.3508431 C23.4429371,54.7785165 21.6818387,50.1784024 17.7546347,50.0897188 C17.7536302,50.0897188 17.7546347,50.0897188 17.7546347,50.0897188 L17.7516313,50.0897188 Z" id="path147-6-9-8-7-4-5-6-8-9" fill="#000000"></path>
        </g>
    </g>
</svg>