<?xml version="1.0" encoding="UTF-8" standalone="no"?>
<svg width="225px" height="314px" viewBox="0 0 225 314" version="1.1" xmlns="http://www.w3.org/2000/svg" xmlns:xlink="http://www.w3.org/1999/xlink">
    <!-- Generator: Sketch 39.1 (31720) - http://www.bohemiancoding.com/sketch -->
    <title>D10</title>
    <desc>Created with Sketch.</desc>
    <defs></defs>
    <g id="Page-3" stroke="none" stroke-width="1" fill="none" fill-rule="evenodd">
        <g id="D10" transform="translate(1.047200, 1.315700)">
            <rect id="rect6178" stroke="#000000" stroke-width="0.99673343" fill="#FFFFFF" x="0.0608" y="0.0405" width="223.22835" height="311.81104" rx="10.629921"></rect>
            <path d="M17.2785,70.01396 C15.1176,66.44536 12.8441,62.97686 10.0031,60.01396 C12.8441,57.05116 15.1176,53.58266 17.2785,50.01396 C19.4394,53.58266 21.7128,57.05116 24.5539,60.01396 C21.7128,62.97686 19.4394,66.44536 17.2785,70.01396 L17.2785,70.01396 Z" id="path7062-5" fill="#D40000"></path>
            <path d="M163.4418,80.73556 C158.2555,72.17076 152.7993,63.84646 145.9808,56.73556 C152.7993,49.62476 158.2556,41.30046 163.4418,32.73556 C168.628,41.30046 174.0842,49.62476 180.9027,56.73556 C174.0842,63.84646 168.628,72.17076 163.4418,80.73556 L163.4418,80.73556 Z" id="path7064-0" fill="#D40000"></path>
            <path d="M206.073,261.87856 C203.9121,258.30996 201.6386,254.84146 198.7976,251.87856 C201.6386,248.91576 203.9121,245.44726 206.073,241.87856 C208.2339,245.44726 210.5073,248.91576 213.3484,251.87856 C210.5073,254.84146 208.2339,258.30996 206.073,261.87856 L206.073,261.87856 Z" id="path7066-9" fill="#D40000"></path>
            <path d="M59.909,80.73556 C54.7228,72.17076 49.2665,63.84646 42.448,56.73556 C49.2665,49.62476 54.7228,41.30046 59.909,32.73556 C65.0952,41.30046 70.5514,49.62476 77.3699,56.73556 C70.5514,63.84646 65.0952,72.17076 59.909,80.73556 L59.909,80.73556 Z" id="path7068-2" fill="#D40000"></path>
            <path d="M163.4418,146.88306 C158.2555,138.31826 152.7993,129.99396 145.9808,122.88306 C152.7993,115.77226 158.2556,107.44796 163.4418,98.88296 C168.628,107.44796 174.0842,115.77226 180.9027,122.88306 C174.0842,129.99396 168.628,138.31826 163.4418,146.88306 L163.4418,146.88306 Z" id="path7070-0" fill="#D40000"></path>
            <path d="M59.909,146.88306 C54.7228,138.31826 49.2665,129.99396 42.448,122.88306 C49.2665,115.77226 54.7228,107.44796 59.909,98.88306 C65.0952,107.44796 70.5514,115.77226 77.3699,122.88306 C70.5514,129.99396 65.0952,138.31826 59.909,146.88306 L59.909,146.88306 Z" id="path7072-0" fill="#D40000"></path>
            <path d="M111.6754,113.80576 C106.4891,105.24096 101.0329,96.91666 94.2144,89.80576 C101.0329,82.69496 106.4891,74.37066 111.6754,65.80576 C116.8616,74.37066 122.3178,82.69496 129.1363,89.80576 C122.3178,96.91666 116.8616,105.24096 111.6754,113.80576 L111.6754,113.80576 Z" id="path7074-4" fill="#D40000"></path>
            <path d="M59.909,279.16186 C54.7228,270.59706 49.2665,262.27276 42.448,255.16186 C49.2665,248.05106 54.7228,239.72676 59.909,231.16186 C65.0952,239.72676 70.5514,248.05106 77.3699,255.16186 C70.5514,262.27276 65.0952,270.59706 59.909,279.16186 L59.909,279.16186 Z" id="path7084-9" fill="#D40000"></path>
            <path d="M163.4418,279.16886 C158.2555,270.60406 152.7993,262.27976 145.9808,255.16886 C152.7993,248.05806 158.2556,239.73376 163.4418,231.16886 C168.628,239.73376 174.0842,248.05806 180.9027,255.16886 C174.0842,262.27976 168.628,270.60406 163.4418,279.16886 L163.4418,279.16886 Z" id="path7086-7" fill="#D40000"></path>
            <path d="M163.4418,213.01506 C158.2555,204.45026 152.7993,196.12596 145.9808,189.01506 C152.7993,181.90426 158.2556,173.57996 163.4418,165.01506 C168.628,173.57996 174.0842,181.90426 180.9027,189.01506 C174.0842,196.12596 168.628,204.45026 163.4418,213.01506 L163.4418,213.01506 Z" id="path7088-6" fill="#D40000"></path>
            <path d="M59.909,212.98286 C54.7228,204.41806 49.2665,196.09376 42.448,188.98286 C49.2665,181.87206 54.7228,173.54776 59.909,164.98286 C65.0952,173.54776 70.5514,181.87206 77.3699,188.98286 C70.5514,196.09376 65.0952,204.41806 59.909,212.98286 L59.909,212.98286 Z" id="path7090-8" fill="#D40000"></path>
            <path d="M111.6754,246.08666 C106.4891,237.52186 101.0329,229.19756 94.2144,222.08666 C101.0329,214.97586 106.4892,206.65156 111.6754,198.08666 C116.8616,206.65156 122.3178,214.97586 129.1363,222.08666 C122.3178,229.19756 116.8616,237.52186 111.6754,246.08666 L111.6754,246.08666 Z" id="path7092-79" fill="#D40000"></path>
            <g id="g8345-9-6-9-5" transform="translate(6.675400, 13.749277)" fill="#D40000">
                <polygon id="path31-8-2-5-6" points="0.5828 33.1290973 0.5828 0.129747444 3.7816 0.129747444 3.7816 33.1290973"></polygon>
                <path d="M13.2635,0.129097457 C10.1842,0.129097457 7.7093,2.94168205 7.7093,6.43514323 L7.7093,26.8237016 C7.7093,30.3171727 10.1855,33.1284474 13.2635,33.1284474 L15.0609,33.1284474 C18.1401,33.1284474 20.6202,30.3171727 20.6202,26.8237016 L20.6202,6.43514323 C20.6202,2.94168205 18.1388,0.129097457 15.0609,0.129097457 L13.2635,0.129097457 L13.2635,0.129097457 Z M14.193,3.24938599 C16.011,3.24938599 17.4728,4.64388851 17.4728,6.38800415 L17.4728,27.0463072 C17.4728,28.7904228 16.011,30.1980151 14.193,30.1980151 C12.3751,30.1980151 10.9081,28.7904228 10.9081,27.0463072 L10.9081,6.38800415 C10.9081,4.64519849 12.3751,3.24938599 14.193,3.24938599 L14.193,3.24938599 L14.193,3.24938599 Z" id="path33-2-0-3-1"></path>
            </g>
            <g id="g8345-5-0-8-9" transform="translate(206.172900, 281.143478) scale(-1, -1) translate(-206.172900, -281.143478) translate(195.672900, 264.143813)" fill="#D40000">
                <polygon id="path31-1-3-1-4" points="0.5828 33.1290973 0.5828 0.129747444 3.7816 0.129747444 3.7816 33.1290973"></polygon>
                <path d="M13.2635,0.129097457 C10.1842,0.129097457 7.7093,2.94168205 7.7093,6.43514323 L7.7093,26.8237016 C7.7093,30.3171727 10.1855,33.1284474 13.2635,33.1284474 L15.0609,33.1284474 C18.1401,33.1284474 20.6202,30.3171727 20.6202,26.8237016 L20.6202,6.43514323 C20.6202,2.94168205 18.1388,0.129097457 15.0609,0.129097457 L13.2635,0.129097457 L13.2635,0.129097457 Z M14.193,3.24938599 C16.011,3.24938599 17.4728,4.64388851 17.4728,6.38800415 L17.4728,27.0463072 C17.4728,28.7904228 16.011,30.1980151 14.193,30.1980151 C12.3751,30.1980151 10.9081,28.7904228 10.9081,27.0463072 L10.9081,6.38800415 C10.9081,4.64519849 12.3751,3.24938599 14.193,3.24938599 L14.193,3.24938599 L14.193,3.24938599 Z" id="path33-5-5-1-9"></path>
            </g>
        </g>
    </g>
</svg>