<?xml version="1.0" encoding="UTF-8" standalone="no"?>
<svg width="226px" height="314px" viewBox="0 0 226 314" version="1.1" xmlns="http://www.w3.org/2000/svg" xmlns:xlink="http://www.w3.org/1999/xlink">
    <!-- Generator: Sketch 39.1 (31720) - http://www.bohemiancoding.com/sketch -->
    <title>D2</title>
    <desc>Created with Sketch.</desc>
    <defs></defs>
    <g id="Page-3" stroke="none" stroke-width="1" fill="none" fill-rule="evenodd">
        <g id="D2" transform="translate(1.047200, 1.315700)">
            <rect id="rect5989" stroke="#000000" stroke-width="0.99673343" fill="#FFFFFF" x="0.26056" y="0.0405" width="223.22835" height="311.81104" rx="10.629921"></rect>
            <path d="M111.87466,80.73552 C106.68845,72.17072 101.23222,63.84642 94.41372,56.73552 C101.23222,49.62472 106.68845,41.30042 111.87466,32.73552 C117.06087,41.30042 122.5171,49.62472 129.3356,56.73552 C122.5171,63.84642 117.06087,72.17072 111.87466,80.73552 L111.87466,80.73552 Z" id="path6516-8" fill="#D40000"></path>
            <path d="M17.47777,70.01392 C15.31685,66.44532 13.04342,62.97682 10.20238,60.01392 C13.04342,57.05112 15.31685,53.58262 17.47777,50.01392 C19.63869,53.58262 21.91212,57.05112 24.75316,60.01392 C21.91212,62.97682 19.63869,66.44532 17.47777,70.01392 L17.47777,70.01392 Z" id="path6518-2" fill="#D40000"></path>
            <path d="M206.27227,261.87856 C204.11135,258.30996 201.83792,254.84146 198.99688,251.87856 C201.83792,248.91576 204.11135,245.44726 206.27227,241.87856 C208.43319,245.44726 210.70662,248.91576 213.54766,251.87856 C210.70662,254.84146 208.43319,258.30996 206.27227,261.87856 L206.27227,261.87856 Z" id="path6522-0" fill="#D40000"></path>
            <path d="M111.87466,279.15683 C106.68845,270.59203 101.23221,262.26773 94.41372,255.15683 C101.23221,248.04603 106.68845,239.72173 111.87466,231.15683 C117.06087,239.72173 122.5171,248.04603 129.3356,255.15683 C122.5171,262.26773 117.06087,270.59203 111.87466,279.15683 L111.87466,279.15683 Z" id="path6538-6" fill="#D40000"></path>
            <path d="M8.08433,46.80766 L8.24513,44.77266 C8.75293,38.48436 10.10413,36.36296 17.76813,29.79846 C21.48893,26.61626 22.70903,25.04616 22.88003,23.22466 C23.36733,18.92816 19.56553,17.58726 17.08933,17.56756 C13.88023,17.53856 10.24943,19.49126 11.98253,24.03006 L8.38133,25.10776 C7.65753,20.87406 8.40233,16.90236 11.77173,15.13976 C16.27163,12.84156 22.04173,13.74256 24.95513,17.36336 C26.91323,19.79246 27.36063,23.15396 26.31023,25.78476 C23.24133,32.50516 12.83113,35.46206 11.97223,43.23796 L23.47783,43.23796 L23.47783,38.90866 L26.86823,38.90866 L26.86823,46.87836 L8.08433,46.80736 L8.08433,46.80766 Z" id="path15-34-1-4-2" fill="#D40000"></path>
            <path d="M215.66273,265.08476 L215.50193,267.11976 C214.99413,273.40796 213.64293,275.52936 205.97893,282.09396 C202.25813,285.27606 201.03803,286.84616 200.86703,288.66776 C200.37973,292.96426 204.18153,294.30516 206.65773,294.32486 C209.86683,294.35386 213.49763,292.40116 211.76453,287.86236 L215.36573,286.78466 C216.08953,291.01826 215.34473,294.99006 211.97533,296.75266 C207.47543,299.05086 201.70533,298.14986 198.79193,294.52906 C196.83383,292.09996 196.38643,288.73846 197.43683,286.10766 C200.50573,279.38726 210.91593,276.43036 211.77483,268.65446 L200.26923,268.65446 L200.26923,272.98376 L196.87883,272.98376 L196.87883,265.01406 L215.66273,265.08506 L215.66273,265.08476 Z" id="path15-5-4-6-4" fill="#D40000"></path>
        </g>
    </g>
</svg>