<?xml version="1.0" encoding="UTF-8" standalone="no"?>
<svg width="225px" height="314px" viewBox="0 0 225 314" version="1.1" xmlns="http://www.w3.org/2000/svg" xmlns:xlink="http://www.w3.org/1999/xlink">
    <!-- Generator: Sketch 39.1 (31720) - http://www.bohemiancoding.com/sketch -->
    <title>D5</title>
    <desc>Created with Sketch.</desc>
    <defs></defs>
    <g id="Page-3" stroke="none" stroke-width="1" fill="none" fill-rule="evenodd">
        <g id="D5" transform="translate(0.047200, 1.315700)">
            <rect id="rect6043" stroke="#000000" stroke-width="0.99673343" fill="#FFFFFF" x="0.9359" y="0.0405" width="223.22835" height="311.81104" rx="10.629921"></rect>
            <path d="M18.153,70.01392 C15.9921,66.44532 13.7186,62.97682 10.8776,60.01392 C13.7186,57.05112 15.9921,53.58262 18.153,50.01392 C20.3139,53.58262 22.5873,57.05112 25.4284,60.01392 C22.5873,62.97682 20.3139,66.44532 18.153,70.01392 L18.153,70.01392 Z" id="path6722-9" fill="#D40000"></path>
            <path d="M164.3163,80.73552 C159.1301,72.17072 153.6738,63.84642 146.8553,56.73552 C153.6738,49.62472 159.1301,41.30042 164.3163,32.73552 C169.5025,41.30042 174.9587,49.62472 181.7772,56.73552 C174.9587,63.84642 169.5025,72.17072 164.3163,80.73552 L164.3163,80.73552 Z" id="path6724-6" fill="#D40000"></path>
            <path d="M206.9475,261.87856 C204.7866,258.30996 202.5131,254.84146 199.6721,251.87856 C202.5131,248.91576 204.7866,245.44726 206.9475,241.87856 C209.1084,245.44726 211.3818,248.91576 214.2229,251.87856 C211.3818,254.84146 209.1084,258.30996 206.9475,261.87856 L206.9475,261.87856 Z" id="path6726-3" fill="#D40000"></path>
            <path d="M60.7835,80.73552 C55.5973,72.17072 50.141,63.84642 43.3225,56.73552 C50.141,49.62472 55.5973,41.30042 60.7835,32.73552 C65.9697,41.30042 71.4259,49.62472 78.2444,56.73552 C71.4259,63.84642 65.9697,72.17072 60.7835,80.73552 L60.7835,80.73552 Z" id="path6728-7" fill="#D40000"></path>
            <path d="M112.5499,179.94617 C107.3637,171.38137 101.9074,163.05707 95.0889,155.94617 C101.9074,148.83537 107.3637,140.51107 112.5499,131.94617 C117.7361,140.51107 123.1923,148.83537 130.0108,155.94617 C123.1923,163.05707 117.7361,171.38137 112.5499,179.94617 L112.5499,179.94617 Z" id="path6736-0" fill="#D40000"></path>
            <path d="M60.7835,279.1619 C55.5973,270.5971 50.141,262.2728 43.3225,255.1619 C50.141,248.0511 55.5973,239.7268 60.7835,231.1619 C65.9697,239.7268 71.4259,248.0511 78.2444,255.1619 C71.4259,262.2728 65.9697,270.5971 60.7835,279.1619 L60.7835,279.1619 Z" id="path6744-9" fill="#D40000"></path>
            <path d="M164.3163,279.16884 C159.1301,270.60404 153.6738,262.27974 146.8553,255.16884 C153.6738,248.05804 159.1301,239.73374 164.3163,231.16884 C169.5025,239.73374 174.9587,248.05804 181.7772,255.16884 C174.9587,262.27974 169.5025,270.60404 164.3163,279.16884 L164.3163,279.16884 Z" id="path6746-2" fill="#D40000"></path>
            <path d="M7.7501,38.33516 L10.9849,38.30416 C11.602,40.29596 12.9674,42.32056 14.8214,42.88236 C20.0592,44.13556 23.429,41.15376 24.5386,37.71616 C25.8847,33.54656 24.5086,27.69156 20.9026,25.61336 C17.9147,23.88996 13.4752,25.34356 11.4362,29.02996 L9.1708,27.61826 L10.387,13.87846 L25.1865,13.87846 L25.1865,17.12616 L13.1937,17.12616 L13.0034,22.85016 C15.5851,21.00376 19.5527,21.02336 22.133,22.31856 C27.0199,24.69276 29.2904,30.09066 28.3416,36.45246 C27.0251,42.78016 24.122,46.36576 17.574,46.87776 C10.2906,46.94476 7.7192,41.84386 7.7501,38.33556 L7.7501,38.33556 L7.7501,38.33516 Z" id="path21-9-8-2-7" fill="#D40000"></path>
            <path d="M217.3475,273.55736 L214.1127,273.58836 C213.4956,271.59646 212.1302,269.57196 210.2762,269.01016 C205.0384,267.75686 201.6686,270.73876 200.559,274.17626 C199.2129,278.34596 200.589,284.20086 204.195,286.27916 C207.1829,288.00256 211.6224,286.54896 213.6614,282.86256 L215.9268,284.27426 L214.7106,298.01406 L199.9111,298.01406 L199.9111,294.76636 L211.9039,294.76636 L212.0942,289.04226 C209.5125,290.88876 205.5449,290.86916 202.9646,289.57396 C198.0777,287.19976 195.8072,281.80176 196.756,275.44006 C198.0725,269.11226 200.9756,265.52676 207.5236,265.01466 C214.807,264.94766 217.3784,270.04856 217.3475,273.55686 L217.3475,273.55686 L217.3475,273.55736 Z" id="path21-3-0-8-6" fill="#D40000"></path>
        </g>
    </g>
</svg>