<?xml version="1.0" encoding="UTF-8" standalone="no"?>
<svg width="225px" height="314px" viewBox="0 0 225 314" version="1.1" xmlns="http://www.w3.org/2000/svg" xmlns:xlink="http://www.w3.org/1999/xlink">
    <!-- Generator: Sketch 39.1 (31720) - http://www.bohemiancoding.com/sketch -->
    <title>D6</title>
    <desc>Created with Sketch.</desc>
    <defs></defs>
    <g id="Page-3" stroke="none" stroke-width="1" fill="none" fill-rule="evenodd">
        <g id="D6" transform="translate(1.047200, 1.315700)">
            <rect id="rect6066" stroke="#000000" stroke-width="0.99673343" fill="#FFFFFF" x="0.1605" y="0.0405" width="223.22835" height="311.81104" rx="10.629921"></rect>
            <path d="M17.378,70.01392 C15.2171,66.44532 12.9436,62.97682 10.1026,60.01392 C12.9436,57.05112 15.2171,53.58262 17.378,50.01392 C19.5389,53.58262 21.8123,57.05112 24.6534,60.01392 C21.8123,62.97682 19.5389,66.44532 17.378,70.01392 L17.378,70.01392 Z" id="path6790-5" fill="#D40000"></path>
            <path d="M163.5413,80.73552 C158.3551,72.17072 152.8988,63.84642 146.0803,56.73552 C152.8988,49.62472 158.3551,41.30042 163.5413,32.73552 C168.7275,41.30042 174.1837,49.62472 181.0022,56.73552 C174.1837,63.84642 168.7275,72.17072 163.5413,80.73552 L163.5413,80.73552 Z" id="path6792-5" fill="#D40000"></path>
            <path d="M206.1725,261.87856 C204.0116,258.30996 201.7381,254.84146 198.8971,251.87856 C201.7381,248.91576 204.0116,245.44726 206.1725,241.87856 C208.3334,245.44726 210.6068,248.91576 213.4479,251.87856 C210.6068,254.84146 208.3334,258.30996 206.1725,261.87856 L206.1725,261.87856 Z" id="path6794-1" fill="#D40000"></path>
            <path d="M60.0085,80.73552 C54.8223,72.17072 49.366,63.84642 42.5475,56.73552 C49.366,49.62472 54.8223,41.30042 60.0085,32.73552 C65.1947,41.30042 70.6509,49.62472 77.4694,56.73552 C70.6509,63.84642 65.1947,72.17072 60.0085,80.73552 L60.0085,80.73552 Z" id="path6796-2" fill="#D40000"></path>
            <path d="M60.0085,179.91383 C54.8223,171.34903 49.366,163.02473 42.5475,155.91383 C49.366,148.80303 54.8223,140.47873 60.0085,131.91383 C65.1947,140.47873 70.6509,148.80303 77.4694,155.91383 C70.6509,163.02473 65.1947,171.34903 60.0085,179.91383 L60.0085,179.91383 Z" id="path6806-6" fill="#D40000"></path>
            <path d="M163.5413,179.9294 C158.3551,171.3646 152.8988,163.0403 146.0803,155.9294 C152.8988,148.8186 158.3551,140.4943 163.5413,131.9294 C168.7275,140.4943 174.1837,148.8186 181.0022,155.9294 C174.1837,163.0403 168.7275,171.3646 163.5413,179.9294 L163.5413,179.9294 Z" id="path6808-6" fill="#D40000"></path>
            <path d="M60.0085,279.1619 C54.8223,270.5971 49.366,262.2728 42.5475,255.1619 C49.366,248.0511 54.8223,239.7268 60.0085,231.1619 C65.1947,239.7268 70.6509,248.0511 77.4694,255.1619 C70.6509,262.2728 65.1947,270.5971 60.0085,279.1619 L60.0085,279.1619 Z" id="path6812-0" fill="#D40000"></path>
            <path d="M163.5413,279.16884 C158.3551,270.60404 152.8988,262.27974 146.0803,255.16884 C152.8988,248.05804 158.3551,239.73374 163.5413,231.16884 C168.7275,239.73374 174.1837,248.05804 181.0022,255.16884 C174.1837,262.27974 168.7275,270.60404 163.5413,279.16884 L163.5413,279.16884 Z" id="path6814-4" fill="#D40000"></path>
            <path d="M7.6856,36.72556 C7.2793,33.94816 7.2896,26.76816 7.6216,24.64416 C8.6463,18.13726 11.1315,15.15956 15.2945,14.18786 C19.338,13.24106 25.0182,14.29526 26.264,19.73356 L22.8839,19.79956 C21.0557,16.12256 16.4298,17.10466 13.8237,18.70486 C11.7448,19.97896 10.8049,25.29946 11.2073,25.62686 C11.2073,25.62686 15.139,22.71456 18.2388,22.92926 C24.8626,23.61936 27.5947,29.36416 27.3632,34.78806 C27.1524,41.31326 25.0837,46.53166 18.0626,46.87866 C11.3873,46.62066 8.3287,42.98156 7.6859,36.72616 L7.6859,36.72616 L7.6856,36.72556 Z M24.1487,35.00226 C24.1847,30.47536 22.1302,27.08246 18.2385,26.71056 C14.3506,26.33606 10.4279,30.13096 10.6992,34.74566 C10.9705,39.37996 12.764,43.27836 17.4799,43.25736 C22.5519,43.23736 24.1243,38.22496 24.1487,35.00226 L24.1487,35.00226 L24.1487,35.00226 Z" id="path23-5-3-5-5" fill="#D40000"></path>
            <path d="M215.862,275.16626 C216.2683,277.94376 216.258,285.12376 215.926,287.24776 C214.9013,293.75466 212.4161,296.73236 208.2531,297.70406 C204.2096,298.65086 198.5294,297.59666 197.2836,292.15836 L200.6637,292.09336 C202.4919,295.77036 207.1178,294.78826 209.7239,293.18806 C211.8028,291.91396 212.7427,286.59346 212.3403,286.26606 C212.3403,286.26606 208.4086,289.17836 205.3088,288.96366 C198.685,288.27356 195.9529,282.52876 196.1844,277.10486 C196.3952,270.57966 198.4639,265.36136 205.485,265.01436 C212.1603,265.27236 215.2189,268.91146 215.8617,275.16676 L215.8617,275.16676 L215.862,275.16626 Z M199.3989,276.88956 C199.3629,281.41656 201.4174,284.80946 205.3091,285.18136 C209.197,285.55586 213.1197,281.76096 212.8484,277.14626 C212.5771,272.51206 210.7836,268.61366 206.0677,268.63466 C200.9957,268.65466 199.4233,273.66706 199.3989,276.88956 L199.3989,276.88956 L199.3989,276.88956 Z" id="path23-6-5-6-6" fill="#D40000"></path>
        </g>
    </g>
</svg>