<?xml version="1.0" encoding="UTF-8" standalone="no"?>
<svg width="226px" height="314px" viewBox="0 0 226 314" version="1.1" xmlns="http://www.w3.org/2000/svg" xmlns:xlink="http://www.w3.org/1999/xlink">
    <!-- Generator: Sketch 39.1 (31720) - http://www.bohemiancoding.com/sketch -->
    <title>D7</title>
    <desc>Created with Sketch.</desc>
    <defs></defs>
    <g id="Page-3" stroke="none" stroke-width="1" fill="none" fill-rule="evenodd">
        <g id="D7" transform="translate(1.047200, 1.315700)">
            <rect id="rect6090" stroke="#000000" stroke-width="0.99673343" fill="#FFFFFF" x="0.3855" y="0.0405" width="223.22835" height="311.81104" rx="10.629921"></rect>
            <path d="M17.6031,70.01392 C15.4422,66.44532 13.1687,62.97682 10.3277,60.01392 C13.1687,57.05112 15.4422,53.58262 17.6031,50.01392 C19.764,53.58262 22.0374,57.05112 24.8785,60.01392 C22.0374,62.97682 19.764,66.44532 17.6031,70.01392 L17.6031,70.01392 Z" id="path6858-4" fill="#D40000"></path>
            <path d="M163.7664,80.73552 C158.5802,72.17072 153.1239,63.84642 146.3054,56.73552 C153.1239,49.62472 158.5802,41.30042 163.7664,32.73552 C168.9526,41.30042 174.4088,49.62472 181.2273,56.73552 C174.4088,63.84642 168.9526,72.17072 163.7664,80.73552 L163.7664,80.73552 Z" id="path6860-1" fill="#D40000"></path>
            <path d="M206.3976,261.87856 C204.2367,258.30996 201.9632,254.84146 199.1222,251.87856 C201.9632,248.91576 204.2367,245.44726 206.3976,241.87856 C208.5585,245.44726 210.8319,248.91576 213.673,251.87856 C210.8319,254.84146 208.5585,258.30996 206.3976,261.87856 L206.3976,261.87856 Z" id="path6862-0" fill="#D40000"></path>
            <path d="M60.2336,80.73552 C55.0474,72.17072 49.5911,63.84642 42.7726,56.73552 C49.5911,49.62472 55.0474,41.30042 60.2336,32.73552 C65.4198,41.30042 70.876,49.62472 77.6945,56.73552 C70.876,63.84642 65.4198,72.17072 60.2336,80.73552 L60.2336,80.73552 Z" id="path6864-5" fill="#D40000"></path>
            <path d="M112,130.32468 C106.8138,121.75988 101.3575,113.43557 94.539,106.32468 C101.3575,99.21388 106.8138,90.88958 112,82.32468 C117.1862,90.88958 122.6424,99.21388 129.4609,106.32468 C122.6424,113.43557 117.1862,121.75988 112,130.32468 L112,130.32468 Z" id="path6870-5" fill="#D40000"></path>
            <path d="M60.2336,179.91383 C55.0474,171.34903 49.5911,163.02473 42.7726,155.91383 C49.5911,148.80303 55.0474,140.47873 60.2336,131.91383 C65.4198,140.47873 70.876,148.80303 77.6945,155.91383 C70.876,163.02473 65.4198,171.34903 60.2336,179.91383 L60.2336,179.91383 Z" id="path6874-1" fill="#D40000"></path>
            <path d="M163.7664,179.9294 C158.5802,171.3646 153.1239,163.0403 146.3054,155.9294 C153.1239,148.8186 158.5802,140.4943 163.7664,131.9294 C168.9526,140.4943 174.4088,148.8186 181.2273,155.9294 C174.4088,163.0403 168.9526,171.3646 163.7664,179.9294 L163.7664,179.9294 Z" id="path6876-6" fill="#D40000"></path>
            <path d="M60.2336,279.1619 C55.0474,270.5971 49.5911,262.2728 42.7726,255.1619 C49.5911,248.0511 55.0474,239.7268 60.2336,231.1619 C65.4198,239.7268 70.876,248.0511 77.6945,255.1619 C70.876,262.2728 65.4198,270.5971 60.2336,279.1619 L60.2336,279.1619 Z" id="path6880-5" fill="#D40000"></path>
            <path d="M163.7664,279.16884 C158.5802,270.60404 153.1239,262.27974 146.3054,255.16884 C153.1239,248.05804 158.5802,239.73374 163.7664,231.16884 C168.9526,239.73374 174.4088,248.05804 181.2273,255.16884 C174.4088,262.27974 168.9526,270.60404 163.7664,279.16884 L163.7664,279.16884 Z" id="path6882-9" fill="#D40000"></path>
            <path d="M12.5289,46.87476 C14.6992,35.40146 17.0095,26.78806 23.0754,17.44006 L10.7457,17.44006 L10.7457,21.46386 L7.4723,21.46386 L7.4723,13.87836 L25.5066,13.87836 L27.7309,17.44006 C21.2883,24.47296 15.3921,47.20736 16.4361,46.87476 L12.5289,46.87476 L12.5289,46.87476 Z" id="path25-43-4-8-8" fill="#D40000"></path>
            <path d="M211.4688,265.01766 C209.2985,276.49086 206.9882,285.10436 200.9223,294.45236 L213.252,294.45236 L213.252,290.42846 L216.5254,290.42846 L216.5254,298.01406 L198.4911,298.01406 L196.2668,294.45236 C202.7094,287.41946 208.6056,264.68506 207.5616,265.01766 L211.4688,265.01766 L211.4688,265.01766 Z" id="path25-7-0-7-6" fill="#D40000"></path>
        </g>
    </g>
</svg>