<?xml version="1.0" encoding="UTF-8" standalone="no"?>
<svg width="225px" height="314px" viewBox="0 0 225 314" version="1.1" xmlns="http://www.w3.org/2000/svg" xmlns:xlink="http://www.w3.org/1999/xlink">
    <!-- Generator: Sketch 39.1 (31720) - http://www.bohemiancoding.com/sketch -->
    <title>D8</title>
    <desc>Created with Sketch.</desc>
    <defs></defs>
    <g id="Page-3" stroke="none" stroke-width="1" fill="none" fill-rule="evenodd">
        <g id="D8" transform="translate(0.047200, 1.315700)">
            <rect id="rect6116" stroke="#000000" stroke-width="0.99673343" fill="#FFFFFF" x="0.6106" y="0.0405" width="223.22835" height="311.81104" rx="10.629921"></rect>
            <path d="M17.8283,70.01396 C15.6674,66.44536 13.3939,62.97686 10.5529,60.01396 C13.3939,57.05116 15.6674,53.58266 17.8283,50.01396 C19.9891,53.58266 22.2626,57.05116 25.1037,60.01396 C22.2626,62.97686 19.9891,66.44536 17.8283,70.01396 L17.8283,70.01396 Z" id="path6926-2" fill="#D40000"></path>
            <path d="M163.9915,80.73556 C158.8053,72.17076 153.349,63.84646 146.5306,56.73556 C153.349,49.62476 158.8054,41.30046 163.9915,32.73556 C169.1777,41.30046 174.634,49.62476 181.4524,56.73556 C174.634,63.84646 169.1777,72.17076 163.9915,80.73556 L163.9915,80.73556 Z" id="path6928-9" fill="#D40000"></path>
            <path d="M206.6228,261.87856 C204.4619,258.30996 202.1884,254.84146 199.3474,251.87856 C202.1884,248.91576 204.4619,245.44726 206.6228,241.87856 C208.7836,245.44726 211.057,248.91576 213.8982,251.87856 C211.057,254.84146 208.7836,258.30996 206.6228,261.87856 L206.6228,261.87856 Z" id="path6930-6" fill="#D40000"></path>
            <path d="M60.4587,80.73556 C55.2725,72.17076 49.8162,63.84646 42.9978,56.73556 C49.8162,49.62476 55.2726,41.30046 60.4587,32.73556 C65.6449,41.30046 71.1012,49.62476 77.9196,56.73556 C71.1012,63.84646 65.6449,72.17076 60.4587,80.73556 L60.4587,80.73556 Z" id="path6932-2" fill="#D40000"></path>
            <path d="M112.2251,130.32466 C107.0389,121.75986 101.5826,113.43556 94.7642,106.32466 C101.5826,99.21386 107.0389,90.88956 112.2251,82.32466 C117.4113,90.88956 122.8676,99.21386 129.686,106.32466 C122.8676,113.43556 117.4113,121.75986 112.2251,130.32466 L112.2251,130.32466 Z" id="path6938-4" fill="#D40000"></path>
            <path d="M60.4587,179.91386 C55.2725,171.34906 49.8162,163.02476 42.9978,155.91386 C49.8162,148.80306 55.2726,140.47876 60.4587,131.91386 C65.6449,140.47876 71.1012,148.80306 77.9196,155.91386 C71.1012,163.02476 65.6449,171.34906 60.4587,179.91386 L60.4587,179.91386 Z" id="path6942-4" fill="#D40000"></path>
            <path d="M163.9915,179.92936 C158.8053,171.36456 153.349,163.04026 146.5306,155.92936 C153.349,148.81856 158.8054,140.49426 163.9915,131.92936 C169.1777,140.49426 174.634,148.81856 181.4524,155.92936 C174.634,163.04026 169.1777,171.36456 163.9915,179.92936 L163.9915,179.92936 Z" id="path6944-9" fill="#D40000"></path>
            <path d="M60.4587,279.16186 C55.2725,270.59706 49.8162,262.27276 42.9978,255.16186 C49.8162,248.05106 55.2726,239.72676 60.4587,231.16186 C65.6449,239.72676 71.1012,248.05106 77.9196,255.16186 C71.1012,262.27276 65.6449,270.59706 60.4587,279.16186 L60.4587,279.16186 Z" id="path6948-4" fill="#D40000"></path>
            <path d="M163.9915,279.16886 C158.8053,270.60406 153.349,262.27976 146.5306,255.16886 C153.349,248.05806 158.8054,239.73376 163.9915,231.16886 C169.1777,239.73376 174.634,248.05806 181.4524,255.16886 C174.634,262.27976 169.1777,270.60406 163.9915,279.16886 L163.9915,279.16886 Z" id="path6950-4" fill="#D40000"></path>
            <path d="M112.2251,229.53786 C107.0389,220.97306 101.5826,212.64876 94.7642,205.53786 C101.5826,198.42706 107.039,190.10276 112.2251,181.53786 C117.4113,190.10276 122.8676,198.42706 129.686,205.53786 C122.8676,212.64876 117.4113,220.97306 112.2251,229.53786 L112.2251,229.53786 Z" id="path6956-4" fill="#D40000"></path>
            <path d="M7.1071,37.21226 C7.2639,32.78216 8.8659,31.12036 12.0197,28.80256 C9.5036,26.98766 8.4429,24.31226 8.6589,22.03506 C9.177,16.52076 13.4352,13.76426 18.0817,13.88206 C22.732,14.00516 26.7343,17.69146 27.0467,21.69856 C27.318,25.18186 26.283,26.86326 23.8119,28.69516 C26.7446,31.17146 28.6178,32.79786 28.5484,37.16116 C28.4794,41.52446 24.7672,46.71656 18.2976,46.87506 C11.8281,47.03346 6.9463,41.64226 7.1071,37.21226 L7.1071,37.21226 L7.1071,37.21226 Z M25.1671,37.22826 C25.4435,33.21716 21.8976,30.51176 17.8952,30.47246 C13.9983,30.43046 10.5128,33.75676 10.5128,37.35786 C10.5128,41.22486 15.0474,43.32656 17.9762,43.33576 C21.5363,43.35176 24.9266,40.68136 25.1671,37.22826 L25.1671,37.22826 L25.1671,37.22826 Z M23.8865,22.87996 C23.9625,19.50546 20.8484,17.08416 17.6342,17.18106 C14.7762,17.26906 11.7535,19.44776 11.7484,22.27106 C11.7484,25.80546 15.1889,27.57066 18.1267,27.63876 C20.7932,27.69876 23.8261,25.43226 23.8865,22.87996 L23.8865,22.87996 L23.8865,22.87996 Z" id="path27-00-7-8-6" fill="#D40000"></path>
            <path d="M195.9016,274.68036 C196.0584,279.11046 197.6604,280.77216 200.8142,283.09006 C198.2981,284.90496 197.2374,287.58026 197.4534,289.85756 C197.9715,295.37186 202.2297,298.12836 206.8762,298.01046 C211.5265,297.88736 215.5288,294.20116 215.8412,290.19406 C216.1125,286.71076 215.0775,285.02936 212.6064,283.19736 C215.5391,280.72116 217.4123,279.09476 217.3429,274.73146 C217.2739,270.36816 213.5617,265.17596 207.0921,265.01756 C200.6226,264.85906 195.7408,270.25036 195.9016,274.68036 L195.9016,274.68036 L195.9016,274.68036 Z M213.9616,274.66436 C214.238,278.67536 210.6921,281.38086 206.6897,281.42016 C202.7928,281.46216 199.3073,278.13586 199.3073,274.53476 C199.3073,270.66776 203.8419,268.56606 206.7707,268.55686 C210.3308,268.54086 213.7211,271.21126 213.9616,274.66436 L213.9616,274.66436 L213.9616,274.66436 Z M212.681,289.01266 C212.757,292.38716 209.6429,294.80846 206.4287,294.71156 C203.5707,294.62356 200.548,292.44486 200.5429,289.62156 C200.5429,286.08716 203.9834,284.32196 206.9212,284.25386 C209.5877,284.19386 212.6206,286.46036 212.681,289.01266 L212.681,289.01266 L212.681,289.01266 Z" id="path27-0-1-9-8" fill="#D40000"></path>
        </g>
    </g>
</svg>