<?xml version="1.0" encoding="UTF-8" standalone="no"?>
<svg width="225px" height="314px" viewBox="0 0 225 314" version="1.1" xmlns="http://www.w3.org/2000/svg" xmlns:xlink="http://www.w3.org/1999/xlink">
    <!-- Generator: Sketch 39.1 (31720) - http://www.bohemiancoding.com/sketch -->
    <title>D9</title>
    <desc>Created with Sketch.</desc>
    <defs></defs>
    <g id="Page-3" stroke="none" stroke-width="1" fill="none" fill-rule="evenodd">
        <g id="D9" transform="translate(0.047200, 1.315700)">
            <rect id="rect6145" stroke="#000000" stroke-width="0.99673343" fill="#FFFFFF" x="0.8357" y="0.0405" width="223.22835" height="311.81104" rx="10.629921"></rect>
            <path d="M18.0533,70.01392 C15.8924,66.44532 13.6189,62.97682 10.7779,60.01392 C13.6189,57.05112 15.8924,53.58262 18.0533,50.01392 C20.2142,53.58262 22.4876,57.05112 25.3287,60.01392 C22.4876,62.97682 20.2142,66.44532 18.0533,70.01392 L18.0533,70.01392 Z" id="path6994-9" fill="#D40000"></path>
            <path d="M164.2166,80.73552 C159.0304,72.17072 153.5741,63.84642 146.7556,56.73552 C153.5741,49.62472 159.0304,41.30042 164.2166,32.73552 C169.4028,41.30042 174.859,49.62472 181.6775,56.73552 C174.859,63.84642 169.4028,72.17072 164.2166,80.73552 L164.2166,80.73552 Z" id="path6996-5" fill="#D40000"></path>
            <path d="M206.8478,261.87856 C204.6869,258.30996 202.4134,254.84146 199.5724,251.87856 C202.4134,248.91576 204.6869,245.44726 206.8478,241.87856 C209.0087,245.44726 211.2821,248.91576 214.1232,251.87856 C211.2821,254.84146 209.0087,258.30996 206.8478,261.87856 L206.8478,261.87856 Z" id="path6998-7" fill="#D40000"></path>
            <path d="M60.6838,80.73552 C55.4976,72.17072 50.0413,63.84642 43.2228,56.73552 C50.0413,49.62472 55.4976,41.30042 60.6838,32.73552 C65.87,41.30042 71.3262,49.62472 78.1447,56.73552 C71.3262,63.84642 65.87,72.17072 60.6838,80.73552 L60.6838,80.73552 Z" id="path7000-7" fill="#D40000"></path>
            <path d="M164.2166,146.88301 C159.0304,138.31821 153.5741,129.99391 146.7556,122.88301 C153.5741,115.77221 159.0304,107.44791 164.2166,98.88301 C169.4028,107.44791 174.859,115.77221 181.6775,122.88301 C174.859,129.99391 169.4028,138.31821 164.2166,146.88301 L164.2166,146.88301 Z" id="path7002-0" fill="#D40000"></path>
            <path d="M60.6838,146.88301 C55.4976,138.31821 50.0413,129.99391 43.2228,122.88301 C50.0413,115.77221 55.4976,107.44791 60.6838,98.88301 C65.87,107.44791 71.3262,115.77221 78.1447,122.88301 C71.3262,129.99391 65.87,138.31821 60.6838,146.88301 L60.6838,146.88301 Z" id="path7004-0" fill="#D40000"></path>
            <path d="M112.4502,179.94617 C107.264,171.38137 101.8077,163.05707 94.9892,155.94617 C101.8077,148.83537 107.264,140.51107 112.4502,131.94617 C117.6364,140.51107 123.0926,148.83537 129.9111,155.94617 C123.0926,163.05707 117.6364,171.38137 112.4502,179.94617 L112.4502,179.94617 Z" id="path7008-2" fill="#D40000"></path>
            <path d="M60.6838,279.1619 C55.4976,270.5971 50.0413,262.2728 43.2228,255.1619 C50.0413,248.0511 55.4976,239.7268 60.6838,231.1619 C65.87,239.7268 71.3262,248.0511 78.1447,255.1619 C71.3262,262.2728 65.87,270.5971 60.6838,279.1619 L60.6838,279.1619 Z" id="path7016-2" fill="#D40000"></path>
            <path d="M164.2166,279.16884 C159.0304,270.60404 153.5741,262.27974 146.7556,255.16884 C153.5741,248.05804 159.0304,239.73374 164.2166,231.16884 C169.4028,239.73374 174.859,248.05804 181.6775,255.16884 C174.859,262.27974 169.4028,270.60404 164.2166,279.16884 L164.2166,279.16884 Z" id="path7018-0" fill="#D40000"></path>
            <path d="M164.2166,213.01502 C159.0304,204.45022 153.5741,196.12592 146.7556,189.01502 C153.5741,181.90422 159.0304,173.57992 164.2166,165.01502 C169.4028,173.57992 174.859,181.90422 181.6775,189.01502 C174.859,196.12592 169.4028,204.45022 164.2166,213.01502 L164.2166,213.01502 Z" id="path7020-7" fill="#D40000"></path>
            <path d="M60.6838,212.98285 C55.4976,204.41805 50.0413,196.09375 43.2228,188.98285 C50.0413,181.87205 55.4976,173.54775 60.6838,164.98285 C65.87,173.54775 71.3262,181.87205 78.1447,188.98285 C71.3262,196.09375 65.87,204.41805 60.6838,212.98285 L60.6838,212.98285 Z" id="path7022-4" fill="#D40000"></path>
            <path d="M8.8335,40.51686 L11.8523,39.55976 C12.9927,42.60276 15.2928,43.50366 17.7279,43.30856 C22.0967,42.96026 23.5482,38.07616 23.8748,33.75906 C22.1725,35.56476 19.6153,36.48136 17.4361,36.38836 C10.4702,36.01516 8.687,30.43976 8.6227,24.60376 C8.4324,19.68306 10.4664,16.11886 13.9557,14.48206 C15.8045,13.65326 20.037,13.65326 21.8961,14.63526 C26.1646,16.88746 27.7473,20.77766 27.4606,30.06656 C27.4606,37.70826 25.838,46.60826 17.6469,46.80206 C12.9169,47.45676 9.3208,43.77476 8.8335,40.51686 L8.8335,40.51686 L8.8335,40.51686 Z M20.6914,32.14326 C22.1121,31.24376 22.9118,30.39916 23.5495,29.13556 C24.0715,28.09726 24.2528,27.55516 24.1023,25.40776 C23.7153,19.86766 20.8123,16.72246 16.5991,17.34576 C14.2488,17.69926 12.9632,19.01396 12.2252,21.45856 C10.8636,25.97996 12.5916,31.26856 15.8264,32.48636 C17.2818,33.03886 19.5317,32.88046 20.6914,32.14326 L20.6914,32.14326 L20.6914,32.14326 Z" id="path29-5-3-7-8" fill="#D40000"></path>
            <path d="M216.0646,271.37546 L213.0458,272.33266 C211.9054,269.28966 209.6053,268.38876 207.1702,268.58386 C202.8014,268.93216 201.3499,273.81626 201.0233,278.13336 C202.7256,276.32766 205.2828,275.41106 207.462,275.50406 C214.4279,275.87726 216.2111,281.45266 216.2754,287.28866 C216.4657,292.20936 214.4317,295.77356 210.9424,297.41036 C209.0936,298.23916 204.8611,298.23916 203.002,297.25716 C198.7336,295.00496 197.1509,291.11476 197.4376,281.82586 C197.4376,274.18416 199.0601,265.28416 207.2512,265.09036 C211.9812,264.43566 215.5773,268.11766 216.0646,271.37546 L216.0646,271.37546 L216.0646,271.37546 Z M204.2067,279.74916 C202.786,280.64866 201.9863,281.49326 201.3486,282.75686 C200.8266,283.79516 200.6454,284.33726 200.7958,286.48466 C201.1828,292.02476 204.0858,295.16996 208.299,294.54666 C210.6493,294.19316 211.9349,292.87846 212.6729,290.43386 C214.0345,285.91246 212.3065,280.62376 209.0717,279.40606 C207.6163,278.85346 205.3664,279.01196 204.2067,279.74916 L204.2067,279.74916 L204.2067,279.74916 Z" id="path29-6-2-9-2" fill="#D40000"></path>
        </g>
    </g>
</svg>