<?xml version="1.0" encoding="UTF-8" standalone="no"?>
<svg width="225px" height="314px" viewBox="0 0 225 314" version="1.1" xmlns="http://www.w3.org/2000/svg" xmlns:xlink="http://www.w3.org/1999/xlink">
    <!-- Generator: Sketch 39.1 (31720) - http://www.bohemiancoding.com/sketch -->
    <title>H10</title>
    <desc>Created with Sketch.</desc>
    <defs></defs>
    <g id="Page-3" stroke="none" stroke-width="1" fill="none" fill-rule="evenodd">
        <g id="H10" transform="translate(0.546714, -0.185985)">
            <rect id="rect5839" stroke="#000000" stroke-width="0.996734187" fill="#FFFFFF" x="0.561304709" y="0.92656374" width="223.228352" height="311.81103" rx="10.582486"></rect>
            <path d="M60.4093646,147.761987 C60.4093646,147.761987 55.7430421,140.10651 49.4484538,131.105719 C45.2374631,125.082463 41.8708402,118.560392 41.5578435,112.942632 C41.1988415,106.525326 44.5971056,100.087253 50.7492583,99.7752246 C56.897795,99.4633771 59.3934312,104.723252 60.4093646,109.059833 C61.4253985,104.723252 63.9210347,99.4633771 70.0695714,99.7752246 C76.2218245,100.087253 79.6199882,106.525326 79.2609862,112.942632 C78.9479895,118.560392 75.5813666,125.082463 71.3703759,131.105719 C65.0757876,140.10651 60.4093646,147.761987 60.4093646,147.761987 L60.4093646,147.761987 Z" id="path10308-5-1" fill="#D40000"></path>
            <path d="M17.7789349,70.8999832 C17.7789349,70.8999832 15.5542075,67.7101802 12.5532162,63.9598844 C10.5455574,61.4501567 8.94049516,58.7326644 8.79122909,56.3918771 C8.62016575,53.7180244 10.2401948,51.0354438 13.1732831,50.9054279 C16.1047643,50.7755124 17.2945736,52.9671225 17.7789349,54.7741024 C18.2632963,52.9671225 19.453206,50.7755124 22.3844863,50.9054279 C25.317675,51.0354438 26.9378045,53.7180244 26.7666407,56.3918771 C26.6174751,58.7326644 25.0123124,61.4501567 23.0047541,63.9598844 C20.0036623,67.7101802 17.7789349,70.8999832 17.7789349,70.8999832 L17.7789349,70.8999832 Z" id="path10310-7-8" fill="#D40000"></path>
            <path d="M206.573392,242.764586 C206.573392,242.764586 204.348765,245.954368 201.347774,249.704694 C199.340015,252.214382 197.735053,254.931914 197.585686,257.272642 C197.414623,259.946524 199.034753,262.629045 201.967841,262.759071 C204.899222,262.888996 206.089031,260.697386 206.573392,258.890476 C207.057854,260.697386 208.247764,262.888996 211.179044,262.759071 C214.112132,262.629045 215.732362,259.946524 215.561098,257.272642 C215.411932,254.931914 213.80687,252.214382 211.799211,249.704694 C208.79812,245.954368 206.573392,242.764586 206.573392,242.764586 L206.573392,242.764586 Z" id="path10312-3-5" fill="#D40000"></path>
            <path d="M112.175762,124.261979 C112.175762,124.261979 107.509439,116.606512 101.214851,107.605722 C97.0038602,101.582465 93.6372373,95.0603936 93.3242406,89.4426344 C92.9652387,83.0253278 96.3635027,76.5872748 102.515655,76.2751765 C108.664192,75.9633792 111.159828,81.2232536 112.175762,85.5598348 C113.191796,81.2232536 115.687432,75.9633792 121.835968,76.2751765 C127.988222,76.5872748 131.386385,83.0253278 131.027383,89.4426344 C130.714387,95.0603936 127.347764,101.582465 123.136773,107.605722 C116.842185,116.606512 112.175762,124.261979 112.175762,124.261979 L112.175762,124.261979 Z" id="path10314-8-8" fill="#D40000"></path>
            <path d="M60.4093646,81.6215576 C60.4093646,81.6215576 55.7430421,73.9660906 49.4484538,64.9653003 C45.2374631,58.9420341 41.8708402,52.4199724 41.5578435,46.8022032 C41.1988415,40.3848765 44.5971056,33.9467834 50.7492583,33.6347854 C56.897795,33.3229881 59.3934312,38.5828124 60.4093646,42.9193835 C61.4253985,38.5828124 63.9210347,33.3229881 70.0695714,33.6347854 C76.2218245,33.9467834 79.6199882,40.3848765 79.2609862,46.8022032 C78.9479895,52.4199724 75.5813666,58.9420341 71.3703759,64.9653003 C65.0757876,73.9660906 60.4093646,81.6215576 60.4093646,81.6215576 L60.4093646,81.6215576 Z" id="path10318-3-7" fill="#D40000"></path>
            <path d="M163.942159,147.761987 C163.942159,147.761987 159.275836,140.10651 152.981248,131.105719 C148.770257,125.082463 145.403634,118.560392 145.090638,112.942632 C144.731636,106.525326 148.1299,100.087253 154.282053,99.7752246 C160.430589,99.4633771 162.926326,104.723252 163.942159,109.059833 C164.958193,104.723252 167.453929,99.4633771 173.602366,99.7752246 C179.754619,100.087253 183.152782,106.525326 182.79378,112.942632 C182.480784,118.560392 179.114161,125.082463 174.90317,131.105719 C168.608582,140.10651 163.942159,147.761987 163.942159,147.761987 L163.942159,147.761987 Z" id="path10322-4-6" fill="#D40000"></path>
            <path d="M163.942159,81.6215576 C163.942159,81.6215576 159.275836,73.9660906 152.981248,64.9653003 C148.770257,58.9420341 145.403634,52.4199724 145.090638,46.8022032 C144.731636,40.3848765 148.1299,33.9467834 154.282053,33.6347854 C160.430589,33.3229881 162.926326,38.5828124 163.942159,42.9193835 C164.958193,38.5828124 167.453929,33.3229881 173.602366,33.6347854 C179.754619,33.9467834 183.152782,40.3848765 182.79378,46.8022032 C182.480784,52.4199724 179.114161,58.9420341 174.90317,64.9653003 C168.608582,73.9660906 163.942159,81.6215576 163.942159,81.6215576 L163.942159,81.6215576 Z" id="path10324-9-8" fill="#D40000"></path>
            <path d="M112.175762,189.402419 C112.175762,189.402419 107.509439,197.057886 101.214851,206.058687 C97.0038602,212.081953 93.6372373,218.604025 93.3242406,224.221774 C92.9652387,230.63908 96.3635027,237.077153 102.515655,237.389182 C108.664192,237.701029 111.159828,232.441145 112.175762,228.104573 C113.191796,232.441145 115.687432,237.701029 121.835968,237.389182 C127.988222,237.077153 131.386385,230.63908 131.027383,224.221774 C130.714387,218.604025 127.347764,212.081953 123.136773,206.058687 C116.842185,197.057886 112.175762,189.402419 112.175762,189.402419 L112.175762,189.402419 Z" id="path10332-8-6" fill="#D40000"></path>
            <path d="M163.942159,165.902421 C163.942159,165.902421 159.275836,173.557888 152.981248,182.558679 C148.770257,188.581945 145.403634,195.104007 145.090638,200.721776 C144.731636,207.139083 148.1299,213.577156 154.282053,213.889184 C160.430589,214.201031 162.926326,208.941147 163.942159,204.604576 C164.958193,208.941147 167.453929,214.201031 173.602366,213.889184 C179.754619,213.577156 183.152782,207.139083 182.79378,200.721776 C182.480784,195.104007 179.114161,188.581945 174.90317,182.558679 C168.608582,173.557888 163.942159,165.902421 163.942159,165.902421 L163.942159,165.902421 Z" id="path10334-5-0" fill="#D40000"></path>
            <path d="M60.4093646,165.902421 C60.4093646,165.902421 55.7430421,173.557888 49.4484538,182.558679 C45.2374631,188.581945 41.8708402,195.104007 41.5578435,200.721776 C41.1988415,207.139083 44.5971056,213.577156 50.7492583,213.889184 C56.897795,214.201031 59.3934312,208.941147 60.4093646,204.604576 C61.4253985,208.941147 63.9210347,214.201031 70.0695714,213.889184 C76.2218245,213.577156 79.6199882,207.139083 79.2609862,200.721776 C78.9479895,195.104007 75.5813666,188.581945 71.3703759,182.558679 C65.0757876,173.557888 60.4093646,165.902421 60.4093646,165.902421 L60.4093646,165.902421 Z" id="path10336-3-5" fill="#D40000"></path>
            <path d="M163.942159,232.042861 C163.942159,232.042861 159.275836,239.698328 152.981248,248.699118 C148.770257,254.722384 145.403634,261.244446 145.090638,266.862205 C144.731636,273.279522 148.1299,279.717585 154.282053,280.029623 C160.430589,280.34147 162.926326,275.081586 163.942159,270.745005 C164.958193,275.081586 167.453929,280.34147 173.602366,280.029623 C179.754619,279.717585 183.152782,273.279522 182.79378,266.862205 C182.480784,261.244446 179.114161,254.722384 174.90317,248.699118 C168.608582,239.698328 163.942159,232.042861 163.942159,232.042861 L163.942159,232.042861 Z" id="path10338-2-9" fill="#D40000"></path>
            <path d="M60.4093646,232.042861 C60.4093646,232.042861 55.7430421,239.698328 49.4484538,248.699118 C45.2374631,254.722384 41.8708402,261.244446 41.5578435,266.862205 C41.1988415,273.279522 44.5971056,279.717585 50.7492583,280.029623 C56.897795,280.34147 59.3934312,275.081586 60.4093646,270.745005 C61.4253985,275.081586 63.9210347,280.34147 70.0695714,280.029623 C76.2218245,279.717585 79.6199882,273.279522 79.2609862,266.862205 C78.9479895,261.244446 75.5813666,254.722384 71.3703759,248.699118 C65.0757876,239.698328 60.4093646,232.042861 60.4093646,232.042861 L60.4093646,232.042861 Z" id="path10340-9-7" fill="#D40000"></path>
            <g id="g7724-24-8-9-7" transform="translate(7.175996, 14.635361)" fill="#D40000">
                <g id="g8345-9-7-5-1">
                    <polygon id="path31-8-2-9-8" points="0.582800023 33.1290964 0.582800023 0.12974744 3.78160015 0.12974744 3.78160015 33.1290964"></polygon>
                    <path d="M13.2635005,0.129097453 C10.1842004,0.129097453 7.7093003,2.94168197 7.7093003,6.43514305 L7.7093003,26.8237008 C7.7093003,30.3171719 10.1855004,33.1284465 13.2635005,33.1284465 L15.0609006,33.1284465 C18.1401007,33.1284465 20.6202008,30.3171719 20.6202008,26.8237008 L20.6202008,6.43514305 C20.6202008,2.94168197 18.1388007,0.129097453 15.0609006,0.129097453 L13.2635005,0.129097453 L13.2635005,0.129097453 Z M14.1930006,3.2493859 C16.0110006,3.2493859 17.4728007,4.64388839 17.4728007,6.38800398 L17.4728007,27.0463064 C17.4728007,28.790422 16.0110006,30.1980143 14.1930006,30.1980143 C12.3751005,30.1980143 10.9081004,28.790422 10.9081004,27.0463064 L10.9081004,6.38800398 C10.9081004,4.64519836 12.3751005,3.2493859 14.1930006,3.2493859 L14.1930006,3.2493859 L14.1930006,3.2493859 Z" id="path33-2-3-1-6"></path>
                </g>
            </g>
            <g id="g7724-2-5-0-2-7" transform="translate(206.865834, 282.200291) scale(-1, -1) translate(-206.865834, -282.200291) translate(195.865834, 264.700636)" fill="#D40000">
                <g id="g8345-5-0-9-6-9">
                    <g id="g10963-5-1" transform="translate(0.692330, 0.670786)">
                        <polygon id="path31-1-3-2-1-5" points="0.582800023 33.1290964 0.582800023 0.12974744 3.78160015 0.12974744 3.78160015 33.1290964"></polygon>
                        <path d="M13.2635005,0.129097453 C10.1842004,0.129097453 7.7093003,2.94168197 7.7093003,6.43514305 L7.7093003,26.8237008 C7.7093003,30.3171719 10.1855004,33.1284465 13.2635005,33.1284465 L15.0609006,33.1284465 C18.1401007,33.1284465 20.6202008,30.3171719 20.6202008,26.8237008 L20.6202008,6.43514305 C20.6202008,2.94168197 18.1388007,0.129097453 15.0609006,0.129097453 L13.2635005,0.129097453 L13.2635005,0.129097453 Z M14.1930006,3.2493859 C16.0110006,3.2493859 17.4728007,4.64388839 17.4728007,6.38800398 L17.4728007,27.0463064 C17.4728007,28.790422 16.0110006,30.1980143 14.1930006,30.1980143 C12.3751005,30.1980143 10.9081004,28.790422 10.9081004,27.0463064 L10.9081004,6.38800398 C10.9081004,4.64519836 12.3751005,3.2493859 14.1930006,3.2493859 L14.1930006,3.2493859 L14.1930006,3.2493859 Z" id="path33-5-5-3-3-1"></path>
                    </g>
                </g>
            </g>
        </g>
    </g>
</svg>