<?xml version="1.0" encoding="UTF-8" standalone="no"?>
<svg width="225px" height="314px" viewBox="0 0 225 314" version="1.1" xmlns="http://www.w3.org/2000/svg" xmlns:xlink="http://www.w3.org/1999/xlink">
    <!-- Generator: Sketch 39.1 (31720) - http://www.bohemiancoding.com/sketch -->
    <title>H3</title>
    <desc>Created with Sketch.</desc>
    <defs></defs>
    <g id="Page-3" stroke="none" stroke-width="1" fill="none" fill-rule="evenodd">
        <g id="H3" transform="translate(-0.455241, -0.185985)">
            <rect id="rect5631" stroke="#000000" stroke-width="0.996734187" fill="#FFFFFF" x="0.988109239" y="0.92656374" width="223.228352" height="311.81103" rx="10.582486"></rect>
            <path d="M18.2052372,70.8999832 C18.2052372,70.8999832 15.9805098,67.7101802 12.9795185,63.9598844 C10.9718597,61.4501567 9.36679745,58.7326644 9.21753138,56.3918771 C9.04646804,53.7180244 10.6664971,51.0354438 13.5995854,50.9054279 C16.5310666,50.7755124 17.7208758,52.9671225 18.2052372,54.7741024 C18.6895986,52.9671225 19.8795083,50.7755124 22.8107886,50.9054279 C25.7439773,51.0354438 27.3641068,53.7180244 27.192943,56.3918771 C27.0437774,58.7326644 25.4386147,61.4501567 23.4310564,63.9598844 C20.4299646,67.7101802 18.2052372,70.8999832 18.2052372,70.8999832 L18.2052372,70.8999832 Z" id="path9834-5-2" fill="#D40000"></path>
            <path d="M206.999694,242.764586 C206.999694,242.764586 204.775068,245.954368 201.774076,249.704694 C199.766317,252.214382 198.161355,254.931914 198.011989,257.272642 C197.840925,259.946524 199.461055,262.629045 202.394143,262.759071 C205.325524,262.888996 206.515333,260.697386 206.999694,258.890476 C207.484156,260.697386 208.674066,262.888996 211.605346,262.759071 C214.538435,262.629045 216.158665,259.946524 215.9874,257.272642 C215.838235,254.931914 214.233172,252.214382 212.225514,249.704694 C209.224422,245.954368 206.999694,242.764586 206.999694,242.764586 L206.999694,242.764586 Z" id="path9836-5-8" fill="#D40000"></path>
            <path d="M112.602064,81.6215576 C112.602064,81.6215576 107.935742,73.9660906 101.641153,64.9653003 C97.4301625,58.9420341 94.0635396,52.4199724 93.7505429,46.8022032 C93.3915409,40.3848765 96.789805,33.9467834 102.941958,33.6347854 C109.090494,33.3229881 111.586131,38.5828124 112.602064,42.9193835 C113.618098,38.5828124 116.113734,33.3229881 122.262271,33.6347854 C128.414524,33.9467834 131.812688,40.3848765 131.453686,46.8022032 C131.140689,52.4199724 127.774066,58.9420341 123.563075,64.9653003 C117.268487,73.9660906 112.602064,81.6215576 112.602064,81.6215576 L112.602064,81.6215576 Z" id="path9840-3-6" fill="#D40000"></path>
            <path d="M112.602064,180.832206 C112.602064,180.832206 107.935742,173.176729 101.641153,164.175939 C97.4301625,158.152683 94.0635396,151.630611 93.7505429,146.012852 C93.3915409,139.595545 96.789805,133.157472 102.941958,132.845444 C109.090494,132.533597 111.586131,137.793471 112.602064,142.130052 C113.618098,137.793471 116.113734,132.533597 122.262271,132.845444 C128.414424,133.157472 131.812688,139.595545 131.453686,146.012852 C131.140689,151.630611 127.774066,158.152683 123.563075,164.175939 C117.268487,173.176729 112.602064,180.832206 112.602064,180.832206 L112.602064,180.832206 Z" id="path9850-2-3" fill="#D40000"></path>
            <path d="M112.602064,232.042861 C112.602064,232.042861 107.935742,239.698328 101.641153,248.699118 C97.4301625,254.722384 94.0635396,261.244446 93.7505429,266.862205 C93.3915409,273.279522 96.789805,279.717585 102.941958,280.029623 C109.090494,280.34147 111.586131,275.081586 112.602064,270.745005 C113.618098,275.081586 116.113734,280.34147 122.262271,280.029623 C128.414524,279.717585 131.812688,273.279522 131.453686,266.862205 C131.140689,261.244446 127.774066,254.722384 123.563075,248.699118 C117.268487,239.698328 112.602064,232.042861 112.602064,232.042861 L112.602064,232.042861 Z" id="path9854-8-0" fill="#D40000"></path>
            <path d="M7.49376944,40.5308434 L10.0343764,38.6622665 C12.2393155,42.2526508 14.7051186,44.6174149 18.4773515,44.2115165 C24.1370065,43.8225725 26.4820709,37.8897957 25.2979872,33.4194968 C24.1524756,29.4087679 19.4660634,27.4552192 15.7401372,29.5933584 C14.8608134,30.1001795 14.0122267,30.5139029 13.8463867,30.5139029 C13.4555426,30.5139029 12.5709955,28.7540738 12.6918348,28.2172567 C15.1924934,24.5652754 21.2647898,18.1676116 21.2647898,18.1676116 L11.7776554,18.1676116 L11.7776554,22.4520158 L8.13666824,22.4520158 L8.13666824,14.7645263 L26.6787485,14.7645263 L26.6787485,17.3727692 C26.6787485,17.3727692 21.7108804,22.5252501 20.0690541,25.3469757 C24.1125976,25.4949491 27.3717409,28.0575459 28.5417619,32.1088044 C29.2245085,34.2418271 28.9184427,39.1206327 28.0248553,41.2234588 C26.532295,44.7286707 22.4553023,47.572768 18.7281707,47.7363913 C12.4706478,48.1567359 9.15103465,43.7729136 7.49376944,40.5308434 L7.49376944,40.5308434 L7.49376944,40.5308434 Z" id="path17-2-9-8-4" fill="#D40000"></path>
            <path d="M217.70838,273.133806 L215.167743,275.002302 C212.962904,271.411908 210.497,269.047104 206.724768,269.453102 C201.065213,269.842006 198.720048,275.774803 199.904132,280.245102 C201.049644,284.255801 205.736056,286.2094 209.461982,284.0712 C210.341406,283.564399 211.189892,283.150706 211.355732,283.150706 C211.746576,283.150706 212.631224,284.910505 212.510284,285.447302 C210.009626,289.099303 203.937329,295.496997 203.937329,295.496997 L213.424464,295.496997 L213.424464,291.212603 L217.065511,291.212603 L217.065511,298.900103 L198.523371,298.900103 L198.523371,296.2918 C198.523371,296.2918 203.491239,291.139299 205.133065,288.317503 C201.089622,288.1696 197.830378,285.607103 196.660357,281.555805 C195.977711,279.422802 196.283676,274.544006 197.177264,272.4411 C198.669925,268.935898 202.746917,266.091801 206.473948,265.928208 C212.731471,265.507903 216.051084,269.891705 217.70838,273.133806 L217.70838,273.133806 L217.70838,273.133806 Z" id="path17-5-3-9-1-3" fill="#D40000"></path>
        </g>
    </g>
</svg>