<?xml version="1.0" encoding="UTF-8" standalone="no"?>
<svg width="226px" height="314px" viewBox="0 0 226 314" version="1.1" xmlns="http://www.w3.org/2000/svg" xmlns:xlink="http://www.w3.org/1999/xlink">
    <!-- Generator: Sketch 39.1 (31720) - http://www.bohemiancoding.com/sketch -->
    <title>H7</title>
    <desc>Created with Sketch.</desc>
    <defs></defs>
    <g id="Page-3" stroke="none" stroke-width="1" fill="none" fill-rule="evenodd">
        <g id="H7" transform="translate(0.545250, -0.185985)">
            <rect id="rect5737" stroke="#000000" stroke-width="0.996734187" fill="#FFFFFF" x="0.887460112" y="0.92656374" width="223.228352" height="311.81103" rx="10.582486"></rect>
            <path d="M18.1050903,70.8999832 C18.1050903,70.8999832 15.8803629,67.7101802 12.8793716,63.9598844 C10.8717128,61.4501567 9.26665056,58.7326644 9.11738449,56.3918771 C8.94632116,53.7180244 10.5663502,51.0354438 13.4994385,50.9054279 C16.4309197,50.7755124 17.620729,52.9671225 18.1050903,54.7741024 C18.5894517,52.9671225 19.7793614,50.7755124 22.7106417,50.9054279 C25.6438304,51.0354438 27.2639599,53.7180244 27.0927961,56.3918771 C26.9436305,58.7326644 25.3384678,61.4501567 23.3309095,63.9598844 C20.3298177,67.7101802 18.1050903,70.8999832 18.1050903,70.8999832 L18.1050903,70.8999832 Z" id="path10106-2-3" fill="#D40000"></path>
            <path d="M206.899548,242.764586 C206.899548,242.764586 204.674921,245.954368 201.673929,249.704694 C199.66617,252.214382 198.061208,254.931914 197.911842,257.272642 C197.740778,259.946524 199.360908,262.629045 202.293996,262.759071 C205.225377,262.888996 206.415186,260.697386 206.899548,258.890476 C207.384009,260.697386 208.573919,262.888996 211.505199,262.759071 C214.438288,262.629045 216.058518,259.946524 215.887253,257.272642 C215.738088,254.931914 214.133026,252.214382 212.125367,249.704694 C209.124275,245.954368 206.899548,242.764586 206.899548,242.764586 L206.899548,242.764586 Z" id="path10108-3-1" fill="#D40000"></path>
            <path d="M112.501917,131.226827 C112.501917,131.226827 107.835595,123.57136 101.541006,114.57057 C97.3300156,108.547303 93.9633927,102.025232 93.650396,96.4074724 C93.2913941,89.9901658 96.6896581,83.5520927 102.841811,83.2400647 C108.990347,82.9282172 111.485984,88.1880916 112.501917,92.5246727 C113.517951,88.1880916 116.013587,82.9282172 122.162124,83.2400647 C128.314377,83.5520927 131.712541,89.9901658 131.353539,96.4074724 C131.040542,102.025232 127.673919,108.547303 123.462928,114.57057 C117.16834,123.57136 112.501917,131.226827 112.501917,131.226827 L112.501917,131.226827 Z" id="path10110-3-5" fill="#D40000"></path>
            <path d="M60.73552,81.6215576 C60.73552,81.6215576 56.0691975,73.9660906 49.7746092,64.9653003 C45.5636185,58.9420341 42.1969956,52.4199724 41.8839989,46.8022032 C41.5249969,40.3848765 44.923261,33.9467834 51.0754137,33.6347854 C57.2239504,33.3229881 59.7195866,38.5828124 60.73552,42.9193835 C61.7515539,38.5828124 64.2471901,33.3229881 70.3957268,33.6347854 C76.5479799,33.9467834 79.9461436,40.3848765 79.5871416,46.8022032 C79.2741449,52.4199724 75.907522,58.9420341 71.6965313,64.9653003 C65.401943,73.9660906 60.73552,81.6215576 60.73552,81.6215576 L60.73552,81.6215576 Z" id="path10114-8-3" fill="#D40000"></path>
            <path d="M164.268314,180.832206 C164.268314,180.832206 159.601992,173.176729 153.307403,164.175939 C149.096413,158.152683 145.72979,151.630611 145.416793,146.012852 C145.057791,139.595545 148.456055,133.157472 154.608208,132.845444 C160.756745,132.533597 163.252481,137.793471 164.268314,142.130052 C165.284348,137.793471 167.780085,132.533597 173.928521,132.845444 C180.080774,133.157472 183.478938,139.595545 183.119936,146.012852 C182.806939,151.630611 179.440316,158.152683 175.229326,164.175939 C168.934737,173.176729 164.268314,180.832206 164.268314,180.832206 L164.268314,180.832206 Z" id="path10116-2-5" fill="#D40000"></path>
            <path d="M164.268314,81.6215576 C164.268314,81.6215576 159.601992,73.9660906 153.307403,64.9653003 C149.096413,58.9420341 145.72979,52.4199724 145.416793,46.8022032 C145.057791,40.3848765 148.456055,33.9467834 154.608208,33.6347854 C160.756745,33.3229881 163.252481,38.5828124 164.268314,42.9193835 C165.284348,38.5828124 167.780085,33.3229881 173.928521,33.6347854 C180.080774,33.9467834 183.478938,40.3848765 183.119936,46.8022032 C182.806939,52.4199724 179.440316,58.9420341 175.229326,64.9653003 C168.934737,73.9660906 164.268314,81.6215576 164.268314,81.6215576 L164.268314,81.6215576 Z" id="path10120-6-5" fill="#D40000"></path>
            <path d="M60.73552,180.832206 C60.73552,180.832206 56.0691975,173.176729 49.7746092,164.175949 C45.5636185,158.152693 42.1969956,151.630621 41.8839989,146.012862 C41.5249969,139.595555 44.923261,133.157482 51.0754137,132.845454 C57.2239504,132.533607 59.7195866,137.793481 60.73552,142.130062 C61.7515539,137.793481 64.2471901,132.533607 70.3957268,132.845454 C76.5479799,133.157482 79.9461436,139.595555 79.5871416,146.012862 C79.2741449,151.630621 75.907522,158.152693 71.6965313,164.175949 C65.401943,173.176729 60.73552,180.832206 60.73552,180.832206 L60.73552,180.832206 Z" id="path10124-1-1" fill="#D40000"></path>
            <path d="M164.268314,232.042861 C164.268314,232.042861 159.601992,239.698328 153.307403,248.699118 C149.096413,254.722384 145.72979,261.244446 145.416793,266.862205 C145.057791,273.279522 148.456055,279.717585 154.608208,280.029623 C160.756745,280.34147 163.252481,275.081586 164.268314,270.745005 C165.284348,275.081586 167.780085,280.34147 173.928521,280.029623 C180.080774,279.717585 183.478938,273.279522 183.119936,266.862205 C182.806939,261.244446 179.440316,254.722384 175.229326,248.699118 C168.934737,239.698328 164.268314,232.042861 164.268314,232.042861 L164.268314,232.042861 Z" id="path10134-7-3" fill="#D40000"></path>
            <path d="M60.73552,232.042861 C60.73552,232.042861 56.0691975,239.698328 49.7746092,248.699118 C45.5636185,254.722384 42.1969956,261.244446 41.8839989,266.862205 C41.5249969,273.279522 44.923261,279.717585 51.0754137,280.029623 C57.2239504,280.34147 59.7195866,275.081586 60.73552,270.745005 C61.7515539,275.081586 64.2471901,280.34147 70.3957268,280.029623 C76.5479799,279.717585 79.9461436,273.279522 79.5871416,266.862205 C79.2741449,261.244446 75.907522,254.722384 71.6965313,248.699118 C65.401943,239.698328 60.73552,232.042861 60.73552,232.042861 L60.73552,232.042861 Z" id="path10136-5-7" fill="#D40000"></path>
            <path d="M13.0310484,47.7607693 C15.2013329,36.2874704 17.5116422,27.6741194 23.5775099,18.3261186 L11.247791,18.3261186 L11.247791,22.3498892 L7.97438408,22.3498892 L7.97438408,14.764426 L26.0087588,14.764426 L28.232984,18.3261186 C21.7904354,25.3590143 15.8942248,48.0934334 16.9381832,47.7607693 L13.0310484,47.7607693 L13.0310484,47.7607693 Z" id="path25-43-2-3-9" fill="#D40000"></path>
            <path d="M211.970978,265.903709 C209.800593,277.376908 207.490284,285.990409 201.424416,295.33841 L213.754135,295.33841 L213.754135,291.314509 L217.027542,291.314509 L217.027542,298.900113 L198.993267,298.900113 L196.768942,295.33841 C203.21149,288.305514 209.107701,265.571115 208.063743,265.903709 L211.970978,265.903709 L211.970978,265.903709 Z" id="path25-7-0-2-8-2" fill="#D40000"></path>
        </g>
    </g>
</svg>