<?xml version="1.0" encoding="UTF-8" standalone="no"?>
<svg width="225px" height="314px" viewBox="0 0 225 314" version="1.1" xmlns="http://www.w3.org/2000/svg" xmlns:xlink="http://www.w3.org/1999/xlink">
    <!-- Generator: Sketch 39.1 (31720) - http://www.bohemiancoding.com/sketch -->
    <title>HA</title>
    <desc>Created with Sketch.</desc>
    <defs></defs>
    <g id="Page-3" stroke="none" stroke-width="1" fill="none" fill-rule="evenodd">
        <g id="HA" transform="translate(0.546805, -0.185985)">
            <rect id="rect5589" stroke="#000000" stroke-width="0.996734187" fill="#FFFFFF" x="0.535931486" y="0.92656374" width="223.228352" height="311.81103" rx="10.582486"></rect>
            <path d="M17.7530996,70.8999832 C17.7530996,70.8999832 15.5284024,67.7101802 12.527401,63.9598844 C10.5197021,61.4501567 8.91470005,58.7326644 8.76540385,56.3918771 C8.59430033,53.7180244 10.2144097,51.0354438 13.1475081,50.9054279 C16.0788988,50.7755124 17.2687081,52.9671225 17.7530996,54.7741024 C18.2375012,52.9671225 19.4274009,50.7755124 22.3587012,50.9054279 C25.2917996,51.0354438 26.9119994,53.7180244 26.7408055,56.3918771 C26.5915997,58.7326644 24.9865073,61.4501567 22.9788987,63.9598844 C19.9778069,67.7101802 17.7530996,70.8999832 17.7530996,70.8999832 L17.7530996,70.8999832 Z" id="path9698-0-0" fill="#D40000"></path>
            <path d="M206.547607,242.764586 C206.547607,242.764586 204.32291,245.954368 201.321908,249.704694 C199.31421,252.214382 197.709208,254.931914 197.559911,257.272642 C197.388808,259.946524 199.008907,262.629045 201.942006,262.759071 C204.873406,262.888996 206.063206,260.697386 206.547607,258.890476 C207.032009,260.697386 208.221908,262.888996 211.153209,262.759071 C214.086307,262.629045 215.706507,259.946524 215.535303,257.272642 C215.386107,254.931914 213.781005,252.214382 211.773406,249.704694 C208.772304,245.954368 206.547607,242.764586 206.547607,242.764586 L206.547607,242.764586 Z" id="path9700-3-2" fill="#D40000"></path>
            <path d="M112.149947,180.832206 C112.149947,180.832206 107.483644,173.176729 101.189046,164.175939 C96.978045,158.152683 93.6114422,151.630611 93.2984455,146.012852 C92.9394436,139.595545 96.3376474,133.157472 102.48984,132.845444 C108.638347,132.533597 111.134043,137.793471 112.149947,142.130052 C113.16594,137.793471 115.661647,132.533597 121.810143,132.845444 C127.962346,133.157472 131.36054,139.595545 131.001548,146.012852 C130.688541,151.630611 127.321949,158.152683 123.110948,164.175939 C116.816339,173.176729 112.149947,180.832206 112.149947,180.832206 L112.149947,180.832206 Z" id="path9714-6-6" fill="#D40000"></path>
            <path d="M7.65959942,47.7643809 L7.65959942,44.9426552 L10.3519033,44.9426552 L16.0872963,14.764426 L19.3517031,14.764426 L25.6695954,44.9426552 L27.8436969,44.9426552 L27.8436969,47.7643809 L20.4354993,47.7643809 L20.4354993,44.9426552 L22.4348008,44.9426552 L21.6363981,40.3179625 L14.1626982,40.3179625 L13.5854021,44.9426552 L15.5846032,44.9426552 L15.5846032,47.7643809 L7.65959942,47.7643809 L7.65959942,47.7643809 Z M20.9987025,37.0237254 L17.7497045,20.8712596 L14.7064948,37.0237254 L20.9987025,37.0237254 L20.9987025,37.0237254 Z" id="path41-87-8-3-9" fill="#D40000"></path>
            <path d="M196.454117,265.900108 L196.454117,268.721803 L199.146421,268.721803 L204.881814,298.900103 L208.146221,298.900103 L214.464113,268.721803 L216.638214,268.721803 L216.638214,265.900108 L209.230017,265.900108 L209.230017,268.721803 L211.229318,268.721803 L210.430916,273.346406 L202.957216,273.346406 L202.37992,268.721803 L204.379121,268.721803 L204.379121,265.900108 L196.454117,265.900108 L196.454117,265.900108 Z M209.79322,276.640803 L206.544222,292.793199 L203.501012,276.640803 L209.79322,276.640803 L209.79322,276.640803 Z" id="path41-8-5-1-8-7" fill="#D40000"></path>
        </g>
    </g>
</svg>