<?xml version="1.0" encoding="UTF-8" standalone="no"?>
<svg width="226px" height="313px" viewBox="0 0 226 313" version="1.1" xmlns="http://www.w3.org/2000/svg" xmlns:xlink="http://www.w3.org/1999/xlink">
    <!-- Generator: Sketch 39.1 (31720) - http://www.bohemiancoding.com/sketch -->
    <title>S2</title>
    <desc>Created with Sketch.</desc>
    <defs></defs>
    <g id="Page-3" stroke="none" stroke-width="1" fill="none" fill-rule="evenodd">
        <g id="S2" transform="translate(0.545732, -0.185344)">
            <rect id="rect5282" stroke="#000000" stroke-width="0.996734187" fill="#FFFFFF" x="0.762010318" y="0.733726925" width="223.228352" height="311.81103" rx="10.582486"></rect>
            <path d="M17.9792186,50.7071537 C13.6686235,56.1892891 9.05642246,59.34405 8.97982064,63.6210405 C8.95380455,65.0059905 9.79372251,67.35996 12.4237183,67.8105312 C14.1300224,68.1015019 16.4792252,66.8699125 16.5283243,64.3678092 C16.5182795,63.8696558 17.1197233,63.8826072 17.1141183,64.5651905 C17.0341615,66.5388335 16.3332237,68.8366835 15.1558198,70.7071464 L20.8026175,70.7071464 C19.6252236,68.8366835 18.9246173,66.5388335 18.844319,64.5651905 C18.8342742,63.8826072 19.4376265,63.8696558 19.430123,64.3678092 C19.4791417,66.8699125 21.828425,68.1015019 23.5347189,67.8105312 C26.1647248,67.35996 27.0043213,65.0059905 26.9786267,63.6210405 C26.9015829,59.34405 22.2897234,56.1892891 17.9792186,50.7071537 L17.9792186,50.7071537 Z" id="path6748-4-0" fill="#000000"></path>
            <path d="M206.773726,262.571782 C202.463131,257.089646 197.85093,253.934885 197.774328,249.657895 C197.748312,248.272945 198.58823,245.918975 201.218226,245.468404 C202.92453,245.177433 205.273733,246.409023 205.322832,248.911126 C205.312787,249.409279 205.914231,249.396328 205.908626,248.713745 C205.828669,246.740102 205.127731,244.442252 203.950327,242.571789 L209.597125,242.571789 C208.419731,244.442252 207.719125,246.740102 207.638826,248.713745 C207.628782,249.396328 208.232134,249.409279 208.22463,248.911126 C208.273649,246.409023 210.622932,245.177433 212.329226,245.468404 C214.959232,245.918975 215.798829,248.272945 215.773134,249.657895 C215.69609,253.934885 211.084231,257.089646 206.773726,262.571782 L206.773726,262.571782 Z" id="path6752-9-1" fill="#000000"></path>
            <path d="M112.376106,33.4287464 C103.150107,46.5858712 93.2784061,54.1573195 93.1144043,64.4220828 C93.0593586,67.7459847 94.8565081,73.3954955 100.485506,74.4768644 C104.137503,75.1751881 109.16561,72.2193835 109.270608,66.2143356 C109.254637,65.0187914 110.536507,65.0498608 110.524503,66.6880608 C110.352506,71.4247819 108.853105,76.9396218 106.33311,81.4287509 L118.419101,81.4287509 C115.899106,76.9396218 114.399706,71.4247819 114.227708,66.6880608 C114.215755,65.0498608 115.497605,65.0187914 115.481603,66.2143356 C115.586602,72.2193835 120.614709,75.1751881 124.266705,74.4768644 C129.895703,73.3954955 131.692803,67.7459847 131.637807,64.4220828 C131.473805,54.1573195 121.602105,46.5858712 112.376106,33.4287464 L112.376106,33.4287464 Z" id="path6760-2-4" fill="#000000"></path>
            <path d="M112.376106,279.850058 C103.150107,266.692934 93.2784061,259.121485 93.1144043,248.856722 C93.0593586,245.53283 94.8565081,239.883309 100.485506,238.80195 C104.137503,238.103617 109.16561,241.059421 109.270608,247.064469 C109.254637,248.260013 110.536507,248.228944 110.524503,246.590744 C110.352506,241.854023 108.853105,236.339183 106.33311,231.850054 L118.419101,231.850054 C115.899106,236.339183 114.399706,241.854023 114.227708,246.590744 C114.215755,248.228944 115.497605,248.260013 115.481603,247.064469 C115.586602,241.059421 120.614709,238.103617 124.266705,238.80195 C129.895703,239.883309 131.692803,245.53283 131.637807,248.856722 C131.473805,259.121485 121.602105,266.692934 112.376106,279.850058 L112.376106,279.850058 Z" id="path6774-6-2" fill="#000000"></path>
            <path d="M8.58581246,47.5008379 L8.74660999,45.465939 C9.25441597,39.177645 10.6056154,37.0562394 18.2696145,30.4916417 C21.9904078,27.3095433 23.2105122,25.7394411 23.3815153,23.9179448 C23.8688098,19.6214418 20.067015,18.2804425 17.5908155,18.2608398 C14.3817155,18.231847 10.7509138,20.184543 12.4840074,24.7232406 L8.88280774,25.8009378 C8.15900793,21.5673461 8.90380142,17.5956421 12.2732067,15.8330441 C16.7731167,13.534843 22.5432146,14.4357447 25.456615,18.0565463 C27.4147126,20.4856461 27.8621091,23.8472386 26.8117119,26.4780436 C23.7428075,33.1984397 13.3326141,36.1552374 12.4737114,43.9311397 L23.9793129,43.9311397 L23.9793129,39.6019422 L27.3697118,39.6019422 L27.3697118,47.5716444 L8.58581246,47.5006172 L8.58581246,47.5008379 Z" id="path15-3-8-9" fill="#000000"></path>
            <path d="M216.164219,265.778097 L216.003422,267.812996 C215.495616,274.1013 214.144416,276.222696 206.480417,282.787294 C202.759624,285.969392 201.53952,287.539494 201.368516,289.36099 C200.881222,293.657493 204.683017,294.998493 207.159216,295.018095 C210.368316,295.047088 213.999118,293.094392 212.266024,288.555695 L215.867224,287.477997 C216.591024,291.711599 215.84623,295.683293 212.476815,297.445891 C207.976915,299.744092 202.206817,298.843191 199.293417,295.222399 C197.335319,292.793299 196.887923,289.431697 197.93832,286.800892 C201.007214,280.080496 211.417418,277.123698 212.27632,269.347796 L200.770719,269.347796 L200.770719,273.676993 L197.38032,273.676993 L197.38032,265.707291 L216.164219,265.778318 L216.164219,265.778097 Z" id="path15-3-5-1-4" fill="#000000"></path>
        </g>
    </g>
</svg>