<?xml version="1.0" encoding="UTF-8" standalone="no"?>
<svg width="225px" height="313px" viewBox="0 0 225 313" version="1.1" xmlns="http://www.w3.org/2000/svg" xmlns:xlink="http://www.w3.org/1999/xlink">
    <!-- Generator: Sketch 39.1 (31720) - http://www.bohemiancoding.com/sketch -->
    <title>S4</title>
    <desc>Created with Sketch.</desc>
    <defs></defs>
    <g id="Page-3" stroke="none" stroke-width="1" fill="none" fill-rule="evenodd">
        <g id="S4" transform="translate(0.548269, -0.185344)">
            <rect id="rect5318" stroke="#000000" stroke-width="0.996734187" fill="#FFFFFF" x="0.209334111" y="0.733726925" width="223.228352" height="311.81103" rx="10.582486"></rect>
            <path d="M60.0574945,33.4287464 C50.831425,46.5858712 40.9597747,54.1573195 40.7957428,64.4220828 C40.7404963,67.7459847 42.5379169,73.3954955 48.1668348,74.4768644 C51.8188311,75.1751881 56.8469681,72.2193835 56.9519365,66.2143356 C56.9358648,65.0187914 58.2178856,65.0498608 58.2058318,66.6880608 C58.0338644,71.4247819 56.5344737,76.9396218 54.0144285,81.4287509 L66.10046,81.4287509 C63.5805152,76.9396218 62.0810241,71.4247819 61.9090567,66.6880608 C61.8970029,65.0498608 63.1789232,65.0187914 63.162952,66.2143356 C63.2679204,72.2193835 68.2960574,75.1751881 71.9480537,74.4768644 C77.5770721,73.3954955 79.3741913,67.7459847 79.3191457,64.4220828 C79.1552142,54.1573195 69.2834635,46.5858712 60.0574945,33.4287464 L60.0574945,33.4287464 Z" id="path6882-1-0" fill="#000000"></path>
            <path d="M17.4269643,50.7071537 C13.116329,56.1892891 8.50414805,59.34405 8.4276065,63.6210405 C8.40148996,65.0059905 9.24143806,67.35996 11.8714741,67.8105312 C13.5777881,68.1015019 15.9269709,66.8699125 15.9760901,64.3678092 C15.9660453,63.8696558 16.5674288,63.8826072 16.5619042,64.5651905 C16.4815456,66.5388335 15.7809192,68.8366835 14.6035655,70.7071464 L20.2503632,70.7071464 C19.0730095,68.8366835 18.3723831,66.5388335 18.2920245,64.5651905 C18.2819797,63.8826072 18.8853722,63.8696558 18.8778386,64.3678092 C18.9270582,66.8699125 21.2761405,68.1015019 22.9824546,67.8105312 C25.6124906,67.35996 26.4520369,65.0059905 26.4263221,63.6210405 C26.348977,59.34405 21.7374992,56.1892891 17.4269643,50.7071537 L17.4269643,50.7071537 Z" id="path6884-6-5" fill="#000000"></path>
            <path d="M206.221522,262.571782 C201.910887,257.089646 197.298706,253.934885 197.222064,249.657895 C197.195947,248.272945 198.035996,245.918975 200.665931,245.468404 C202.372245,245.177433 204.721428,246.409023 204.770547,248.911126 C204.760503,249.409279 205.361987,249.396328 205.356361,248.713745 C205.276003,246.740102 204.575477,244.442252 203.398123,242.571789 L209.044921,242.571789 C207.867467,244.442252 207.16684,246.740102 207.086582,248.713745 C207.076537,249.396328 207.679829,249.409279 207.672396,248.911126 C207.721616,246.409023 210.070698,245.177433 211.777012,245.468404 C214.406948,245.918975 215.246595,248.272945 215.22088,249.657895 C215.143535,253.934885 210.531956,257.089646 206.221522,262.571782 L206.221522,262.571782 Z" id="path6888-1-5" fill="#000000"></path>
            <path d="M163.590289,33.4287464 C154.36432,46.5858712 144.492569,54.1573195 144.328537,64.4220828 C144.273291,67.7459847 146.070711,73.3954955 151.699629,74.4768644 C155.351625,75.1751881 160.379762,72.2193835 160.484731,66.2143356 C160.468659,65.0187914 161.75068,65.0498608 161.738626,66.6880608 C161.566659,71.4247819 160.067268,76.9396218 157.547223,81.4287509 L169.633254,81.4287509 C167.113309,76.9396218 165.613919,71.4247819 165.441851,66.6880608 C165.429797,65.0498608 166.711818,65.0187914 166.695746,66.2143356 C166.800815,72.2193835 171.828852,75.1751881 175.480848,74.4768644 C181.109866,73.3954955 182.906986,67.7459847 182.85194,64.4220828 C182.688008,54.1573195 172.816258,46.5858712 163.590289,33.4287464 L163.590289,33.4287464 Z" id="path6890-4-9" fill="#000000"></path>
            <path d="M60.0574945,279.850058 C50.831425,266.692934 40.9597747,259.121485 40.7957428,248.856722 C40.7404963,245.53283 42.5379169,239.883309 48.1668348,238.80195 C51.8188311,238.103617 56.8469681,241.059421 56.9519365,247.064469 C56.9358648,248.260013 58.2178856,248.228944 58.2058318,246.590744 C58.0338644,241.854023 56.5344737,236.339183 54.0144285,231.850054 L66.10046,231.850054 C63.5805152,236.339183 62.0810241,241.854023 61.9090567,246.590744 C61.8970029,248.228944 63.1789232,248.260013 63.162952,247.064469 C63.2679204,241.059421 68.2960574,238.103617 71.9480537,238.80195 C77.5770721,239.883309 79.3741913,245.53283 79.3191457,248.856722 C79.1552142,259.121485 69.2834635,266.692934 60.0574945,279.850058 L60.0574945,279.850058 Z" id="path6902-7-5" fill="#000000"></path>
            <path d="M163.590289,279.850058 C154.36432,266.692934 144.492569,259.121485 144.328537,248.856722 C144.273291,245.53283 146.070711,239.883309 151.699629,238.80195 C155.351625,238.103617 160.379762,241.059421 160.484731,247.064469 C160.468659,248.260013 161.75068,248.228944 161.738626,246.590744 C161.566659,241.854023 160.067268,236.339183 157.547223,231.850054 L169.633254,231.850054 C167.113309,236.339183 165.613919,241.854023 165.441851,246.590744 C165.429797,248.228944 166.711818,248.260013 166.695746,247.064469 C166.800815,241.059421 171.828852,238.103617 175.480848,238.80195 C181.109866,239.883309 182.906986,245.53283 182.85194,248.856722 C182.688008,259.121485 172.816258,266.692934 163.590289,279.850058 L163.590289,279.850058 Z" id="path6904-9-7" fill="#000000"></path>
            <path d="M17.6569908,47.5675412 L17.6569908,44.6529385 L20.2874286,44.6529385 L20.2874286,39.8449395 L7.12981537,39.8449395 L7.12981537,36.4523378 L21.3674479,14.571539 L23.6932263,14.5835776 L23.6932263,36.4525785 L27.7213007,36.4525785 L27.7213007,39.8451802 L23.6932263,39.8451802 L23.6168856,44.6531793 L25.8217242,44.6531793 L25.8217242,47.5717848 L17.6564885,47.5717848 L17.6569908,47.5675412 Z M20.2874286,22.5822424 L11.2478915,36.4536419 L20.2874286,36.4536419 L20.2874286,22.5822424 L20.2874286,22.5822424 Z" id="path19-08-0-9" fill="#000000"></path>
            <path d="M206.452854,265.711394 L206.452854,268.625997 L209.083393,268.625997 L209.083393,273.433996 L195.925679,273.433996 L195.925679,276.826597 L210.163412,298.707396 L212.48919,298.695358 L212.48919,276.826357 L216.517164,276.826357 L216.517164,273.433755 L212.48919,273.433755 L212.41285,268.625756 L214.617789,268.625756 L214.617789,265.70715 L206.452452,265.70715 L206.452854,265.711394 Z M209.083393,290.696693 L200.043755,276.825293 L209.083393,276.825293 L209.083393,290.696693 L209.083393,290.696693 Z" id="path19-08-1-1-4" fill="#000000" transform="translate(206.221422, 282.207273) scale(-1, 1) translate(-206.221422, -282.207273) "></path>
        </g>
    </g>
</svg>