<?xml version="1.0" encoding="UTF-8" standalone="no"?>
<svg width="225px" height="313px" viewBox="0 0 225 313" version="1.1" xmlns="http://www.w3.org/2000/svg" xmlns:xlink="http://www.w3.org/1999/xlink">
    <!-- Generator: Sketch 39.1 (31720) - http://www.bohemiancoding.com/sketch -->
    <title>S5</title>
    <desc>Created with Sketch.</desc>
    <defs></defs>
    <g id="Page-3" stroke="none" stroke-width="1" fill="none" fill-rule="evenodd">
        <g id="S5" transform="translate(0.547196, -0.185344)">
            <rect id="rect5340" stroke="#000000" stroke-width="0.996734187" fill="#FFFFFF" transform="translate(112.049780, 156.639182) scale(-1, -1) translate(-112.049780, -156.639182) " x="0.435603794" y="0.733666733" width="223.228352" height="311.81103" rx="10.582486"></rect>
            <path d="M163.816398,279.849978 C173.042367,266.692853 182.914017,259.121405 183.078049,248.856642 C183.133295,245.53274 181.335975,239.883229 175.706957,238.80186 C172.054961,238.103537 167.026824,241.059341 166.921855,247.064389 C166.937927,248.259933 165.656007,248.228864 165.66796,246.590664 C165.839927,241.853943 167.339318,236.339103 169.859363,231.849974 L157.773332,231.849974 C160.293377,236.339103 161.792768,241.853943 161.964735,246.590664 C161.976789,248.228864 160.694868,248.259933 160.71084,247.064389 C160.605871,241.059341 155.577734,238.103537 151.925738,238.80186 C146.29672,239.883229 144.499701,245.53274 144.554646,248.856642 C144.718678,259.121405 154.590328,266.692853 163.816398,279.849978 L163.816398,279.849978 Z" id="path6950-9-9" fill="#000000"></path>
            <path d="M206.446827,262.571571 C210.757463,257.089435 215.369644,253.934675 215.446286,249.657684 C215.472402,248.272734 214.632354,245.918765 212.002318,245.468193 C210.296104,245.177223 207.946821,246.408812 207.897802,248.910915 C207.907847,249.409069 207.306363,249.396117 207.311988,248.713534 C207.392347,246.739891 208.092873,244.442041 209.270226,242.571578 L203.623429,242.571578 C204.800883,244.442041 205.501509,246.739891 205.581767,248.713534 C205.591812,249.396117 204.98842,249.409069 204.995953,248.910915 C204.946734,246.408812 202.597651,245.177223 200.891337,245.468193 C198.261402,245.918765 197.421755,248.272734 197.44747,249.657684 C197.524815,253.934675 202.136393,257.089435 206.446827,262.571571 L206.446827,262.571571 Z" id="path6952-6-0" fill="#000000"></path>
            <path d="M17.6523701,50.706943 C21.9630055,56.1890784 26.5751864,59.3438393 26.651728,63.6208299 C26.6778445,65.0057798 25.8378964,67.3597493 23.2078604,67.8103205 C21.5015463,68.1012912 19.1523636,66.8697018 19.1032444,64.3675985 C19.1132892,63.8694451 18.5119057,63.8823965 18.5174303,64.5649799 C18.5977889,66.5386228 19.2983148,68.8364728 20.475769,70.7069357 L14.8289713,70.7069357 C16.006325,68.8364728 16.7069514,66.5386228 16.7872095,64.5649799 C16.7972544,63.8823965 16.1939623,63.8694451 16.2014959,64.3675985 C16.1522763,66.8697018 13.803194,68.1012912 12.0968799,67.8103205 C9.46684388,67.3597493 8.62729758,65.0057798 8.65291188,63.6208299 C8.73025701,59.3438393 13.3418353,56.1890784 17.6523701,50.706943 L17.6523701,50.706943 Z" id="path6956-5-0" fill="#000000"></path>
            <path d="M60.2836034,279.849978 C69.5095725,266.692853 79.3812227,259.121405 79.5452547,248.856642 C79.6005012,245.53274 77.803181,239.883229 72.1741627,238.80186 C68.5221664,238.103537 63.4940293,241.059341 63.3890609,247.064389 C63.4051326,248.259933 62.1231119,248.228864 62.1351657,246.590664 C62.307133,241.853943 63.8065238,236.339103 66.326569,231.849974 L54.2405375,231.849974 C56.7605827,236.339103 58.2599734,241.853943 58.4319408,246.590664 C58.4439946,248.228864 57.1620742,248.259933 57.1780455,247.064389 C57.0730771,241.059341 52.0449401,238.103537 48.3929438,238.80186 C42.7639254,239.883229 40.9669066,245.53274 41.0218518,248.856642 C41.1858837,259.121405 51.057534,266.692853 60.2836034,279.849978 L60.2836034,279.849978 Z" id="path6958-4-1" fill="#000000"></path>
            <path d="M163.816398,33.4286661 C173.042367,46.585791 182.914017,54.1572393 183.078049,64.4220025 C183.133295,67.7458944 181.335975,73.3954152 175.706957,74.4767741 C172.054961,75.1751078 167.026824,72.2193033 166.921855,66.2142553 C166.937927,65.0187112 165.656007,65.0497806 165.66796,66.6879806 C165.839927,71.4247016 167.339318,76.9395416 169.859363,81.4286707 L157.773332,81.4286707 C160.293377,76.9395416 161.792768,71.4247016 161.964735,66.6879806 C161.976789,65.0497806 160.694868,65.0187112 160.71084,66.2142553 C160.605871,72.2193033 155.577734,75.1751078 151.925738,74.4767741 C146.29672,73.3954152 144.499701,67.7458944 144.554646,64.4220025 C144.718678,54.1572393 154.590328,46.585791 163.816398,33.4286661 L163.816398,33.4286661 Z" id="path6970-5-5" fill="#000000"></path>
            <path d="M60.2836034,33.4286661 C69.5095725,46.585791 79.3812227,54.1572393 79.5452547,64.4220025 C79.6005012,67.7458944 77.803181,73.3954152 72.1741627,74.4767741 C68.5221664,75.1751078 63.4940293,72.2193033 63.3890609,66.2142553 C63.4051326,65.0187112 62.1231119,65.0497806 62.1351657,66.6879806 C62.307133,71.4247016 63.8065238,76.9395416 66.326569,81.4286707 L54.2405375,81.4286707 C56.7605827,76.9395416 58.2599734,71.4247016 58.4319408,66.6879806 C58.4439946,65.0497806 57.1620742,65.0187112 57.1780455,66.2142553 C57.0730771,72.2193033 52.0449401,75.1751078 48.3929438,74.4767741 C42.7639254,73.3954152 40.9669066,67.7458944 41.0218518,64.4220025 C41.1858837,54.1572393 51.057534,46.585791 60.2836034,33.4286661 L60.2836034,33.4286661 Z" id="path6972-5-8" fill="#000000"></path>
            <path d="M112.050001,180.639329 C121.27597,167.482205 131.14762,159.910756 131.311652,149.645993 C131.366898,146.322101 129.569578,140.67258 123.94056,139.591221 C120.288563,138.892888 115.260426,141.848692 115.155458,147.85374 C115.17153,149.049284 113.889609,149.018215 113.901563,147.380015 C114.07353,142.643294 115.572921,137.128454 118.092966,132.639325 L106.006935,132.639325 C108.52698,137.128454 110.026371,142.643294 110.198338,147.380015 C110.210392,149.018215 108.928471,149.049284 108.944443,147.85374 C108.839474,141.848692 103.811337,138.892888 100.159341,139.591221 C94.5303225,140.67258 92.7333037,146.322101 92.7882489,149.645993 C92.9522808,159.910756 102.823931,167.482205 112.050001,180.639329 L112.050001,180.639329 Z" id="path6980-6-3" fill="#000000"></path>
            <path d="M216.849748,274.250367 L213.615014,274.281366 C212.99786,272.289565 211.632467,270.264959 209.778494,269.703162 C204.540621,268.449964 201.170885,271.431761 200.061233,274.869367 C198.715126,279.038964 200.091367,284.893962 203.697258,286.97226 C206.685191,288.695562 211.124701,287.241962 213.1637,283.555661 L215.429109,284.967367 L214.212882,298.707065 L199.413342,298.707065 L199.413342,295.459367 L211.406157,295.459367 L211.596507,289.735368 C209.014786,291.581864 205.047182,291.562161 202.466868,290.267059 C197.579961,287.892864 195.309429,282.494868 196.258263,276.133059 C197.574737,269.805359 200.477892,266.21976 207.025911,265.707762 C214.309312,265.640748 216.880686,270.741664 216.849748,274.249966 L216.849748,274.249966 L216.849748,274.250367 Z" id="path21-4-5-5" fill="#000000"></path>
            <path d="M7.25236221,39.0281468 L10.487197,38.9971477 C11.1042505,40.9889487 12.4696433,43.0135447 14.3236163,43.5753517 C19.5614892,44.8285502 22.931226,41.8467525 24.0408776,38.4091469 C25.3869843,34.2395499 24.0107431,28.3845518 20.4048525,26.3062541 C17.4169195,24.5829519 12.9774091,26.0365514 10.9384105,29.7228526 L8.67310197,28.3111471 L9.88922869,14.5714488 L24.6887687,14.5714488 L24.6887687,17.819147 L12.6959531,17.819147 L12.5057042,23.543146 C15.0873241,21.6966497 19.0549288,21.7163527 21.6352429,23.0114452 C26.5221498,25.3856494 28.7926815,30.7836457 27.8438476,37.1454448 C26.5273731,43.4731448 23.6242183,47.0587538 17.0762995,47.5707515 C9.79289884,47.6377659 7.22142415,42.5368499 7.25236221,39.0285481 L7.25236221,39.0285481 L7.25236221,39.0281468 Z" id="path21-4-9-2-8" fill="#000000"></path>
        </g>
    </g>
</svg>