<?xml version="1.0" encoding="UTF-8" standalone="no"?>
<svg width="225px" height="313px" viewBox="0 0 225 313" version="1.1" xmlns="http://www.w3.org/2000/svg" xmlns:xlink="http://www.w3.org/1999/xlink">
    <!-- Generator: Sketch 39.1 (31720) - http://www.bohemiancoding.com/sketch -->
    <title>S9</title>
    <desc>Created with Sketch.</desc>
    <defs></defs>
    <g id="Page-3" stroke="none" stroke-width="1" fill="none" fill-rule="evenodd">
        <g id="S9" transform="translate(0.547687, -0.185344)">
            <rect id="rect5440" stroke="#000000" stroke-width="0.996734187" fill="#FFFFFF" x="0.335195744" y="0.733726925" width="223.228352" height="311.81103" rx="10.582486"></rect>
            <path d="M60.1833561,33.4287464 C50.9573871,46.5858712 41.0857368,54.1573195 40.9217049,64.4220828 C40.8664583,67.7459847 42.6637785,73.3954955 48.2927969,74.4768644 C51.9447932,75.1751881 56.9729302,72.2193835 57.0778986,66.2143356 C57.0618269,65.0187914 58.3438477,65.0498608 58.3317939,66.6880608 C58.1598265,71.4247819 56.6604358,76.9396218 54.1403906,81.4287509 L66.2264221,81.4287509 C63.7063769,76.9396218 62.2069861,71.4247819 62.0350188,66.6880608 C62.022965,65.0498608 63.3048853,65.0187914 63.288914,66.2143356 C63.3938824,72.2193835 68.4220195,75.1751881 72.0740158,74.4768644 C77.7030341,73.3954955 79.500053,67.7459847 79.4451078,64.4220828 C79.2810758,54.1573195 69.4094256,46.5858712 60.1833561,33.4287464 L60.1833561,33.4287464 Z" id="path7225-5-2" fill="#000000"></path>
            <path d="M17.5529264,50.7071537 C13.2422911,56.1892891 8.63011013,59.34405 8.55346813,63.6210405 C8.52735159,65.0059905 9.36740014,67.35996 11.9974361,67.8105312 C13.7036498,68.1015019 16.052933,66.8699125 16.1019517,64.3678092 C16.0919069,63.8696558 16.6933909,63.8826072 16.6877658,64.5651905 C16.6074072,66.5388335 15.9068813,68.8366835 14.7295276,70.7071464 L20.3763252,70.7071464 C19.1988711,68.8366835 18.4983451,66.5388335 18.4179866,64.5651905 C18.4079417,63.8826072 19.0113343,63.8696558 19.0038006,64.3678092 C19.0530203,66.8699125 21.4021026,68.1015019 23.1084167,67.8105312 C25.7383522,67.35996 26.577999,65.0059905 26.5522842,63.6210405 C26.4749391,59.34405 21.8633608,56.1892891 17.5529264,50.7071537 L17.5529264,50.7071537 Z" id="path7227-2-8" fill="#000000"></path>
            <path d="M60.1833561,213.709619 C50.9573871,200.552494 41.0857368,192.981046 40.9217049,182.716283 C40.8664583,179.392391 42.6637785,173.74287 48.2927969,172.661511 C51.9447932,171.963178 56.9729302,174.918992 57.0778986,180.92403 C57.0618269,182.119574 58.3438477,182.088505 58.3317939,180.450305 C58.1598265,175.713584 56.6604358,170.198744 54.1403906,165.709615 L66.2264221,165.709615 C63.7063769,170.198744 62.2069861,175.713584 62.0350188,180.450305 C62.022965,182.088505 63.3048853,182.119574 63.288914,180.92403 C63.3938824,174.918992 68.4220195,171.963178 72.0740158,172.661511 C77.7030341,173.74287 79.500053,179.392391 79.4451078,182.716283 C79.2810758,192.981046 69.4094256,200.552494 60.1833561,213.709619 L60.1833561,213.709619 Z" id="path7229-4-8" fill="#000000"></path>
            <path d="M206.347384,262.571782 C202.036849,257.089646 197.424567,253.934885 197.348026,249.657895 C197.321909,248.272945 198.161857,245.918975 200.791893,245.468404 C202.498207,245.177433 204.84739,246.409023 204.896509,248.911126 C204.886465,249.409279 205.487949,249.396328 205.482323,248.713745 C205.401965,246.740102 204.701439,244.442252 203.523985,242.571789 L209.170782,242.571789 C207.993429,244.442252 207.292802,246.740102 207.212544,248.713745 C207.202499,249.396328 207.805792,249.409279 207.798258,248.911126 C207.847478,246.409023 210.19656,245.177433 211.902874,245.468404 C214.53291,245.918975 215.372456,248.272945 215.346842,249.657895 C215.269497,253.934885 210.657919,257.089646 206.347384,262.571782 L206.347384,262.571782 Z" id="path7231-7-8" fill="#000000"></path>
            <path d="M163.716251,33.4287464 C154.490181,46.5858712 144.618531,54.1573195 144.454499,64.4220828 C144.399253,67.7459847 146.196573,73.3954955 151.825591,74.4768644 C155.477587,75.1751881 160.505724,72.2193835 160.610693,66.2143356 C160.594621,65.0187914 161.876642,65.0498608 161.864588,66.6880608 C161.692621,71.4247819 160.19323,76.9396218 157.673185,81.4287509 L169.759216,81.4287509 C167.239171,76.9396218 165.73978,71.4247819 165.567813,66.6880608 C165.555759,65.0498608 166.83768,65.0187914 166.821708,66.2143356 C166.926677,72.2193835 171.954814,75.1751881 175.60681,74.4768644 C181.235828,73.3954955 183.032948,67.7459847 182.977902,64.4220828 C182.81387,54.1573195 172.94222,46.5858712 163.716251,33.4287464 L163.716251,33.4287464 Z" id="path7233-8-9" fill="#000000"></path>
            <path d="M60.1833561,99.5691755 C50.9573871,112.7263 41.0857368,120.297749 40.9217049,130.562512 C40.8664583,133.886404 42.6637785,139.535925 48.2927969,140.617294 C51.9447932,141.315617 56.9729302,138.359813 57.0778986,132.354765 C57.0618269,131.159221 58.3438477,131.19029 58.3317939,132.82849 C58.1598265,137.565211 56.6604358,143.080051 54.1403906,147.56918 L66.2264221,147.56918 C63.7063769,143.080051 62.2069861,137.565211 62.0350188,132.82849 C62.022965,131.19029 63.3048853,131.159221 63.288914,132.354765 C63.3938824,138.359813 68.4220195,141.315617 72.0740158,140.617294 C77.7030341,139.535925 79.500053,133.886404 79.4451078,130.562512 C79.2810758,120.297749 69.4094256,112.7263 60.1833561,99.5691755 L60.1833561,99.5691755 Z" id="path7235-9-4" fill="#000000"></path>
            <path d="M163.716251,99.5691755 C154.490181,112.7263 144.618531,120.297749 144.454499,130.562512 C144.399253,133.886404 146.196573,139.535925 151.825591,140.617294 C155.477587,141.315617 160.505724,138.359813 160.610693,132.354765 C160.594621,131.159221 161.876642,131.19029 161.864588,132.82849 C161.692621,137.565211 160.19323,143.080051 157.673185,147.56918 L169.759216,147.56918 C167.239171,143.080051 165.73978,137.565211 165.567813,132.82849 C165.555759,131.19029 166.83768,131.159221 166.821708,132.354765 C166.926677,138.359813 171.954814,141.315617 175.60681,140.617294 C181.235828,139.535925 183.032948,133.886404 182.977902,130.562512 C182.81387,120.297749 172.94222,112.7263 163.716251,99.5691755 L163.716251,99.5691755 Z" id="path7241-7-2" fill="#000000"></path>
            <path d="M60.1833561,279.850058 C50.9573871,266.692934 41.0857368,259.121485 40.9217049,248.856722 C40.8664583,245.53283 42.6637785,239.883309 48.2927969,238.80195 C51.9447932,238.103617 56.9729302,241.059421 57.0778986,247.064469 C57.0618269,248.260013 58.3438477,248.228944 58.3317939,246.590744 C58.1598265,241.854023 56.6604358,236.339183 54.1403906,231.850054 L66.2264221,231.850054 C63.7063769,236.339183 62.2069861,241.854023 62.0350188,246.590744 C62.022965,248.228944 63.3048853,248.260013 63.288914,247.064469 C63.3938824,241.059421 68.4220195,238.103617 72.0740158,238.80195 C77.7030341,239.883309 79.500053,245.53283 79.4451078,248.856722 C79.2810758,259.121485 69.4094256,266.692934 60.1833561,279.850058 L60.1833561,279.850058 Z" id="path7245-1-6" fill="#000000"></path>
            <path d="M163.716251,279.850058 C154.490181,266.692934 144.618531,259.121485 144.454499,248.856722 C144.399253,245.53283 146.196573,239.883309 151.825591,238.80195 C155.477587,238.103617 160.505724,241.059421 160.610693,247.064469 C160.594621,248.260013 161.876642,248.228944 161.864588,246.590744 C161.692621,241.854023 160.19323,236.339183 157.673185,231.850054 L169.759216,231.850054 C167.239171,236.339183 165.73978,241.854023 165.567813,246.590744 C165.555759,248.228944 166.83768,248.260013 166.821708,247.064469 C166.926677,241.059421 171.954814,238.103617 175.60681,238.80195 C181.235828,239.883309 183.032948,245.53283 182.977902,248.856722 C182.81387,259.121485 172.94222,266.692934 163.716251,279.850058 L163.716251,279.850058 Z" id="path7247-0-6" fill="#000000"></path>
            <path d="M163.716251,213.709619 C154.490181,200.552504 144.618531,192.981056 144.454499,182.716293 C144.399253,179.392401 146.196573,173.74288 151.825591,172.661521 C155.477587,171.963188 160.505724,174.919002 160.610693,180.92404 C160.594621,182.119584 161.876642,182.088515 161.864588,180.450315 C161.692621,175.713594 160.19323,170.198744 157.673185,165.709615 L169.759216,165.709615 C167.239171,170.198744 165.73978,175.713594 165.567813,180.450315 C165.555759,182.088515 166.83768,182.119584 166.821708,180.92404 C166.926677,174.919002 171.954814,171.963188 175.60681,172.661521 C181.235828,173.74288 183.032948,179.392401 182.977902,182.716293 C182.81387,192.981056 172.94222,200.552504 163.716251,213.709619 L163.716251,213.709619 Z" id="path7251-3-6" fill="#000000"></path>
            <path d="M111.949753,132.639395 C102.723784,145.79652 92.852134,153.367968 92.688102,163.632732 C92.6328555,166.956623 94.4301756,172.606144 100.059194,173.687503 C103.71119,174.385837 108.739327,171.430032 108.844296,165.424984 C108.828224,164.22944 110.110245,164.26051 110.098191,165.89871 C109.926224,170.635431 108.426833,176.150271 105.906788,180.6394 L117.992819,180.6394 C115.472774,176.150271 113.973383,170.635431 113.801416,165.89871 C113.789362,164.26051 115.071282,164.22944 115.055311,165.424984 C115.16028,171.430032 120.188417,174.385837 123.840413,173.687503 C129.469431,172.606144 131.266551,166.956623 131.211505,163.632732 C131.047473,153.367968 121.175823,145.79652 111.949753,132.639395 L111.949753,132.639395 Z" id="path7255-7-8" fill="#000000"></path>
            <path d="M8.33308471,41.2101763 L11.3518554,40.253085 C12.4923446,43.2960784 14.7924081,44.19698 17.2273737,44.001876 C21.596269,43.6535819 23.0477459,38.7694794 23.3744036,34.4523806 C21.6721074,36.2580764 19.1148964,37.1745779 16.9355716,37.0816808 C9.96968772,36.7084771 8.18653075,31.1330834 8.12224388,25.2970862 C7.93189448,20.3762863 9.96587069,16.8120857 13.4553418,15.1753805 C15.3040914,14.3464792 19.5364776,14.3464792 21.3956739,15.3285805 C25.6642214,17.5806842 27.2468837,21.4709778 26.960104,30.7598797 C26.960104,38.4014824 25.3374633,47.3015805 17.1464124,47.4953804 C12.4164057,48.1500846 8.82025863,44.4679769 8.33298426,41.2101763 L8.33298426,41.2101763 L8.33308471,41.2101763 Z M20.1909983,32.8365823 C21.611738,31.9369848 22.4114064,31.0924835 23.0490518,29.8288817 C23.5710812,28.7904803 23.7523903,28.2483863 23.6019188,26.1009775 C23.2147913,20.5608768 20.3119379,17.4157767 16.0986369,18.0389801 C13.7482488,18.3925812 12.4627123,19.7071861 11.7247192,22.1518858 C10.3631434,26.6732781 12.0910539,31.9618844 15.3259891,33.1796797 C16.7812831,33.732177 19.0313234,33.5737803 20.1908978,32.8365823 L20.1908978,32.8365823 L20.1909983,32.8365823 Z" id="path29-33-4-4" fill="#000000"></path>
            <path d="M215.564111,272.068789 L212.545341,273.02588 C211.404852,269.982887 209.104788,269.081985 206.669822,269.277089 C202.300927,269.625383 200.849551,274.509486 200.522793,278.826585 C202.225089,277.020889 204.7824,276.104387 206.961625,276.197285 C213.927508,276.570488 215.710665,282.145882 215.775053,287.981889 C215.965302,292.902689 213.931325,296.46689 210.441854,298.103585 C208.593105,298.932486 204.360719,298.932486 202.501623,297.950385 C198.232975,295.698281 196.650312,291.807988 196.937092,282.519086 C196.937092,274.877483 198.559733,265.977385 206.750784,265.783585 C211.48079,265.128881 215.076938,268.810988 215.564212,272.068789 L215.564212,272.068789 L215.564111,272.068789 Z M203.706198,280.442383 C202.285358,281.341981 201.485689,282.186482 200.848144,283.450084 C200.326115,284.488485 200.144705,285.030589 200.295277,287.177988 C200.682405,292.718089 203.585258,295.863189 207.798559,295.239985 C210.148947,294.886384 211.434484,293.571789 212.172477,291.12709 C213.534153,286.605687 211.806142,281.317081 208.571307,280.099286 C207.115913,279.546788 204.865873,279.705185 203.706298,280.442383 L203.706298,280.442383 L203.706198,280.442383 Z" id="path29-33-3-8-6" fill="#000000"></path>
        </g>
    </g>
</svg>