<?xml version="1.0" encoding="UTF-8" standalone="no"?>
<svg width="225px" height="313px" viewBox="0 0 225 313" version="1.1" xmlns="http://www.w3.org/2000/svg" xmlns:xlink="http://www.w3.org/1999/xlink">
    <!-- Generator: Sketch 39.1 (31720) - http://www.bohemiancoding.com/sketch -->
    <title>SA</title>
    <desc>Created with Sketch.</desc>
    <defs></defs>
    <g id="Page-3" stroke="none" stroke-width="1" fill="none" fill-rule="evenodd">
        <g id="SA" transform="translate(0.546805, -0.185344)">
            <rect id="rect5268" stroke="#000000" stroke-width="0.996734187" fill="#FFFFFF" x="0.535931486" y="0.733726925" width="223.228352" height="311.81103" rx="10.582486"></rect>
            <path d="M17.7531197,50.7071537 C13.4425145,56.1892891 8.8303135,59.34405 8.75372172,63.6210405 C8.72770563,65.0059905 9.56761355,67.35996 12.1976194,67.8105312 C13.9039134,68.1015019 16.2531163,66.8699125 16.3022154,64.3678092 C16.2921705,63.8696558 16.8936144,63.8826072 16.8880194,64.5651905 C16.8079621,66.5388335 16.1071148,68.8366835 14.9297209,70.7071464 L20.5765186,70.7071464 C19.3991146,68.8366835 18.6985184,66.5388335 18.6182201,64.5651905 C18.6081752,63.8826072 19.2115175,63.8696558 19.204014,64.3678092 C19.2530328,66.8699125 21.602316,68.1015019 23.30862,67.8105312 C25.9386159,67.35996 26.7782224,65.0059905 26.7525177,63.6210405 C26.6754739,59.34405 22.0636144,56.1892891 17.7531197,50.7071537 L17.7531197,50.7071537 Z" id="path153-0-1-2-5-5-5-3-4" fill="#000000"></path>
            <path d="M206.547627,262.571782 C202.237022,257.089646 197.624821,253.934885 197.548219,249.657895 C197.522203,248.272945 198.362121,245.918975 200.992127,245.468404 C202.698421,245.177433 205.047624,246.409023 205.096723,248.911126 C205.086678,249.409279 205.688122,249.396328 205.682527,248.713745 C205.60247,246.740102 204.901622,244.442252 203.724228,242.571789 L209.371026,242.571789 C208.193622,244.442252 207.493026,246.740102 207.412728,248.713745 C207.402683,249.396328 208.006025,249.409279 207.998522,248.911126 C208.04754,246.409023 210.396823,245.177433 212.103127,245.468404 C214.733123,245.918975 215.57272,248.272945 215.547025,249.657895 C215.469981,253.934885 210.858122,257.089646 206.547627,262.571782 L206.547627,262.571782 Z" id="path153-0-1-2-5-6-5-9-1-9" fill="#000000"></path>
            <path d="M112.149997,132.639395 C102.923998,145.79652 93.0522971,153.367968 92.8882953,163.632732 C92.8332497,166.956623 94.6303991,172.606144 100.259397,173.687503 C103.911404,174.385837 108.939501,171.430032 109.044499,165.424984 C109.028528,164.22944 110.310398,164.26051 110.298404,165.89871 C110.126397,170.635431 108.626996,176.150271 106.107001,180.6394 L118.193002,180.6394 C115.672997,176.150271 114.173597,170.635431 114.001599,165.89871 C113.989646,164.26051 115.271506,164.22944 115.255504,165.424984 C115.360503,171.430032 120.3886,174.385837 124.040606,173.687503 C129.669604,172.606144 131.466704,166.956623 131.411698,163.632732 C131.247706,153.367968 121.376006,145.79652 112.149997,132.639395 L112.149997,132.639395 Z" id="path153-6-3-1-6-92-7-2-9-8" fill="#000000"></path>
            <path d="M7.65960946,47.5716444 L7.65960946,44.7499388 L10.3519033,44.7499388 L16.0873064,14.5716394 L19.3517031,14.5716394 L25.6696054,44.7499388 L27.8437069,44.7499388 L27.8437069,47.5716444 L20.4355093,47.5716444 L20.4355093,44.7499388 L22.4348108,44.7499388 L21.6364081,40.125236 L14.1627082,40.125236 L13.5854021,44.7499388 L15.5846032,44.7499388 L15.5846032,47.5716444 L7.65960946,47.5716444 L7.65960946,47.5716444 Z M20.9987025,36.8308384 L17.7497045,20.6784428 L14.7065048,36.8308384 L20.9987025,36.8308384 L20.9987025,36.8308384 Z" id="path41-4-9-2" fill="#000000"></path>
            <path d="M196.454117,265.707291 L196.454117,268.528996 L199.146411,268.528996 L204.881814,298.707296 L208.146201,298.707296 L214.464103,268.528996 L216.638204,268.528996 L216.638204,265.707291 L209.230007,265.707291 L209.230007,268.528996 L211.229308,268.528996 L210.430906,273.153699 L202.957216,273.153699 L202.37991,268.528996 L204.379111,268.528996 L204.379111,265.707291 L196.454117,265.707291 L196.454117,265.707291 Z M209.7932,276.448097 L206.544202,292.600492 L203.501012,276.448097 L209.7932,276.448097 L209.7932,276.448097 Z" id="path41-4-2-4-0" fill="#000000"></path>
        </g>
    </g>
</svg>